<svg xmlns="http://www.w3.org/2000/svg" width="80" height="80" viewBox="0 0 80 80"><defs><clipPath id="i1uha"><path fill="#fff" d="M80 40c0 22.053-17.87 40-40 40C17.947 80 0 62.13 0 40 0 17.947 17.87 0 40 0c22.13.076 40 17.947 40 40z"/></clipPath></defs><g><g><g><path fill="#fff" d="M60 38.554v3.116c0 3.307-.385 6.677-.385 6.677s-.386 2.799-1.605 4.07c-1.477 1.59-3.21 1.59-3.981 1.718-5.586.445-13.997.445-13.997.445s-10.401-.127-13.611-.445c-.9-.191-2.89-.127-4.43-1.78-1.22-1.21-1.606-4.071-1.606-4.071S20 44.977 20 41.606V38.49c0-3.37.385-6.678.385-6.678s.385-2.798 1.605-4.07c1.477-1.59 3.21-1.59 3.981-1.717 5.586-.445 13.997-.445 13.997-.445s8.41 0 13.997.445c.77.064 2.44.064 3.98 1.717 1.22 1.209 1.606 4.07 1.606 4.07S60 35.183 60 38.554zM40.738 36.39l-4.88-2.607v11.638l10.787-5.787z"/></g><g><path fill="none" stroke="#cd201f" stroke-miterlimit="20" stroke-width="2" d="M80 40c0 22.053-17.87 40-40 40C17.947 80 0 62.13 0 40 0 17.947 17.87 0 40 0c22.13.076 40 17.947 40 40z" clip-path="url(&quot;#i1uha&quot;)"/></g></g></g></svg>