<svg xmlns="http://www.w3.org/2000/svg" width="80" height="80" viewBox="0 0 80 80"><defs><clipPath id="bk6qa"><path fill="#fff" d="M80 40c0 22.053-17.87 40-40 40C17.947 80 0 62.13 0 40 0 17.947 17.87 0 40 0c22.13.076 40 17.947 40 40z"/></clipPath></defs><g><g><g><path fill="#fff" d="M59 39.123c0 10.186-8.356 18.481-18.665 18.481-3.293 0-6.343-.854-9.027-2.318L21 58.58l3.416-9.942a18.399 18.399 0 0 1-2.684-9.576v-.793c.427-9.82 8.6-17.689 18.603-17.689 10.126 0 18.36 8.051 18.604 18.055 0 .183 0 .305.061.488zm-2.989 0c0-.427 0-.793-.06-1.22-.61-7.99-7.381-14.334-15.616-14.334-8.173 0-14.821 6.16-15.614 14.029-.061.488-.061 1.037-.061 1.524 0 3.355 1.098 6.527 2.988 9.089l-1.951 5.794 6.038-1.89a15.844 15.844 0 0 0 8.6 2.561c8.6 0 15.615-6.953 15.676-15.554z"/></g><g><path fill="#fff" d="M48.045 43.373c-.472-.255-2.595-1.407-3.008-1.535-.413-.128-.708-.256-1.003.256-.295.448-1.12 1.535-1.415 1.855-.236.32-.531.384-.944.128-.472-.256-1.887-.768-3.539-2.367-1.297-1.279-2.182-2.814-2.477-3.326-.236-.448 0-.704.177-.96.177-.191.472-.575.649-.831a.88.88 0 0 0 .177-.256c.118-.192.177-.32.295-.576.177-.32.059-.575-.06-.831-.117-.256-1.002-2.559-1.356-3.518-.354-.96-.707-.768-1.002-.768-.236 0-.531-.064-.826-.064-.295 0-.767.128-1.18.576-.412.447-1.533 1.599-1.533 3.966 0 .575.118 1.087.236 1.599.472 1.663 1.415 3.07 1.592 3.326.236.32 3.067 5.245 7.55 7.164 4.482 1.92 4.482 1.28 5.308 1.216.825-.064 2.595-1.152 3.008-2.239.353-1.087.353-2.047.235-2.239-.177-.192-.471-.32-.884-.576z"/></g><g><path fill="none" stroke="#25d366" stroke-miterlimit="20" stroke-width="2" d="M80 40c0 22.053-17.87 40-40 40C17.947 80 0 62.13 0 40 0 17.947 17.87 0 40 0c22.13.076 40 17.947 40 40z" clip-path="url(&quot;#bk6qa&quot;)"/></g></g></g></svg>