<svg xmlns="http://www.w3.org/2000/svg" width="80" height="80" viewBox="0 0 80 80"><defs><clipPath id="semha"><path fill="#fff" d="M80 40c0 22.053-17.87 40-40 40C17.947 80 0 62.13 0 40 0 17.947 17.87 0 40 0c22.13.076 40 17.947 40 40z"/></clipPath></defs><g><g><g><path fill="#fff" d="M42.574 33.102V30.29c0-1.35.886-1.688 1.55-1.688H48V22.58h-5.315c-5.924 0-7.252 4.502-7.252 7.315v3.151H32V40.08h3.433v17.5h6.865v-17.5h5.093l.222-2.757.387-4.277h-5.426z"/></g><g><path fill="none" stroke="#3b5998" stroke-miterlimit="20" stroke-width="2" d="M80 40c0 22.053-17.87 40-40 40C17.947 80 0 62.13 0 40 0 17.947 17.87 0 40 0c22.13.076 40 17.947 40 40z" clip-path="url(&quot;#semha&quot;)"/></g></g></g></svg>