<svg xmlns="http://www.w3.org/2000/svg" width="80" height="80" viewBox="0 0 80 80"><defs><clipPath id="lvtza"><path fill="#fff" d="M80 40c0 22.053-17.87 40-40 40C17.947 80 0 62.13 0 40 0 17.947 17.87 0 40 0s40 17.87 40 40z"/></clipPath></defs><g><g><g><path fill="#fff" d="M26.633 47.03h6.918c1.297 0 2.285-1.477 2.285-2.768 0-2.46-2.162-3.013-3.459-3.013h-5.744zm18.469-17.343h10.377v3.444H45.102zm9.018 11.561c-.309-2.029-1.791-3.443-3.83-3.443-2.038 0-3.582 1.414-3.83 3.444zm-7.844 2.276c.185 2.583 1.852 4.612 4.014 4.55 2.162 0 3.398-1.414 3.83-3.443h4.695c-.741 3.936-3.274 6.888-8.463 6.888-5.25 0-8.71-3.813-8.71-8.61 0-4.735 3.46-8.61 8.71-8.61 5.189 0 8.648 3.875 8.648 8.61v.615zM33.55 51.58H22v-23h11.613c3.15 0 5.744 2.583 5.744 5.78a5.678 5.678 0 0 1-2.78 4.859c2.286.8 3.954 2.952 3.954 5.473 0 3.813-3.15 6.888-6.98 6.888zm-1.174-13.775c1.297 0 2.347-1.046 2.347-2.276a2.341 2.341 0 0 0-2.347-2.337h-5.744v4.613z"/></g><g><path fill="none" stroke="#1769ff" stroke-miterlimit="20" stroke-width="2" d="M80 40c0 22.053-17.87 40-40 40C17.947 80 0 62.13 0 40 0 17.947 17.87 0 40 0s40 17.87 40 40z" clip-path="url(&quot;#lvtza&quot;)"/></g></g></g></svg>