<svg xmlns="http://www.w3.org/2000/svg" width="80" height="80" viewBox="0 0 80 80"><defs><clipPath id="ma81a"><path fill="#fff" d="M80 40c0 22.053-17.87 40-40 40C17.947 80 0 62.13 0 40 0 17.947 17.87 0 40 0c22.13.076 40 17.947 40 40z"/></clipPath></defs><g><g><g><path fill="none" stroke="#000" stroke-miterlimit="20" stroke-width="2" d="M80 40c0 22.053-17.87 40-40 40C17.947 80 0 62.13 0 40 0 17.947 17.87 0 40 0c22.13.076 40 17.947 40 40z" clip-path="url(&quot;#ma81a&quot;)"/></g><g><path fill="#fff" d="M29 31.58c-4.536 0-8.352 3.166-8.928 7.364-.072.344-.072.757-.072 1.17 0 4.68 4.032 8.466 9 8.466s9-3.785 9-8.466a8.134 8.134 0 0 0-.792-3.51C35.768 33.644 32.6 31.58 29 31.58z"/></g><g><path fill="#fff" d="M59.928 39.389c-.36-4.354-4.248-7.809-8.928-7.809-3.672 0-6.768 2.073-8.208 5.045A8.12 8.12 0 0 0 42 40.08c0 4.7 4.032 8.5 9 8.5s9-3.8 9-8.5c0-.276 0-.484-.072-.691z"/></g></g></g></svg>