<svg xmlns="http://www.w3.org/2000/svg" width="80" height="80" viewBox="0 0 80 80"><defs><clipPath id="xem7a"><path fill="#fff" d="M80 40c0 22.053-17.87 40-40 40C17.947 80 0 62.13 0 40 0 17.947 17.87 0 40 0c22.13.076 40 17.947 40 40z"/></clipPath></defs><g><g><g><path fill="#fff" d="M58 37.571v1.572l-.062 7.375c0 6.105-5.099 11.062-11.378 11.062H33.44C27.16 57.58 22 52.563 22 46.518V33.642c0-6.105 5.16-11.062 11.44-11.062H41.4c2.984.363 7.275 2.78 8.829 6.045.373.907.622 1.028.995 3.748.186 1.39.31 2.478.932 3.022.87.786 4.228.302 4.912.786l.498.363.31.604zm-24.435-5.924c-1.244 0-2.176.907-2.239 2.116 0 1.149.995 2.116 2.177 2.116h6.342c1.18 0 2.176-.967 2.176-2.116 0-1.148-.995-2.116-2.176-2.116zm12.808 16.866c1.244 0 2.176-.967 2.176-2.116s-.995-2.116-2.176-2.116h-12.87c-1.182 0-2.177.967-2.177 2.116s.995 2.116 2.177 2.116z"/></g><g><path fill="none" stroke="#f57d00" stroke-miterlimit="20" stroke-width="2" d="M80 40c0 22.053-17.87 40-40 40C17.947 80 0 62.13 0 40 0 17.947 17.87 0 40 0c22.13.076 40 17.947 40 40z" clip-path="url(&quot;#xem7a&quot;)"/></g></g></g></svg>