<svg xmlns="http://www.w3.org/2000/svg" width="80" height="80" viewBox="0 0 80 80"><defs><clipPath id="4v8da"><path fill="#fff" d="M80 40c0 22.053-17.87 40-40 40C17.947 80 0 62.13 0 40 0 17.947 17.87 0 40 0s40 17.87 40 40z"/></clipPath></defs><g><g><g><path fill="none" stroke="#00b9d8" stroke-miterlimit="20" stroke-width="2" d="M80 40c0 22.053-17.87 40-40 40C17.947 80 0 62.13 0 40 0 17.947 17.87 0 40 0s40 17.87 40 40z" clip-path="url(&quot;#4v8da&quot;)"/></g><g><path fill="#fff" d="M57.823 32.029c-1.993 11.19-13.27 20.66-16.634 22.812-3.364 2.152-6.48-.86-7.6-3.136-1.31-2.582-5.11-16.786-6.106-17.954-.997-1.169-4.05 1.168-4.05 1.168L22 33.013s6.106-7.195 10.778-8.117c4.922-.922 4.922 7.502 6.106 12.175 1.121 4.55 1.931 7.133 2.928 7.133.997 0 2.928-2.521 5.046-6.395 2.119-3.874-.062-7.317-4.174-4.858 1.62-9.777 17.133-12.113 15.14-.922z"/></g></g></g></svg>