<svg xmlns="http://www.w3.org/2000/svg" width="80" height="80" viewBox="0 0 80 80"><defs><clipPath id="60ova"><path fill="#fff" d="M80 40c0 22.053-17.87 40-40 40C17.947 80 0 62.13 0 40 0 17.947 17.87 0 40 0s40 17.87 40 40z"/></clipPath></defs><g><g><g><path fill="#fff" d="M57.63 49.911c-.058-.057-.058-.057 0 0-.463-.285-.927-.342-1.159-.456-1.854-.57-3.477-1.826-4.694-3.366a10.413 10.413 0 0 1-1.623-2.796c-.174-.456-.174-.913.058-1.198.348-.456.985-.799 1.623-1.027.753-.228 1.507-.513 2.202-1.084.116-.114.232-.228.29-.4 0-.056.058-.113.058-.17.058-.172.058-.4-.058-.57-.174-.4-.522-.571-.753-.743-.406-.228-.87-.228-1.333-.114-.464.114-.812.286-1.16.343-.463.057-.927.114-1.332-.057v-.286c-.058-.798.058-1.597.058-2.453.058-1.255.116-2.567-.116-3.88-.406-2.225-1.855-4.164-3.71-5.42-1.332-.912-2.897-1.426-4.52-1.597-.521-.057-1.1-.057-1.623-.057-2.202 0-4.462.57-6.2 1.94a9.856 9.856 0 0 0-3.014 3.88c-.638 1.54-.58 3.194-.464 4.735.058 1.084.174 2.11.058 3.138v.057c-.521.114-1.043.057-1.565-.057-.347-.057-.753-.229-1.217-.343a1.22 1.22 0 0 0-1.159.286c-.232.17-.637.456-.637.97v.114c.058.285.232.513.405.627.174.114.29.228.406.285.812.514 1.68.742 2.434 1.027.522.229.985.57 1.101 1.027.116.57-.116 1.198-.405 1.826-.87 1.654-2.145 3.138-3.71 4.165-.81.57-1.738.97-2.723 1.198h-.058c-.174.057-.696.114-.985.57 0 .057-.058.057-.058.114-.116.286 0 .571.174.742.115.171.29.228.405.342.812.457 1.68.685 2.55.856.58.114 1.101.171 1.565.4 0 .057.058.17.174.4.116.455.232.969.405 1.482.058.172.174.286.348.286.348.057.58-.057.638-.057h.058c1.39-.229 2.723-.457 3.998-.115 1.333.343 2.434 1.199 3.71 1.997.869.514 1.854 1.027 2.955 1.084.87.057 1.68 0 2.55-.057a4.08 4.08 0 0 0 1.97-.684c1.333-.742 2.55-1.655 3.883-2.225.406-.172.928-.172 1.565-.172 1.101-.057 2.202 0 3.246.172h.116c.115 0 .29-.115.347-.229.058-.114.116-.17.116-.228.058-.114.058-.17 0-.057 0 0 .058-.057.058-.114.174-.628.29-1.198.638-1.597.173-.115.405-.229.695-.229h.058c.927-.114 1.797-.456 2.608-.741.29-.114.753-.286 1.043-.685.174-.114.058-.57-.29-.799z"/></g><g><path fill="none" stroke="#fffc00" stroke-miterlimit="20" stroke-width="2" d="M80 40c0 22.053-17.87 40-40 40C17.947 80 0 62.13 0 40 0 17.947 17.87 0 40 0s40 17.87 40 40z" clip-path="url(&quot;#60ova&quot;)"/></g></g></g></svg>