<svg xmlns="http://www.w3.org/2000/svg" width="80" height="80" viewBox="0 0 80 80">
  <defs>
    <clipPath id="skbla">
      <path fill="#fff"
            d="M80 40c0 22.053-17.87 40-40 40C17.947 80 0 62.13 0 40 0 17.947 17.87 0 40 0c22.13.076 40 17.947 40 40z"/>
    </clipPath>
  </defs>
  <g>
    <g>
      <g>
        <path fill="#fff"
              d="M40.028 50.097c-5.716 0-10.312-4.452-10.312-9.99s4.596-9.99 10.312-9.99c5.66 0 10.311 4.452 10.311 9.99 0 5.484-4.595 9.99-10.311 9.99zm11.824-19.762c0 .923-.784 1.629-1.68 1.629-.954 0-1.682-.76-1.682-1.63 0-.922.784-1.628 1.681-1.628s1.625.76 1.681 1.629zm-20.286-3.91c-3.083 0-5.66 2.444-5.66 5.484v16.342c0 3.04 2.521 5.483 5.66 5.483h16.868c3.082 0 5.66-2.443 5.66-5.483V31.909c0-2.986-2.522-5.483-5.66-5.483zm16.868-1.845c4.203 0 7.621 3.312 7.565 7.33v16.34c0 4.018-3.418 7.33-7.565 7.33H31.566c-4.148 0-7.566-3.312-7.566-7.33V31.91c0-4.018 3.418-7.33 7.566-7.33zm-8.406 23.454c4.539 0 8.182-3.53 8.182-7.927s-3.643-7.926-8.182-7.926c-4.54 0-8.182 3.529-8.182 7.926 0 4.343 3.642 7.927 8.182 7.927z"/>
      </g>
      <g>
        <path fill="none" stroke="#000" stroke-miterlimit="20" stroke-width="2"
              d="M80 40c0 22.053-17.87 40-40 40C17.947 80 0 62.13 0 40 0 17.947 17.87 0 40 0c22.13.076 40 17.947 40 40z"
              clip-path="url('#skbla')"/>
      </g>
    </g>
  </g>
</svg>
