<svg xmlns="http://www.w3.org/2000/svg" width="80" height="80" viewBox="0 0 80 80"><defs><clipPath id="x7kga"><path fill="#fff" d="M80 40c0 22.053-17.87 40-40 40C17.947 80 0 62.13 0 40 0 17.947 17.87 0 40 0c22.13.076 40 17.947 40 40z"/></clipPath></defs><g><g><g><path fill="none" stroke="#007ee5" stroke-miterlimit="20" stroke-width="2" d="M80 40c0 22.053-17.87 40-40 40C17.947 80 0 62.13 0 40 0 17.947 17.87 0 40 0c22.13.076 40 17.947 40 40z" clip-path="url(&quot;#x7kga&quot;)"/></g><g><path fill="#fff" d="M40 29.068l11.285 6.886L40 42.84l-11.285-6.886zm11.227 19.406l-3.34 2.163-7.83-6.431-7.83 6.43-3.34-2.162v2.448l11.228 6.658 11.227-6.659v-2.447zm.058-12.52L59 29.808 47.83 22.58 40 29.01l-7.83-6.43L21 29.808l7.715 6.146L21 42.044l11.17 7.227 7.83-6.43 7.83 6.43L59 42.043z"/></g></g></g></svg>