<svg xmlns="http://www.w3.org/2000/svg" width="80" height="80" viewBox="0 0 80 80"><defs><clipPath id="3ogna"><path fill="#fff" d="M80 40c0 22.053-17.87 40-40 40C17.947 80 0 62.13 0 40 0 17.947 17.87 0 40 0c22.13.076 40 17.947 40 40z"/></clipPath></defs><g><g><g><path fill="none" stroke="#6441a5" stroke-miterlimit="20" stroke-width="2" d="M80 40c0 22.053-17.87 40-40 40C17.947 80 0 62.13 0 40 0 17.947 17.87 0 40 0c22.13.076 40 17.947 40 40z" clip-path="url(&quot;#3ogna&quot;)"/></g><g><path fill="#fff" d="M57.131 22.58c.434 0 .745.376.869.753v18.88c0 .188-.124.439-.248.564l-9.435 9.534c-.124.188-.372.251-.558.251h-9.124c-.31 0-.56.126-.683.376l-2.607 4.266c-.186.25-.435.376-.683.376h-2.98c-.31 0-.558-.126-.682-.376L28.455 53c-.186-.25-.434-.376-.683-.376h-4.965a.826.826 0 0 1-.807-.816V29.041c0-.126.062-.251.124-.377l3.414-5.708c.124-.25.434-.376.683-.376zm-2.917 6.711c0-.25-.186-.439-.435-.439H28.641a.427.427 0 0 0-.434.44V47.23c0 .251.186.44.434.44h2.173c.124 0 .31.125.372.25l1.614 2.823c.124.314.559.314.745 0l1.614-2.822c.062-.189.186-.251.372-.251h11.048a.472.472 0 0 0 .31-.126l7.2-7.276a.482.482 0 0 0 .125-.313z"/></g><g><path fill="#fff" d="M34 41.183v-7.206c0-.199.197-.397.393-.397h3.214c.196 0 .393.198.393.397v7.206c0 .199-.197.397-.393.397h-3.214c-.196 0-.393-.132-.393-.397z"/></g><g><path fill="#fff" d="M43 41.183v-7.206c0-.199.197-.397.393-.397h3.214c.196 0 .393.198.393.397v7.206c0 .199-.197.397-.393.397h-3.214c-.196 0-.393-.132-.393-.397z"/></g></g></g></svg>