<svg xmlns="http://www.w3.org/2000/svg" width="80" height="80" viewBox="0 0 80 80"><defs><clipPath id="y3u9a"><path fill="#fff" d="M80 40c0 22.053-17.87 40-40 40C17.947 80 0 62.13 0 40 0 17.947 17.87 0 40 0s40 17.87 40 40z"/></clipPath></defs><g><g><g><path fill="#fff" d="M40.808 21.58C30.27 21.58 25 28.84 25 34.85c0 1.131.12 2.203.42 3.214.598 2.262 1.975 4.106 4.13 4.94.54.178.959 0 1.139-.536.12-.357.359-1.31.419-1.726.18-.535.12-.714-.3-1.19a5.238 5.238 0 0 1-1.197-2.202c-.18-.595-.24-1.25-.24-1.964 0-5.356 4.192-10.176 10.899-10.176 5.928 0 9.221 3.511 9.221 8.153 0 1.369-.12 2.678-.42 3.928-.897 4.284-3.352 7.379-6.586 7.379-2.335 0-4.072-1.845-3.473-4.106.3-1.31.778-2.619 1.198-3.869.419-1.368.778-2.677.778-3.69 0-1.725-.958-3.213-2.994-3.213-2.395 0-4.251 2.38-4.251 5.475 0 .595.06 1.131.18 1.607.179 1.13.538 1.785.538 1.785l-2.814 11.605c-.839 3.451-.12 7.677-.06 8.093.06.238.36.298.539.12.24-.298 3.054-3.63 4.012-6.963.3-.953 1.557-5.833 1.557-5.833.778 1.429 2.994 2.679 5.389 2.679 5.808 0 10.06-4.166 11.437-10.177.3-1.368.479-2.856.479-4.404-.18-6.308-5.748-12.199-14.192-12.199z"/></g><g><path fill="none" stroke="#bd081c" stroke-miterlimit="20" stroke-width="2" d="M80 40c0 22.053-17.87 40-40 40C17.947 80 0 62.13 0 40 0 17.947 17.87 0 40 0s40 17.87 40 40z" clip-path="url(&quot;#y3u9a&quot;)"/></g></g></g></svg>