<svg xmlns="http://www.w3.org/2000/svg" width="80" height="80" viewBox="0 0 80 80"><defs><clipPath id="pmmsa"><path fill="#fff" d="M80 40c0 22.053-17.87 40-40 40C17.947 80 0 62.13 0 40 0 17.947 17.87 0 40 0c22.13.076 40 17.947 40 40z"/></clipPath></defs><g><g><g><path fill="#fff" d="M26 40.148V55.58h7v-21h-7z"/></g><g><path fill="#fff" d="M29.5 24.58c-1.95 0-3.5 1.55-3.5 3.5s1.55 3.5 3.5 3.5 3.5-1.55 3.5-3.5-1.55-3.5-3.5-3.5z"/></g><g><path fill="#fff" d="M56.855 41.037c-.484-3.983-2.3-6.457-7.688-6.457-3.208 0-5.327 1.207-6.174 2.836h-.121V34.58H37v21h6.114V45.2c0-2.715.545-5.37 3.935-5.37 3.329 0 3.632 3.138 3.632 5.552V55.58h6.295V44.054c.06-1.086 0-2.052-.12-3.017z"/></g><g><path fill="none" stroke="#00a0dc" stroke-miterlimit="20" stroke-width="2" d="M80 40c0 22.053-17.87 40-40 40C17.947 80 0 62.13 0 40 0 17.947 17.87 0 40 0c22.13.076 40 17.947 40 40z" clip-path="url(&quot;#pmmsa&quot;)"/></g></g></g></svg>