<svg xmlns="http://www.w3.org/2000/svg" width="80" height="80" viewBox="0 0 80 80"><defs><clipPath id="4vzfa"><path fill="#fff" d="M80 40c0 22.053-17.87 40-40 40C17.947 80 0 62.13 0 40 0 17.947 17.87 0 40 0s40 17.87 40 40z"/></clipPath></defs><g><g><g><path fill="none" stroke="#dd4b39" stroke-miterlimit="20" stroke-width="2" d="M80 40c0 22.053-17.87 40-40 40C17.947 80 0 62.13 0 40 0 17.947 17.87 0 40 0s40 17.87 40 40z" clip-path="url(&quot;#4vzfa&quot;)"/></g><g><path fill="#dc4e41" d="M18.01 40.58c-.115 5.869 3.821 11.448 9.297 13.25 5.134 1.743 11.409.465 14.831-4.01 2.51-3.138 3.08-7.323 2.795-11.217-4.392-.058-8.784 0-13.176 0v4.766c2.623.058 5.247.058 7.871.116-.684 2.325-2.167 4.475-4.449 5.289-4.45 1.976-10.096-.64-11.465-5.347-1.655-4.533 1.083-9.996 5.647-11.333 2.795-.988 5.704.117 8.157 1.628a70.073 70.073 0 0 0 3.48-3.662c-2.739-2.324-6.275-3.777-9.869-3.429-7.187.059-13.405 6.742-13.12 13.948z"/></g><g><path fill="#dc4e41" d="M54.058 34.58c0 1.333 0 2.667-.058 4h-4v4h4v4h4v-4h4v-4h-4v-4h-3.942z"/></g><g><path fill="#fff" d="M18.01 40.117c-.286-6.946 5.944-13.444 13.09-13.5 3.6-.28 7.145 1.064 9.889 3.305a68.715 68.715 0 0 1-3.487 3.529c-2.401-1.457-5.316-2.521-8.174-1.569-4.573 1.289-7.317 6.554-5.66 10.923 1.372 4.594 7.089 7.058 11.49 5.154 2.287-.784 3.83-2.857 4.459-5.098-2.63-.056-5.26 0-7.889-.112v-4.593h13.205c.286 3.753-.286 7.786-2.801 10.811-3.43 4.314-9.718 5.602-14.862 3.865-5.43-1.68-9.375-7.058-9.26-12.715z"/></g><g><path fill="#fff" d="M54 34.58h4v4h4v4h-4v4h-4v-4h-4v-4h4v-4z"/></g></g></g></svg>