<svg xmlns="http://www.w3.org/2000/svg" width="80" height="80" viewBox="0 0 80 80"><defs><clipPath id="mqela"><path fill="#fff" d="M80 40c0 22.053-17.87 40-40 40C17.947 80 0 62.13 0 40 0 17.947 17.87 0 40 0s40 17.87 40 40z"/></clipPath></defs><g><g><g><path fill="none" stroke="#01a7ff" stroke-miterlimit="20" stroke-width="2" d="M80 40c0 22.053-17.87 40-40 40C17.947 80 0 62.13 0 40 0 17.947 17.87 0 40 0s40 17.87 40 40z" clip-path="url(&quot;#mqela&quot;)"/></g><g><path fill="#fff" d="M57.977 47.734c0 5.415-4.428 9.846-9.963 9.846-1.722 0-3.321-.43-4.736-1.17-.984.185-2.09.308-3.136.308-9.47 0-17.158-7.569-17.158-16.923 0-.492 0-1.046.061-1.538.062-.616.185-1.23.308-1.846A9.757 9.757 0 0 1 22 31.426c0-5.415 4.428-9.846 9.963-9.846 1.968 0 3.751.554 5.289 1.538.984-.184 1.968-.246 2.951-.246 9.102 0 16.482 6.954 17.159 15.693.061.43.061.861.061 1.292 0 1.23-.123 2.461-.369 3.63.677 1.293 1.046 2.77.923 4.247zm-7.565-3.754c0-1.17-.184-2.215-.676-3.015-.492-.8-1.169-1.477-1.968-2.031-.8-.492-1.784-.923-2.952-1.292-1.169-.37-2.398-.677-3.813-.985-.922-.185-1.599-.37-2.09-.492-.124 0-.247-.062-.308-.062a5.638 5.638 0 0 1-1.415-.554c-.43-.184-.8-.43-1.045-.738-.246-.246-.37-.616-.37-.985 0-.615.308-1.108 1.046-1.6s1.722-.738 2.952-.738c1.353 0 2.337.246 2.89.677.616.492 1.107 1.107 1.538 1.907a6.918 6.918 0 0 0 1.045 1.354c.37.308.861.43 1.476.43.738 0 1.292-.245 1.784-.737.43-.493.676-1.047.676-1.662s-.184-1.23-.553-1.908c-.308-.615-.923-1.292-1.66-1.846-.739-.615-1.661-1.046-2.83-1.415-1.106-.308-2.46-.493-3.997-.493-1.906 0-3.628.247-5.043.8-1.414.493-2.583 1.293-3.32 2.277-.8.985-1.17 2.154-1.17 3.447 0 .923.124 1.723.493 2.461.184.308.369.615.615.923.738.923 1.722 1.662 2.952 2.154 1.168.554 2.706.985 4.49 1.354 1.29.308 2.336.554 3.136.8.738.246 1.352.554 1.844.984.43.431.677.924.677 1.6 0 .8-.43 1.539-1.292 2.093-.86.554-2.029.861-3.443.861-1.046 0-1.907-.123-2.522-.43-.615-.308-1.107-.677-1.414-1.108-.37-.431-.677-1.046-.984-1.723-.246-.677-.615-1.17-.984-1.477a2.55 2.55 0 0 0-1.538-.492c-.738 0-1.291.246-1.783.676-.492.431-.738.985-.738 1.6 0 .985.369 2.031 1.107 3.077.738.985 1.66 1.847 2.829 2.462 1.599.861 3.69 1.292 6.15 1.292 2.029 0 3.812-.307 5.35-.923 1.537-.615 2.706-1.477 3.505-2.584.8-1.108 1.23-2.339 1.353-3.939z"/></g></g></g></svg>