<svg xmlns="http://www.w3.org/2000/svg" width="80" height="80" viewBox="0 0 80 80"><defs><clipPath id="gm0za"><path fill="#fff" d="M80 40c0 22.053-17.87 40-40 40C17.947 80 0 62.13 0 40 0 17.947 17.87 0 40 0s40 17.87 40 40z"/></clipPath></defs><g><g><g><path fill="#fff" d="M41.696 24.436c8.495 1.297 12.367 5.446 13.429 14.134v.195c.062.778-.125 1.815.936 1.815.875 0 .937-.648.937-1.362v-.583c.125-8.17-6.932-15.755-15.052-16.015-.624.065-1.873-.453-1.936.973-.125.908.937.713 1.686.843z"/></g><g><path fill="#fff" d="M51.088 37.545c.065.572.195 1.144 1.169 1.017.52-.063.65-.381.714-.699.065-.318 0-.762 0-1.016.065-4.956-4.416-9.468-9.807-10.103-.844-.127-1.949-.508-2.143.635-.195 1.207 1.039 1.08 1.818 1.207 5.456 1.144 7.34 3.05 8.249 8.26-.065.255 0 .509 0 .7z"/></g><g><path fill="#fff" d="M43.522 30.581c-.613 0-1.159.067-1.432.673-.34.942.341 1.144 1.091 1.279 2.319.336 3.546 1.682 3.819 3.97 0 .27.136.539.34.74.205.202.478.337.75.337.205 0 .341-.067.478-.135.409-.269.477-.807.409-1.346.068-2.624-2.932-5.585-5.455-5.518z"/></g><g><path fill="#fff" d="M55.281 47.803c-1.094-.847-2.253-1.629-3.412-2.476-2.318-1.564-4.378-1.695-6.052.847-.966 1.434-2.318 1.5-3.735.847-3.863-1.76-6.824-4.432-8.627-8.342-.258-.587-.451-1.174-.451-1.76-.064-1.043.386-1.955 1.545-2.737.966-.652 1.932-1.434 1.867-2.803-.128-1.825-4.635-8.017-6.374-8.603a3.161 3.161 0 0 0-2.189 0c-4.185 1.368-5.859 4.823-4.25 8.798.902 2.216 1.932 4.367 3.156 6.323 5.15 8.668 12.684 14.99 22.406 19.162.708.26 1.416.39 1.803.521 2.704 0 5.923-2.607 6.824-5.149.837-2.477-1.03-3.454-2.51-4.628z"/></g><g><path fill="none" stroke="#8f5db7" stroke-miterlimit="20" stroke-width="2" d="M80 40c0 22.053-17.87 40-40 40C17.947 80 0 62.13 0 40 0 17.947 17.87 0 40 0s40 17.87 40 40z" clip-path="url(&quot;#gm0za&quot;)"/></g></g></g></svg>