<svg xmlns="http://www.w3.org/2000/svg" width="80" height="80" viewBox="0 0 80 80"><defs><clipPath id="qxm2a"><path fill="#fff" d="M80 40c0 22.053-17.87 40-40 40C17.947 80 0 62.13 0 40 0 17.947 17.87 0 40 0c22.13.076 40 17.947 40 40z"/></clipPath></defs><g><g><g><path fill="none" stroke="#ff4500" stroke-miterlimit="20" stroke-width="2" d="M80 40c0 22.053-17.87 40-40 40C17.947 80 0 62.13 0 40 0 17.947 17.87 0 40 0c22.13.076 40 17.947 40 40z" clip-path="url(&quot;#qxm2a&quot;)"/></g><g><path fill="#fff" d="M58.234 42.978c.129.636.193 1.273.193 1.974 0 7.514-8.233 13.628-18.395 13.628-10.162 0-18.395-6.114-18.395-13.628 0-.637.064-1.338.193-1.974-1.672-.892-2.83-2.611-2.83-4.65 0-2.865 2.38-5.221 5.274-5.221a5.22 5.22 0 0 1 3.73 1.528c2.96-1.847 6.754-3.057 10.87-3.248a7.94 7.94 0 0 1 3.023-6.24 8.22 8.22 0 0 1 6.818-1.593l.45.064a4.474 4.474 0 0 1 3.73-2.038c2.445 0 4.439 1.974 4.439 4.394s-1.994 4.394-4.438 4.394-4.438-1.974-4.438-4.394v-.19l-.257-.065a5.833 5.833 0 0 0-4.889 1.147 5.59 5.59 0 0 0-2.186 4.458c4.116.127 7.91 1.337 10.87 3.247a5.221 5.221 0 0 1 3.73-1.528c2.894 0 5.274 2.356 5.274 5.222 0 1.974-1.158 3.757-2.766 4.713zm-7.59-17.068c0 1.147.966 2.102 2.123 2.102 1.158 0 2.123-.955 2.123-2.102 0-1.146-.965-2.101-2.123-2.101-1.158 0-2.122.955-2.122 2.101zm-28.17 14.711a13.244 13.244 0 0 1 3.601-4.712 3.132 3.132 0 0 0-1.865-.637c-1.672 0-3.023 1.337-3.023 2.993 0 .955.45 1.847 1.286 2.356zm33.638 4.267c0-2.93-1.608-5.668-4.502-7.833-3.088-2.293-7.204-3.566-11.642-3.566s-8.554 1.273-11.642 3.566c-2.894 2.165-4.502 4.904-4.502 7.833 0 2.93 1.608 5.668 4.502 7.833 3.088 2.293 7.204 3.566 11.642 3.566s8.554-1.273 11.642-3.566c2.894-2.165 4.438-4.967 4.502-7.833zm2.637-6.56c0-1.655-1.35-2.992-3.023-2.992-.708 0-1.35.254-1.865.636 1.608 1.338 2.83 2.93 3.602 4.713a3.25 3.25 0 0 0 1.286-2.356z"/></g><g><path fill="#fff" d="M33.5 44.58a2.5 2.5 0 1 0 0-5 2.5 2.5 0 0 0 0 5z"/></g><g><path fill="#fff" d="M46.5 39.58a2.494 2.494 0 0 0-2.5 2.5c0 1.351 1.149 2.5 2.5 2.5 1.419 0 2.5-1.149 2.5-2.5s-1.081-2.5-2.5-2.5z"/></g><g><path fill="#fff" d="M46.065 47.602a8.955 8.955 0 0 1-6.24 2.558c-2.6 0-5.005-1.106-6.825-3.18-.455-.485-1.17-.554-1.625-.07-.455.484-.52 1.245-.065 1.729 2.21 2.489 5.265 3.941 8.515 3.941 2.925 0 5.655-1.175 7.8-3.25.454-.484.52-1.244.064-1.728-.39-.415-1.17-.484-1.624 0z"/></g></g></g></svg>