<svg xmlns="http://www.w3.org/2000/svg" width="80" height="80" viewBox="0 0 80 80"><defs><clipPath id="47uha"><path fill="#fff" d="M80 40c0 22.053-17.87 40-40 40C17.947 80 0 62.13 0 40 0 17.947 17.87 0 40 0s40 17.87 40 40z"/></clipPath></defs><g><g><g><path fill="none" stroke="#05cc47" stroke-miterlimit="20" stroke-width="2" d="M80 40c0 22.053-17.87 40-40 40C17.947 80 0 62.13 0 40 0 17.947 17.87 0 40 0s40 17.87 40 40z" clip-path="url(&quot;#47uha&quot;)"/></g><g><path fill="#fff" d="M52 21.58h-7.642l-3.164 5.943c-.358.7-1.134 1.166-1.97 1.166H28.06v9.439h6.03c.656 0 1.074.7.776 1.282L28 52.345v6.235h7.642l3.164-5.943c.358-.7 1.134-1.166 1.97-1.166H51.94v-9.439h-6.03a.879.879 0 0 1-.776-1.282L52 27.815z"/></g></g></g></svg>