<svg xmlns="http://www.w3.org/2000/svg" width="80" height="80" viewBox="0 0 80 80"><defs><clipPath id="6g6ea"><path fill="#fff" d="M80 40c0 22.053-17.87 40-40 40C17.947 80 0 62.13 0 40 0 17.947 17.87 0 40 0c22.13.076 40 17.947 40 40z"/></clipPath></defs><g><g><g><path fill="#fff" d="M57 29.772c-1.257.541-2.57.92-3.99 1.083 1.42-.866 2.569-2.165 3.06-3.788-1.366.757-2.842 1.353-4.427 1.677a7.084 7.084 0 0 0-5.083-2.164c-3.827 0-6.997 3.03-6.997 6.818 0 .54.054 1.028.164 1.569-5.794-.27-10.933-2.976-14.377-7.088a6.65 6.65 0 0 0-.929 3.408c0 2.381 1.257 4.437 3.116 5.682-1.148-.054-2.241-.325-3.17-.866v.108c0 .866.164 1.678.492 2.49.874 2.11 2.787 3.733 5.138 4.22-.602.162-1.203.216-1.859.216-.437 0-.874-.054-1.312-.108.875 2.705 3.444 4.653 6.505 4.707a14.231 14.231 0 0 1-8.691 2.922c-.547 0-1.093-.054-1.64-.108 3.116 1.948 6.778 3.03 10.714 3.03 10.932 0 17.601-7.467 19.405-15.258.328-1.353.492-2.76.492-4.113v-.865c1.257-1.029 2.46-2.219 3.389-3.572z"/></g><g><path fill="none" stroke="#1da1f2" stroke-miterlimit="20" stroke-width="2" d="M80 40c0 22.053-17.87 40-40 40C17.947 80 0 62.13 0 40 0 17.947 17.87 0 40 0c22.13.076 40 17.947 40 40z" clip-path="url(&quot;#6g6ea&quot;)"/></g></g></g></svg>