<svg xmlns="http://www.w3.org/2000/svg" width="80" height="80" viewBox="0 0 80 80"><defs><clipPath id="mj5ka"><path fill="#fff" d="M80 40c0 22.053-17.87 40-40 40C17.947 80 0 62.13 0 40 0 17.947 17.87 0 40 0c22.13.076 40 17.947 40 40z"/></clipPath></defs><g><g><g><path fill="none" stroke="#8921b4" stroke-miterlimit="20" stroke-width="2" d="M80 40c0 22.053-17.87 40-40 40C17.947 80 0 62.13 0 40 0 17.947 17.87 0 40 0c22.13.076 40 17.947 40 40z" clip-path="url(&quot;#mj5ka&quot;)"/></g><g><path fill="#fdfdfd" d="M61 30.135c0-.132-.066-.197-.199-.197-.863 0-1.659 0-2.521.065l-11.744.198c-.797 0-1.593.066-2.455.066-.133 0-.133.066-.133.131v2.305c0 .131 0 .131.133.131.464 0 .995.066 1.46.066 1.459.066 2.985.132 4.445.132h.199l-.266.263c-2.587 2.173-5.109 4.345-7.696 6.518-.2.198-.2.198-.398-.066-2.256-2.7-4.446-5.464-6.702-8.163-.53-.659-1.061-1.251-1.592-1.91h.132c.863-.066 1.66-.131 2.522-.197.929-.066 1.858-.132 2.72-.198.133 0 .2-.066.2-.197.066-.79.132-1.58.198-2.305 0-.131 0-.197-.132-.197H19.199c-.133 0-.199 0-.199.198v2.238c0 .263 0 .263.265.263 1.858.132 3.716.264 5.64.395.133 0 .2.066.332.132 1.659 1.975 3.251 3.95 4.91 5.925 2.123 2.568 4.313 5.201 6.436 7.769a.497.497 0 0 1 .133.263V50.611c0 .065 0 .197-.133.197l-2.787.197c-1.128.066-2.256.198-3.384.263-.132 0-.199.066-.199.198v1.91c0 .263-.066.197.2.197h19.639c.133 0 .133 0 .133-.132v-2.04c0-.133-.067-.133-.133-.133-.332 0-.597-.065-.862-.065l-5.309-.198c-.199 0-.199-.066-.199-.197l.2-7.308c0-.066.066-.132.132-.198.863-.724 1.725-1.514 2.588-2.238 2.787-2.502 5.573-4.938 8.36-7.374a.504.504 0 0 1 .265-.131c.399 0 .797-.066 1.195-.066 1.46-.132 2.853-.198 4.313-.33.132 0 .199-.065.199-.197.066-.987.066-1.91.066-2.83z"/></g><g><path fill="#fdfdfd" d="M61 35.85c-.065.135-.065.337-.13.472-.39 1.752-.844 3.505-1.234 5.258-.454 1.955-.909 3.91-1.363 5.933 0 .067 0 .067-.065.067-.65-.067-1.364-.135-2.013-.202h-.13c-.065 0-.065 0-.065-.068v-.741-.674c0-.675 0-1.349.065-2.023 0-.741 0-1.483.065-2.225 0-.741.065-1.483.065-2.224 0-.742 0-1.483.065-2.225 0-.54 0-1.079.065-1.55 0-.068 0-.068.065-.068.39 0 .844.067 1.233.067.26 0 .52 0 .78.068.454 0 .974.067 1.493.067.325 0 .65 0 .974.068H61z"/></g><g><path fill="#fdfdfd" d="M57.667 51.58h-1.334c-.066 0-.066 0-.066-.077 0-.461-.067-1-.134-1.461-.066-.462-.066-.924-.133-1.385 0-.077 0-.077.067-.077.2 0 .466.077.666.077.334 0 .6.077.934.077.333.077.733.077 1.066.077h.2c.067 0 .067 0 .067.077v2.538c0 .077 0 .077-.067.077-.333.077-.8.077-1.266.077z"/></g></g></g></svg>