<svg width="80" height="50" viewBox="0 0 80 50" fill="none" xmlns="http://www.w3.org/2000/svg">
<path d="M27.3252 18.0873L29.6312 20.7804L33.5337 20.9599L30.6955 24.5506L34.2433 24.5506L37.2589 27.0641L37.0815 19.7031C37.0815 19.7031 37.2589 17.9078 35.485 17.5488L27.3252 18.0873ZM35.8398 15.7534C39.7423 16.292 39.0328 20.7804 39.0328 20.7804L39.0328 39.811L22.8904 24.1915C19.1653 21.3189 19.6975 15.7534 19.6975 15.7534L35.8398 15.7534Z" fill="white"/>
<path d="M18.4557 10.9072C18.4557 10.9072 23.0678 3.72587 31.7599 7.31654C31.7599 7.31654 35.1302 8.39377 38.8554 15.0365V9.65051C38.8554 9.65051 36.9041 3.90541 30.8729 3.00774C30.8729 3.00774 23.9548 2.11006 15.9723 2.8282C15.9723 2.8282 11.0055 3.1873 9.23159 0.673828L0.184779 9.47097C0.184779 9.47097 -0.524785 11.2663 0.894321 12.523L38.8554 49.3274V43.4028L18.8105 24.1927C18.8105 24.1927 13.4889 17.55 18.4557 10.9072ZM44.177 17.7295C42.5805 17.9091 42.5806 19.8839 42.5806 19.8839L42.4032 27.2448L45.4188 24.7313H48.9665L46.1283 21.1407L50.0309 20.9611L52.3369 18.2681L44.177 17.7295ZM43.8223 15.7546H60.142C60.142 15.7546 60.6742 21.3202 56.949 24.1927L40.8067 39.8121V20.7816C40.6293 20.7816 40.0971 16.2932 43.8223 15.7546Z" fill="white"/>
<path d="M61.2064 10.9058C61.2064 10.9058 56.5943 3.72441 47.9023 7.3151C47.9023 7.3151 44.5319 8.39233 40.8068 15.0351V9.64907C40.8068 9.64907 42.758 3.90396 48.7892 3.00629C48.7892 3.00629 55.7074 2.1086 63.6898 2.82674C63.6898 2.82674 68.6567 3.18584 70.4306 0.672363L79.4774 9.46953C79.4774 9.46953 80.1869 11.2648 78.7678 12.5216L40.8068 49.3261V43.4015L60.8516 24.1913C60.8516 24.1913 65.9959 17.5485 61.2064 10.9058Z" fill="white"/>
</svg>
