<svg width="80" height="42" viewBox="0 0 80 42" fill="none" xmlns="http://www.w3.org/2000/svg">
<path fill-rule="evenodd" clip-rule="evenodd" d="M13.4095 25.5857C12.7733 25.5857 12.2753 26.0308 12.2753 26.6802C12.2753 27.33 12.7759 27.7725 13.4095 27.7725C14.0426 27.7725 14.5437 27.327 14.5437 26.6802C14.5437 26.0308 14.0452 25.5857 13.4095 25.5857ZM13.4095 27.4595C12.9559 27.4595 12.6194 27.1282 12.6194 26.6802C12.6194 26.2326 12.9533 25.8987 13.4095 25.8987C13.8601 25.8987 14.1991 26.2377 14.1991 26.6802C14.1991 27.1201 13.8571 27.4595 13.4095 27.4595ZM24.4458 21.7577H18.9244L19.552 12.1608L15.9665 21.7577H10.8392L18.9745 0.065918H24.43L23.8003 9.79451L27.4539 0.065918H32.5815L24.4458 21.7577ZM25.1119 21.7577L33.2467 0.065918H38.3739L30.2391 21.7577H25.1119Z" fill="white"/>
<path fill-rule="evenodd" clip-rule="evenodd" d="M10.2479 14.2814C3.08318 22.6954 -3.67545 33.8908 2.29441 39.0462C8.07915 44.0422 15.3098 41.0842 20.2399 39.1121C25.17 37.1399 79.6627 13.476 79.6627 13.476C80.1886 13.213 80.0902 12.8843 79.4327 13.0484C79.1676 13.1147 20.1086 29.1201 20.1086 29.1201C12.6143 31.2239 4.06903 26.6388 10.2479 14.2814Z" fill="white"/>
<path fill-rule="evenodd" clip-rule="evenodd" d="M13.6027 26.7575C13.7617 26.7498 13.8862 26.6677 13.8862 26.4475C13.8862 26.1637 13.7006 26.0923 13.3907 26.0923H12.9452V27.2692H13.2423V26.7682H13.2923L13.563 27.2692H13.9045L13.6027 26.7575ZM13.412 26.5668H13.2427V26.2936H13.3855C13.4732 26.2936 13.5736 26.3039 13.5736 26.418C13.5736 26.5403 13.5155 26.5668 13.412 26.5668ZM64.9502 0C64.314 0 63.8159 0.445472 63.8159 1.09444C63.8159 1.74384 64.317 2.18633 64.9502 2.18633C65.5833 2.18633 66.0844 1.74085 66.0844 1.09444C66.0848 0.445472 65.5867 0 64.9502 0ZM64.9502 1.87424C64.4966 1.87424 64.1601 1.54291 64.1601 1.09487C64.1601 0.647262 64.494 0.31337 64.9502 0.31337C65.4008 0.31337 65.7402 0.652393 65.7402 1.09487C65.7402 1.53479 65.3982 1.87424 64.9502 1.87424Z" fill="white"/>
<path fill-rule="evenodd" clip-rule="evenodd" d="M65.1438 1.17105C65.3028 1.16336 65.4277 1.08127 65.4277 0.861101C65.4277 0.577229 65.2417 0.505833 64.9322 0.505833H64.4867V1.68236H64.7834V1.18174H64.8338L65.104 1.68236H65.4461L65.1438 1.17105ZM64.9527 0.980378H64.7834V0.707195H64.9266C65.0138 0.707195 65.1147 0.717882 65.1147 0.83203C65.1147 0.953872 65.0562 0.980378 64.9527 0.980378ZM61.5719 3.68144L62.9498 0.065918H47.3052L41.9334 6.57359L44.4135 0.065918H39.2204L31.1506 21.7577H36.2778L39.7232 12.6867L39.9592 21.7577L55.6914 21.7235L57.189 17.551H51.2076L53.1729 12.2925H58.1026L59.6194 8.24989H54.6897L56.3797 3.68144H61.5719ZM45.0458 20.3114L44.717 9.00574L52.4692 0.49429L45.0458 20.3114Z" fill="white"/>
</svg>
