<svg xmlns="http://www.w3.org/2000/svg" width="321" height="320" viewBox="0 0 321 320"><defs><clipPath id="86m2a"><path fill="#fff" d="M.24 160c0-88.366 71.634-160 160-160s160 71.634 160 160-71.634 160-160 160-160-71.634-160-160z"/></clipPath></defs><g><g><g><path fill="none" stroke="#634137" stroke-miterlimit="20" stroke-opacity=".4" stroke-width="2" d="M.24 160c0-88.366 71.634-160 160-160h0c88.366 0 160 71.634 160 160v0c0 88.366-71.634 160-160 160h0c-88.366 0-160-71.634-160-160z" clip-path="url(&quot;#86m2a&quot;)"/></g><g><g><path fill="#fff" d="M155.484 152.545c1.774.36 1.596 2.155 1.596 2.155l.178 7.36-3.016-2.513h-3.548l2.839-3.59-3.903-.18-2.306-2.693zm-15.788-1.795s-.532 5.566 3.193 8.438l16.143 15.62v-19.031s.71-4.488-3.193-5.027z"/></g><g><path fill="#fff" d="M138.458 145.903c-4.967 6.643.355 13.286.355 13.286l20.045 19.21v5.925l-37.961-36.805c-1.42-1.257-.71-3.052-.71-3.052l9.047-8.797c1.774 2.513 6.74 2.154 6.74 2.154 7.983-.718 14.902.18 14.902.18 6.03.898 7.982 6.643 7.982 6.643v5.386c-3.725-6.643-7.096-7.72-7.096-7.72-8.692-3.591-13.304 3.59-13.304 3.59zm25.722 6.823c-1.597.18-1.597 2.154-1.597 2.154l-.177 7.361 3.015-2.514h3.548l-2.838-3.59 3.902-.18 2.307-2.693zm-.355-1.975h16.32s.532 5.565-3.193 8.438l-16.143 15.62v-19.031z"/></g><g><path fill="#fff" d="M181.21 145.903s-4.612-7.18-13.304-3.59c0 0-3.37 1.077-7.096 7.72v-5.386s1.951-5.745 7.982-6.643c0 0 6.919-.898 14.901-.18 0 0 4.967.36 6.74-2.154l9.048 8.797s.71 1.795-.71 3.052l-37.961 36.805v-5.925l20.045-19.21s5.144-6.643.355-13.286"/></g></g></g></g></svg>