<svg width="80" height="37" viewBox="0 0 80 37" fill="none" xmlns="http://www.w3.org/2000/svg">
<path fill-rule="evenodd" clip-rule="evenodd" d="M51.8731 2.07334V0H43.5786V11.3838H51.8731V9.50605H45.8867V6.4156H51.1292V4.38139H45.8867V2.07334H51.8731ZM49.565 12.5574V16.9388H45.026V12.5574H42.68V23.9026H45.026V18.8165H49.565V23.9026H51.8731V12.5574H49.565ZM51.8731 27.1093V25.0762H43.5786V36.6153H51.8731V34.5431H45.8867V31.4912H51.1292V29.614H45.8867V27.1093H51.8731ZM42.2491 0H39.941V4.38139H35.4032V0H33.0951V11.3838H35.4032V6.29825H39.941V11.3838H42.2491V0ZM23.1588 0V2.07334H26.6795V11.3838H28.9876V2.07334H32.5083V0H23.1588ZM15.8825 12.2444C12.2444 12.2444 10.3276 14.3178 10.3276 18.2297C10.3276 22.3373 12.2444 24.3715 15.8825 24.3715C19.5206 24.3715 21.3984 22.3373 21.3984 18.2297C21.3984 14.3178 19.5206 12.2444 15.8825 12.2444ZM12.8312 18.2297C12.8312 15.6087 13.8483 14.3177 15.8825 14.3177C18.0732 14.3177 19.0903 15.6087 19.0903 18.2297C19.0903 21.0077 18.0732 22.3373 15.8825 22.3373C13.8483 22.3373 12.8312 21.0077 12.8312 18.2297ZM7.0024 12.5574V20.5769L2.46453 12.5574H0V23.9026H2.19069V15.9217L6.84592 23.9026H9.31045V12.5574H7.0024ZM17.7603 29.77V27.1093H23.5891V25.0762H15.4522V36.6153H17.7603V31.8042H22.8849V29.77H17.7603ZM41.8193 14.5916V12.5574H32.5083V14.5916H35.99V23.9026H38.3371V14.5916H41.8193ZM27.3837 19.5603C28.1269 19.5603 28.7137 19.6771 28.9876 19.9901L29.4179 23.9026H32.0389V23.6287C31.7651 23.4717 31.6086 22.7681 31.6086 21.4375C31.6086 19.8342 31.0218 18.973 30.1612 18.5427C31.3348 18.0732 31.9215 17.2126 31.9215 15.7652C31.9215 13.731 30.748 12.5574 28.2834 12.5574H22.572V23.9026H24.9191V19.5603H27.3837ZM24.9191 17.6429V14.5916H27.814C28.9876 14.5916 29.5744 15.0219 29.5744 16.039C29.5744 17.0561 28.9876 17.6429 27.6966 17.6429H24.9191ZM28.9876 25.0762H26.2101L22.1417 36.6153H24.6062L25.5059 34.1122H29.7309L30.435 36.6153H32.9387L28.9876 25.0762ZM27.5402 27.6961L28.9876 32.235H26.0927L27.5402 27.6961ZM40.3719 28.8697H42.68C42.5621 27.8531 42.2491 26.9925 41.5444 26.2487C40.5278 25.388 39.3543 24.8012 37.7504 24.8012C36.1465 24.8012 34.9729 25.388 33.9558 26.4057C33.0951 27.4223 32.5083 28.8697 32.5083 30.7871C32.5083 34.8555 34.2296 36.8886 37.5939 36.8886C40.5278 36.8886 42.1312 35.4412 42.68 32.6643H40.3719C40.0589 33.9938 39.0413 34.6985 37.7504 34.6985C35.8335 34.6985 34.9729 33.4081 34.9729 30.9039C34.9729 28.1661 35.8335 26.8355 37.7504 26.8355C39.0413 26.8355 39.7851 27.5793 40.3719 28.8697ZM11.3447 36.4594H11.3838H11.3447ZM11.3838 36.4594C11.775 36.4594 12.0879 36.3024 12.3232 36.1073C12.5188 35.8726 12.6747 35.5597 12.6747 35.1299C12.6747 34.6599 12.5183 34.347 12.3232 34.1514C12.0885 33.9563 11.7755 33.8384 11.3838 33.8384H11.3447C10.8752 33.8384 10.5623 33.9563 10.3667 34.1514C10.1716 34.3464 10.0537 34.6599 10.0537 35.1299V35.1679C10.0537 35.5597 10.1711 35.8726 10.3667 36.1073C10.5623 36.3024 10.8758 36.4594 11.3447 36.4594H11.3838ZM11.3447 36.7724C10.797 36.7724 10.4058 36.5773 10.132 36.3024C9.85812 36.0286 9.74076 35.6379 9.74076 35.1679V35.1299C9.74076 34.5811 9.85812 34.1905 10.132 33.9172C10.4058 33.6433 10.797 33.5254 11.3447 33.5254H11.3838C11.8532 33.5254 12.2444 33.6433 12.5183 33.9172C12.7921 34.191 12.9877 34.5817 12.9877 35.1299C12.9877 35.6384 12.7921 36.0286 12.5183 36.3024C12.3699 36.4522 12.1931 36.5709 11.9983 36.6515C11.8035 36.7322 11.5946 36.7733 11.3838 36.7724H11.3447ZM11.5011 34.9729H11.5403C11.6967 34.9729 11.775 34.8941 11.775 34.699V34.6599C11.775 34.6599 11.7359 34.6599 11.7359 34.6208C11.6967 34.5817 11.6185 34.5817 11.5011 34.5817H11.0708V34.9734H11.5011V34.9729ZM11.775 35.2467L12.0879 35.6384C12.1271 35.7161 12.0879 35.7944 12.0488 35.8335C11.9706 35.9123 11.8532 35.8726 11.8141 35.8335L11.4229 35.2858H11.0708V35.7156C11.0708 35.7944 10.9926 35.8726 10.9143 35.8726C10.8361 35.8726 10.7579 35.7938 10.7579 35.7156V34.4252C10.7579 34.3464 10.8361 34.2693 10.9143 34.2693H11.5403C11.6967 34.2693 11.8532 34.3073 11.9315 34.3861C11.9706 34.4252 12.0097 34.4252 12.0097 34.4649C12.0879 34.5436 12.0879 34.6208 12.0879 34.6996C12.0879 35.012 12.0097 35.1679 11.775 35.2467ZM53.4764 0C60.7532 0 67.0509 2.66013 72.1364 7.74567C77.3784 12.9877 80 19.2468 80 26.5616V36.6153H69.3595V26.2487C69.3595 22.1813 67.9121 18.66 64.9781 15.7652C64.2734 15.0219 63.5307 14.4351 62.67 13.8483C60.3229 12.2444 57.5454 11.5403 54.6505 11.5403H53.477V0H53.4764ZM68.3413 36.6153H60.0479V28.5958C60.0479 27.2663 59.6182 26.2487 58.7184 25.388C57.8578 24.4894 56.6842 24.0585 55.5106 24.0585H53.4764V12.5574H54.65C57.7008 12.5574 60.3218 13.418 62.6695 15.1784C63.2563 15.4522 63.8431 16.039 64.2729 16.4693C67.0509 19.2474 68.3413 22.4552 68.3413 26.2492V36.6153ZM59.0314 36.6153H53.4759V25.0762H55.5106C56.4104 25.0762 57.271 25.388 58.0137 26.0927C58.6005 26.6795 59.0314 27.5793 59.0314 28.5958V36.6153Z" fill="white"/>
</svg>
