<svg xmlns="http://www.w3.org/2000/svg" width="320" height="320" viewBox="0 0 320 320"><defs><clipPath id="hdzra"><path fill="#fff" d="M0 160C0 71.634 71.634 0 160 0s160 71.634 160 160-71.634 160-160 160S0 248.366 0 160z"/></clipPath></defs><g><g><g><path fill="none" stroke="#634137" stroke-miterlimit="20" stroke-opacity=".4" stroke-width="2" d="M0 160C0 71.634 71.634 0 160 0h0c88.366 0 160 71.634 160 160v0c0 88.366-71.634 160-160 160h0C71.634 320 0 248.366 0 160z" clip-path="url(&quot;#hdzra&quot;)"/></g></g><g><g><g><path fill="#fff" d="M134.544 165.684c0 .647-.5 1.093-1.134 1.093-.633 0-1.134-.443-1.134-1.093 0-.65.498-1.094 1.134-1.094.636 0 1.134.445 1.134 1.094zm-.344 0a.77.77 0 0 0-.79-.781.764.764 0 0 0-.79.781c0 .448.337.78.79.78.448 0 .79-.34.79-.78zm10.247-4.922h-5.522l.628-9.597-3.586 9.597h-5.127l8.135-21.692h5.456l-.63 9.729 3.654-9.729h5.127zm.666 0l8.134-21.692h5.128l-8.135 21.692z"/></g><g><path fill="#fff" d="M130.248 153.277c-7.165 8.414-13.923 19.61-7.954 24.765 5.785 4.996 13.016 2.038 17.946.066 4.93-1.973 59.423-25.636 59.423-25.636.526-.263.427-.592-.23-.428-.265.066-59.324 16.072-59.324 16.072-7.495 2.103-16.04-2.482-9.861-14.839z"/></g><g><path fill="#fff" d="M133.608 165.757l.301.512h-.341l-.27-.5h-.05v.5h-.298v-1.177h.445c.31 0 .496.072.496.355 0 .22-.124.303-.283.31zm-.191-.19c.103 0 .161-.027.161-.149 0-.114-.1-.124-.188-.124h-.142v.273zm52.672-25.473c0 .647-.5 1.092-1.134 1.092-.633 0-1.134-.442-1.134-1.092 0-.649.498-1.094 1.134-1.094.636 0 1.135.445 1.134 1.094zm-.344 0a.77.77 0 0 0-.79-.78.764.764 0 0 0-.79.78c0 .449.336.78.79.78.448 0 .79-.34.79-.78z"/></g><g><path fill="#fff" d="M185.446 140.686h-.342l-.27-.5h-.051v.5h-.297v-1.176h.446c.31 0 .495.071.495.355 0 .22-.125.302-.284.31zm-.494-.702c.104 0 .162-.026.162-.148 0-.114-.1-.125-.188-.125h-.143v.273h.17zm-8.573 2.702l-1.69 4.568h4.93l-1.517 4.043h-4.93l-1.965 5.258h5.981l-1.497 4.173-15.732.034-.236-9.071-3.446 9.07h-5.127l8.07-21.691h5.193l-2.48 6.508 5.372-6.508h15.644l-1.378 3.616zm-3.91-3.188l-7.753 8.512.33 11.306z"/></g></g></g></g></svg>