<svg width="80" height="19" viewBox="0 0 80 19" fill="none" xmlns="http://www.w3.org/2000/svg">
<path d="M72.7368 18.9505L78.2104 4.6766C78.2104 4.6766 74.1071 4.6766 70 5.47254L64.8409 18.9505H72.7368ZM71.7896 0.849004L70.7375 3.5835C74.8409 2.78756 78.948 2.78756 78.948 2.78756L80 0.0530627C80 0.0530627 75.8929 0.0530627 71.7896 0.849004ZM43.2609 15.5686C45.7357 16.0179 48.2591 16.216 50.8386 16.216C53.523 16.216 55.4174 15.6677 55.6271 13.9272C55.7319 13.1313 54.8896 12.5334 53.4182 11.7375C51.7334 10.8425 50.2621 10.3932 48.787 9.44871C47.3119 8.50419 46.6829 7.06088 47.1546 5.469C47.7349 3.62949 49.1015 2.58592 51.1531 1.59188C53.5754 0.449265 55.4699 0 60.1535 0C63.1 0 65.9416 0.247626 68.7308 0.795941L67.7312 3.38187C65.2565 2.9326 62.7331 2.7345 60.1535 2.7345C57.4691 2.7345 55.5747 3.28281 55.365 5.02327C55.2602 5.81921 56.1026 6.41705 57.5739 7.213C59.2587 8.10799 60.7301 8.55725 62.2052 9.50177C63.6803 10.4463 64.3092 11.8896 63.8375 13.4815C63.2572 15.321 61.8907 16.3646 59.839 17.3586C57.4167 18.5012 55.5223 18.9505 50.8386 18.9505C47.8922 18.9505 45.0505 18.7028 42.2613 18.1545L43.2609 15.5686ZM31.3665 18.9505L35.9453 7.06442C37.4729 3.08471 31.8944 4.52802 30.629 5.47254C29.6294 6.16943 27.8398 7.81084 27.207 9.55129L23.5754 19H15.6833L20.2621 7.06442C21.7896 3.08471 16.2112 4.52802 14.9457 5.47254C13.9461 6.16943 12.1565 7.81084 11.5238 9.55129L7.89218 19H0L7.2632 0.0530627C9.79034 0.0530627 11.1569 0.601378 12.2613 1.64495C12.6806 2.04115 12.9465 2.53994 13.1037 3.08825C14.5788 2.24279 15.8929 1.59542 16.7877 1.29827C18.4201 0.700428 20.4717 0.0530627 22.9989 0.0530627C25.526 0.0530627 26.8925 0.601378 27.997 1.64495C28.4163 2.04115 28.6821 2.53994 28.8394 3.08825C30.3145 2.24279 31.6286 1.59542 32.5234 1.29827C34.1557 0.700428 36.2074 0.0566003 38.7346 0.0566003C41.2617 0.0566003 42.6282 0.604915 43.7327 1.64848C44.8896 2.69205 44.8371 4.63061 44.4178 5.72724L39.2587 18.954H31.3665V18.9505Z" fill="white"/>
</svg>
