<svg xmlns="http://www.w3.org/2000/svg" width="320" height="320" viewBox="0 0 320 320"><defs><clipPath id="abgja"><path fill="#fff" d="M0 160C0 71.634 71.634 0 160 0s160 71.634 160 160-71.634 160-160 160S0 248.366 0 160z"/></clipPath></defs><g><g><g><path fill="none" stroke="#634137" stroke-miterlimit="20" stroke-opacity=".4" stroke-width="2" d="M0 160C0 71.634 71.634 0 160 0h0c88.366 0 160 71.634 160 160v0c0 88.366-71.634 160-160 160h0C71.634 320 0 248.366 0 160z" clip-path="url(&quot;#abgja&quot;)"/></g></g><g><g><g><path fill="#fff" d="M165.887 144.073v2.308h5.242v2.035h-5.242v3.09h5.986v1.878h-8.294V142h8.294v2.073zm5.986 10.484v11.346h-2.308v-5.086h-4.539v5.086h-2.346v-11.346h2.346v4.382h4.539v-4.382zm-5.986 14.552v2.505h5.242v1.877h-5.242v3.052h5.986v2.072h-8.294v-11.539h8.294v2.033zm-3.638-15.725h-2.308v-5.086h-4.538v5.086h-2.308V142h2.308v4.381h4.538V142h2.308zM152.51 142v2.073h-3.521v9.31h-2.309v-9.31h-3.52V142zm-11.11 18.23c0 4.107-1.878 6.142-5.516 6.142-3.639 0-5.555-2.035-5.555-6.142 0-3.912 1.916-5.986 5.555-5.986 3.638 0 5.515 2.074 5.515 5.986zm-5.517 4.107c2.191 0 3.208-1.33 3.208-4.107 0-2.621-1.017-3.912-3.208-3.912-2.034 0-3.05 1.29-3.05 3.912 0 2.778 1.016 4.107 3.05 4.107zm-6.572-9.78v11.346h-2.464l-4.655-7.981v7.98H120v-11.345h2.465l4.537 8.02v-8.02zm13.575 17.213v2.034h-5.125v4.811h-2.308v-11.539h8.137v2.033h-5.829v2.661zm15.452-15.178v9.31h-2.347v-9.31h-3.482v-2.035h9.311v2.035zm-13.418 4.968v4.343h-2.347v-11.346h5.711c2.465 0 3.638 1.174 3.638 3.208 0 1.448-.586 2.308-1.76 2.778.86.43 1.448 1.291 1.448 2.894 0 1.331.156 2.035.43 2.192v.274h-2.621l-.43-3.913c-.274-.313-.861-.43-1.604-.43zm2.778-1.917c1.29 0 1.877-.587 1.877-1.604 0-1.017-.586-1.447-1.76-1.447h-2.895v3.05zm5.242 18.972h-2.504l-.704-2.503h-4.225l-.9 2.503h-2.464l4.068-11.539h2.778zm-6.846-4.38h2.895l-1.448-4.539zm14.279-3.365c-.587-1.29-1.33-2.035-2.622-2.035-1.916 0-2.777 1.331-2.777 4.069 0 2.504.86 3.794 2.777 3.794 1.291 0 2.309-.704 2.622-2.034h2.308c-.549 2.777-2.152 4.225-5.086 4.225-3.364 0-5.086-2.034-5.086-6.102 0-1.917.587-3.365 1.448-4.381 1.017-1.018 2.19-1.605 3.794-1.605s2.778.587 3.794 1.448c.705.743 1.018 1.604 1.136 2.62zm-28.988 7.59c.391 0 .704-.158.94-.353.195-.234.35-.547.35-.977 0-.47-.156-.783-.35-.979-.235-.195-.548-.313-.94-.313h-.04c-.469 0-.782.118-.977.313-.195.195-.313.509-.313.979v.038c0 .392.117.705.313.94.195.194.509.351.978.351zm-.04.312c-.547 0-.938-.195-1.212-.47-.274-.273-.391-.664-.391-1.134v-.038c0-.549.117-.94.391-1.213.274-.274.665-.392 1.213-.392h.039c.47 0 .86.118 1.134.392.274.274.47.665.47 1.213a1.615 1.615 0 0 1-.99 1.522c-.195.08-.403.121-.614.12zm.157-1.8h.04c.156 0 .234-.078.234-.273v-.04s-.04 0-.04-.038c-.038-.04-.116-.04-.234-.04h-.43v.392h.43zm.587.666c.04.078 0 .156-.04.195-.077.08-.195.04-.234 0l-.391-.547h-.352v.43a.168.168 0 0 1-.157.157c-.078 0-.156-.08-.156-.157v-1.29c0-.08.078-.157.156-.157h.626c.157 0 .313.038.392.117.039.04.078.04.078.079.078.079.078.156.078.235 0 .312-.078.468-.313.547zm60.048-27.892c5.242 5.242 7.864 11.5 7.864 18.816v10.053h-10.64V168.25c0-4.068-1.448-7.589-4.382-10.484-.705-.743-1.447-1.33-2.308-1.917-2.347-1.604-5.125-2.308-8.02-2.308h-1.173V142c7.277 0 13.574 2.66 18.66 7.746zm-3.795 28.87h-8.293v-8.02c0-1.33-.43-2.347-1.33-3.208-.86-.899-2.034-1.33-3.207-1.33h-2.035v-11.5h1.174c3.05 0 5.672.86 8.02 2.62.586.274 1.173.861 1.603 1.291 2.778 2.778 4.068 5.986 4.068 9.78zm-9.31 0h-5.555v-11.54h2.035c.9 0 1.76.312 2.503 1.017a3.575 3.575 0 0 1 1.017 2.503z"/></g></g></g></g></svg>