<svg width="79" height="24" viewBox="0 0 79 24" fill="none" xmlns="http://www.w3.org/2000/svg">
<path d="M53.6869 1.40018H46.0603L46.0719 8.67608L35.2776 15.4059L33.0573 14.1077L43.8516 7.3099L39.0351 4.23553L28.1717 11.0334L26.3275 9.80322L37.0878 3.0394L32.2372 0L19.9708 7.68303C18.2364 3.25608 13.7715 1.40115 8.3117 1.40115H0V22.3883H10.2055C15.0367 22.3883 18.7679 19.8872 20.1545 15.8198L32.4082 23.5369L46.068 14.955L46.0612 22.3874H60.4313V15.6508H53.6879V1.40018H53.6869ZM8.64595 16.0967H7.62667V7.96967H8.64595C11.4298 7.96967 13.1273 9.22216 13.1273 12.1731C13.1283 14.9278 11.1791 16.0967 8.64595 16.0967ZM69.7429 1.40018H62.1162V22.3883H76.4863V15.6517H69.7429V1.40018ZM75.4446 1.27095H76.0442V2.82951H76.2832V1.27095H76.8827V1.05912H75.4446V1.27095ZM78.658 1.05912L78.1546 2.5555H78.1498L77.6445 1.05912H77.3015V2.82951H77.5337V1.78399C77.5337 1.73249 77.5289 1.50804 77.5289 1.3448H77.5337L78.0322 2.82951H78.2693L78.7678 1.34188H78.7726C78.7726 1.50707 78.7678 1.73152 78.7678 1.78399V2.82951H79V1.05912H78.658Z" fill="white"/>
</svg>
