<svg xmlns="http://www.w3.org/2000/svg" width="320" height="320" viewBox="0 0 320 320"><defs><clipPath id="470va"><path fill="#fff" d="M0 160C0 71.634 71.634 0 160 0s160 71.634 160 160-71.634 160-160 160S0 248.366 0 160z"/></clipPath></defs><g><g><g><path fill="none" stroke="#634137" stroke-miterlimit="20" stroke-opacity=".4" stroke-width="2" d="M0 160C0 71.634 71.634 0 160 0h0c88.366 0 160 71.634 160 160v0c0 88.366-71.634 160-160 160h0C71.634 320 0 248.366 0 160z" clip-path="url(&quot;#470va&quot;)"/></g></g><g><path fill="#fff" d="M192.737 169.95l5.473-14.273s-4.103 0-8.21.796l-5.16 13.477zm-2-15.367c4.104-.795 8.211-.795 8.211-.795l1.052-2.735s-4.107 0-8.21.796zm-28.476 14.572c2.79.548 5.631.796 8.578.796 4.683 0 6.578-.45 9-1.592 2.052-.994 3.418-2.038 3.999-3.878.471-1.591-.158-3.035-1.633-3.98-1.475-.944-2.946-1.393-4.631-2.288-1.471-.796-2.314-1.394-2.209-2.19.21-1.74 2.104-2.288 4.789-2.288 2.58 0 5.103.198 7.577.647l1-2.586c-2.79-.548-5.631-.796-8.577-.796-4.684 0-6.579.45-9 1.592-2.053.994-3.42 2.037-4 3.877-.471 1.592.158 3.035 1.633 3.98 1.475.944 2.946 1.393 4.631 2.288 1.472.796 2.314 1.394 2.21 2.19-.21 1.74-2.105 2.289-4.79 2.289-2.579 0-5.102-.198-7.577-.647zm-10.894.799h7.892l5.159-13.227c.42-1.096.472-3.035-.685-4.079-1.105-1.043-2.471-1.591-4.998-1.591-2.528 0-4.58.643-6.212 1.241-.894.297-2.208.945-3.684 1.79-.157-.548-.423-1.047-.842-1.443-1.105-1.044-2.471-1.592-4.998-1.592s-4.579.647-6.211 1.245c-.895.297-2.21.945-3.684 1.79-.157-.548-.423-1.047-.843-1.443-1.104-1.044-2.47-1.592-4.998-1.592L120 170h7.892l3.632-9.449c.633-1.74 2.422-3.382 3.422-4.078 1.265-.945 6.844-2.388 5.316 1.591L135.683 170h7.892l3.632-9.449c.633-1.74 2.422-3.382 3.422-4.078 1.265-.945 6.844-2.388 5.316 1.591l-4.578 11.886z"/></g></g></svg>