<svg width="75" height="37" viewBox="0 0 75 37" fill="none" xmlns="http://www.w3.org/2000/svg">
<path fill-rule="evenodd" clip-rule="evenodd" d="M6.98623 31.9174C6.63688 30.9125 5.27666 30.7291 4.38339 30.7291C2.69948 30.7291 1.33969 31.4949 1.33969 33.0022C1.33969 34.35 2.11665 35.3874 4.42188 35.3874C5.23775 35.3874 6.64928 35.1475 7.07688 33.8164H8.29428C7.77645 35.9771 4.92688 36.0728 4.22774 36.0728C2.11665 36.0728 0.044471 35.2266 0.044471 33.0262C0.044471 31.2631 1.67622 30.0419 4.38296 30.0419C6.77884 30.0419 8.02232 30.9595 8.2032 31.9169H6.98623V31.9174ZM14.8627 30.7291C16.8832 30.7291 18.1001 31.7104 18.1001 33.0582C18.1001 34.406 16.8827 35.3874 14.8627 35.3874C12.8423 35.3874 11.6249 34.406 11.6249 33.0582C11.6249 31.7104 12.8423 30.7291 14.8627 30.7291V30.0427C11.3919 30.0427 10.3297 31.8224 10.3297 33.0587C10.3297 34.2957 11.3919 36.0737 14.8627 36.0737C18.3336 36.0737 19.3958 34.2957 19.3958 33.0587C19.3958 31.8224 18.334 30.0427 14.8627 30.0427V30.7291ZM26.2473 35.9219L23.34 31.1122H23.3139C23.3139 31.6458 23.34 32.3723 23.34 32.5395V35.9219H22.1226V30.1941H23.91L26.8952 35.0355H26.8691H26.8952L29.8281 30.1941H31.6155V35.9219H30.3977V32.5395C30.3977 32.3723 30.4238 31.6458 30.4238 31.1122H30.3977L27.4904 35.9219H26.2473ZM36.0391 30.8565H38.5906C39.6267 30.8565 40.4297 31.0878 40.4297 31.8143C40.4297 32.5879 39.6652 32.8423 38.5389 32.8423H36.0391V33.5038H38.966C40.9869 33.5038 41.7241 32.6028 41.7241 31.8058C41.7241 30.8796 40.6884 30.1937 38.966 30.1937H34.7832V35.9215H36.0391V30.8565ZM51.0831 30.1945V33.9117C51.0831 35.0842 49.8914 36.0733 47.3399 36.0733C44.8401 36.0733 43.7655 35.0846 43.7655 34.0156V30.1945H45.0222V33.8001C45.0222 35.0445 46.2525 35.3878 47.3792 35.3878C48.5316 35.3878 49.8272 35.0603 49.8272 33.8168V30.1945H51.0831ZM53.4106 30.1945H60.9613V30.88H57.8145V35.9219H56.5578V30.88H53.4106V30.1945ZM69.8367 35.9219H62.9719V30.1945H69.7456V30.88H64.2286V32.6349H69.318V33.3212H64.2286V35.2356H69.8367V35.9219ZM73.5376 30.8565H76.6719C77.2933 30.8565 78.3422 30.9283 78.3422 31.8143C78.3422 32.6588 77.3711 32.8025 76.4513 32.8025H73.5376V33.4649H76.5809C78.0835 33.4649 78.2387 34.0152 78.2387 34.4864C78.2387 34.7019 78.2772 35.5713 78.4585 35.9219H80V35.7941C79.6109 35.6589 79.5463 35.5392 79.5339 35.2193L79.4552 34.1828C79.4043 33.3845 78.8733 33.2417 78.3417 33.1053C78.9374 32.8897 79.637 32.5793 79.637 31.7331C79.637 30.5212 78.1087 30.1937 76.5804 30.1937H72.2808V35.9215H73.5372V30.8565H73.5376ZM79.3851 27.9111V28.2759H0V27.9111H79.3851ZM58.7749 0.0170898H79.5313L76.5458 4.67843H69.3355V25.5084H63.8001V4.67843H55.8612L58.7749 0.0170898ZM21.704 0.0170898H30.5892L33.0655 20.2642L28.7685 25.5084H21.5582L26.001 20.1916H14.7849L18.1352 16.2584H26.7292L25.3455 4.24141L7.57462 25.5084H0.437014L21.704 0.0170898Z" fill="white"/>
<path fill-rule="evenodd" clip-rule="evenodd" d="M52.147 10.3421C56.2995 10.3421 57.7717 13.854 57.7717 18.0065C57.7717 22.159 56.0806 25.5247 51.9281 25.5247L31.4633 25.508L35.396 20.8385H49.9619C51.5261 20.8385 51.8477 19.5698 51.8477 18.0065C51.8477 16.4419 51.5261 15.0282 49.9619 15.0282L41.1494 15.0372C36.9969 15.0372 35.0876 11.6711 35.0876 7.5186C35.0876 3.36611 36.9969 0 41.1494 0L56.1524 0.017103L53.2395 4.68614H42.8974C41.3333 4.68614 41.0117 5.95442 41.0117 7.5186C41.0117 9.08278 41.3333 10.3515 42.8974 10.3515L52.147 10.3421ZM77.5421 22.4391C78.3379 22.4391 78.9686 23.0689 78.9686 23.9032C78.9686 24.7516 78.3379 25.3754 77.5421 25.3754C76.7352 25.3754 76.1066 24.7516 76.1066 23.9032C76.1062 23.0685 76.7352 22.4391 77.5421 22.4391V22.1457C76.5723 22.1457 75.7522 22.8915 75.7522 23.9028C75.7522 24.9235 76.5723 25.6692 77.5421 25.6692C78.5017 25.6692 79.3218 24.9235 79.3218 23.9028C79.3218 22.8915 78.5017 22.1457 77.5421 22.1457V22.4391Z" fill="white"/>
</svg>
