<svg xmlns="http://www.w3.org/2000/svg" width="320" height="320" viewBox="0 0 320 320"><defs><clipPath id="wxjsa"><path fill="#fff" d="M0 160C0 71.634 71.634 0 160 0s160 71.634 160 160-71.634 160-160 160S0 248.366 0 160z"/></clipPath></defs><g><g><g><path fill="none" stroke="#634137" stroke-miterlimit="20" stroke-opacity=".4" stroke-width="2" d="M0 160C0 71.634 71.634 0 160 0h0c88.366 0 160 71.634 160 160v0c0 88.366-71.634 160-160 160h0C71.634 320 0 248.366 0 160z" clip-path="url(&quot;#wxjsa&quot;)"/></g></g><g><g><path fill="#fff" d="M174.688 149.4v14.25h6.743v6.737h-14.37l.007-7.432-13.66 8.582-12.253-7.717c-1.387 4.067-5.118 6.568-9.95 6.568H121v-20.987h8.312c5.46 0 9.924 1.855 11.659 6.282L153.237 148l4.85 3.04-10.76 6.763 1.845 1.23 10.863-6.797 4.817 3.074-10.795 6.798 2.22 1.298 10.795-6.73-.012-7.276zm-45.042 14.697c2.533 0 4.482-1.17 4.481-3.924 0-2.95-1.697-4.203-4.481-4.203h-1.02v8.127zm61.097-.445h6.743v6.736h-14.37V149.4h7.627zm5.702-14.593h1.438v.212h-.6v1.559h-.239v-1.56h-.6zm3.555 0v1.77h-.232v-1.045c0-.052.005-.277.005-.442h-.005l-.499 1.488h-.237l-.498-1.485h-.005c0 .163.005.387.005.439v1.046h-.233v-1.77h.343l.506 1.495h.005l.503-1.496z"/></g></g></g></svg>