<svg xmlns="http://www.w3.org/2000/svg" width="320" height="320" viewBox="0 0 320 320"><defs><clipPath id="iy59a"><path fill="#fff" d="M0 160C0 71.634 71.634 0 160 0s160 71.634 160 160-71.634 160-160 160S0 248.366 0 160z"/></clipPath></defs><g><g><g><path fill="none" stroke="#634137" stroke-miterlimit="20" stroke-opacity=".4" stroke-width="2" d="M0 160C0 71.634 71.634 0 160 0h0c88.366 0 160 71.634 160 160v0c0 88.366-71.634 160-160 160h0C71.634 320 0 248.366 0 160z" clip-path="url(&quot;#iy59a&quot;)"/></g></g><g><g><g><path fill="#fff" d="M126.986 173.92h1.217c-.18-.958-1.424-1.875-3.82-1.875-2.707 0-4.339 1.221-4.339 2.984 0 2.2 2.073 3.047 4.184 3.047.699 0 3.548-.096 4.066-2.257h-1.217c-.428 1.331-1.84 1.571-2.655 1.571-2.305 0-3.082-1.037-3.082-2.385 0-1.507 1.36-2.273 3.043-2.273.894 0 2.254.183 2.603 1.188zm7.877-1.188c2.02 0 3.237.981 3.237 2.33 0 1.347-1.217 2.328-3.237 2.328s-3.238-.981-3.238-2.329c0-1.348 1.217-2.329 3.238-2.329v-.686c-3.471 0-4.533 1.78-4.533 3.016 0 1.237 1.062 3.015 4.533 3.015 3.47 0 4.533-1.778 4.533-3.015s-1.062-3.016-4.533-3.016zm12.627 5.193l2.908-4.81h.026c0 .534-.026 1.26-.026 1.427v3.383h1.217v-5.728h-1.787l-2.933 4.841-2.985-4.841h-1.787v5.728h1.217v-3.383c0-.167-.026-.893-.026-1.427h.026l2.907 4.81zm8.55-5.066h2.55c1.037 0 1.84.232 1.84.958 0 .774-.765 1.028-1.891 1.028h-2.5v.662h2.927c2.02 0 2.758-.901 2.758-1.698 0-.927-1.036-1.612-2.758-1.612h-4.183v5.727h1.256zm13.787-.662v3.623c0 1.243-1.295 1.57-2.448 1.57-1.126 0-2.357-.343-2.357-1.587v-3.606h-1.256v3.821c0 1.07 1.074 2.058 3.574 2.058 2.551 0 3.743-.989 3.743-2.161v-3.718zm3.584.686h3.147v5.042h1.256v-5.042h3.147v-.686h-7.55zm16.426 4.355h-5.608v-1.914h5.089v-.686h-5.09v-1.755h5.518v-.686h-6.774v5.728h6.865zm6.835-4.379c.621 0 1.67.072 1.67.958 0 .845-.97.988-1.89.988h-2.914v.663h3.043c1.502 0 1.658.55 1.658 1.021 0 .216.038 1.085.22 1.436H200v-.128c-.39-.135-.454-.255-.466-.575l-.079-1.036c-.05-.799-.582-.941-1.113-1.078.595-.215 1.295-.526 1.295-1.372 0-1.212-1.528-1.54-3.057-1.54h-4.3v5.728h1.257v-5.065zM120 169.914v.365h79.385v-.365zm55.861-23.233h7.94v20.83h5.534v-20.83h7.21l2.986-4.661h-20.756zm-55.424 20.83h7.138l17.77-21.267 1.384 12.017h-8.594l-3.35 3.934H146l-4.443 5.316h7.21l4.297-5.244-2.476-20.247h-8.885z"/></g><g><path fill="#fff" d="M172.144 152.342c4.152 0 5.624 3.512 5.624 7.664 0 4.153-1.69 7.519-5.843 7.519l-20.465-.017 3.933-4.67h14.566c1.564 0 1.885-1.268 1.885-2.831 0-1.565-.321-2.979-1.885-2.979l-8.813.01c-4.152 0-6.062-3.367-6.062-7.52 0-4.152 1.91-7.518 6.062-7.518l15.003.017-2.913 4.67h-10.342c-1.564 0-1.886 1.267-1.886 2.832 0 1.564.322 2.833 1.886 2.833zm25.395 11.804c.96 0 1.78.746 1.78 1.757 0 1.02-.82 1.766-1.78 1.766-.97 0-1.79-.745-1.79-1.766 0-1.011.82-1.757 1.79-1.757v.293c-.807 0-1.436.63-1.436 1.464 0 .849.629 1.472 1.436 1.472.796 0 1.426-.623 1.426-1.472 0-.834-.63-1.464-1.426-1.464z"/></g><g><path fill="#fff" d="M197.168 165.151h.419c.215 0 .443.047.443.298 0 .313-.233.332-.494.332h-.368v.26h.354l.536.881h.345l-.578-.895c.298-.037.527-.195.527-.559 0-.401-.238-.578-.72-.578h-.772v2.032h.307v-1.77z"/></g></g></g></g></svg>