<svg width="79" height="25" viewBox="0 0 79 25" fill="none" xmlns="http://www.w3.org/2000/svg">
<path d="M49.9019 15.1609C49.9359 14.787 50.0719 14.4131 50.2078 14.1071C50.2078 14.0732 50.2418 14.0732 50.2418 14.0392L50.3438 13.8352C50.3778 13.7672 50.4118 13.6992 50.4798 13.6312C50.5818 13.4953 50.6497 13.3593 50.7517 13.2573C50.8877 13.1213 51.0237 12.9854 51.1596 12.8834L51.2276 12.8154C51.3296 12.7474 51.4656 12.6794 51.6016 12.6114L51.8055 12.5095C51.8735 12.4755 51.9755 12.4415 52.0775 12.4075L52.3834 12.3055C52.4854 12.2715 52.6213 12.2715 52.7573 12.2715C52.8253 12.2715 52.8593 12.2375 52.9273 12.2375H52.9613C54.287 12.2375 54.9669 12.8834 55.5448 13.7672L57.5163 12.8154C56.6665 11.2177 55.0688 10.1639 52.9273 10.1639C49.9699 10.1639 47.8623 12.1695 47.6583 15.059V15.9428C47.8623 18.8322 50.0039 20.8378 52.9273 20.8378C55.1028 20.8378 56.6665 19.784 57.5163 18.1863L55.5448 17.2345C54.9669 18.1183 54.287 18.7642 52.9613 18.7642H52.9273C52.8593 18.7642 52.8253 18.7642 52.7573 18.7302C52.6213 18.7302 52.5194 18.7302 52.3834 18.6962L52.0775 18.5942C51.9755 18.5602 51.9075 18.5263 51.8055 18.4923L51.6016 18.3903C51.4656 18.3223 51.3636 18.2543 51.2276 18.1863L51.1596 18.1183C51.0237 18.0164 50.8537 17.8804 50.7517 17.7444C50.6497 17.6424 50.5478 17.5065 50.4458 17.3705C50.4118 17.3025 50.3438 17.2345 50.3098 17.1665L50.2078 16.9626C50.2078 16.9286 50.1738 16.9286 50.1738 16.8946C50.0379 16.5546 49.9019 16.2147 49.8679 15.8408V15.8068C49.8679 15.6708 49.8339 15.5688 49.8339 15.4329C49.8339 15.2969 49.9019 15.2969 49.9019 15.1609ZM21.0757 20.6338H23.5572V15.2969H28.8262V12.8834H23.5572V8.49828H29.2001V6.08477H21.0757V20.6338ZM61.0516 7.27453H58.6381V20.6338H61.0516V12.8494H63.5671V10.4359H61.0516V7.27453ZM43.9871 11.8296C43.2392 10.7758 41.9475 10.1979 40.5198 10.1979C37.6984 10.1979 35.5568 12.5435 35.5568 15.5349C35.5568 18.5263 37.7324 20.8718 40.5198 20.8718C41.9475 20.8718 43.2392 20.1919 43.9871 19.1381V20.5998H46.3666V10.4019H43.9871V11.8296ZM41.0297 18.6962C39.296 18.6962 37.9703 17.2685 37.9703 15.5349C37.9703 13.8012 39.296 12.3735 41.0297 12.3735C42.7633 12.3735 44.0891 13.8012 44.0891 15.5349C44.0891 17.2685 42.7293 18.6962 41.0297 18.6962ZM30.1519 20.6338H32.5654V12.8494H35.0809V10.4359H30.1519V20.6338ZM72.4733 11.8296C71.7255 10.7758 70.4337 10.1979 69.006 10.1979C66.1846 10.1979 64.043 12.5435 64.043 15.5349C64.043 18.5263 66.2186 20.8718 69.006 20.8718C70.4337 20.8718 71.7255 20.1919 72.4733 19.1381V20.5998H74.8528V10.4019H72.4733V11.8296ZM69.5159 18.6962C67.7823 18.6962 66.4565 17.2685 66.4565 15.5349C66.4565 13.8012 67.7823 12.3735 69.5159 12.3735C71.2496 12.3735 72.5753 13.8012 72.5753 15.5349C72.5753 17.2685 71.2496 18.6962 69.5159 18.6962ZM76.5865 20.6338H79V6.05078H76.5865V20.6338ZM0 21.8236V16.9966L8.3963 12.1355L12.6114 14.5491L4.21515 19.4101V24.2711L0 21.8236ZM0 9.68804V4.86102L8.3963 0L12.6114 2.41351L4.21515 7.27453V12.1355L0 9.68804Z" fill="white"/>
</svg>
