<svg width="80" height="80" viewBox="0 0 80 80" fill="none" xmlns="http://www.w3.org/2000/svg">
<path d="M40 76.32C20.08 76.32 3.76 59.92 3.76 40C3.76 35.52 4.56 31.28 6.08 27.28L27.28 69.92C27.52 70.48 27.92 70.96 28.56 70.96C29.2 70.96 29.6 70.48 29.84 69.92L39.6 48.08C39.68 47.84 39.84 47.6 40.08 47.6C40.32 47.6 40.4 47.84 40.56 48.08L50.32 69.92C50.56 70.48 50.96 70.96 51.6 70.96C52.24 70.96 52.64 70.48 52.88 69.92L74.08 27.28C75.6 31.28 76.4 35.52 76.4 40C76.24 59.92 59.92 76.32 40 76.32ZM40 31.76C39.76 31.76 39.68 31.52 39.52 31.28L28.16 5.68C31.84 4.32 35.84 3.6 40 3.6C44.16 3.6 48.16 4.32 51.84 5.68L40.48 31.28C40.32 31.6 40.24 31.76 40 31.76ZM28.4 58.08C28.16 58.08 28.08 57.84 27.92 57.6L9.52 20.48C12.8 15.44 17.2 11.2 22.56 8.24L35.84 37.76C36 38.24 36.4 38.4 36.8 38.4H43.2C43.68 38.4 44 38.32 44.24 37.76L57.52 8.24C62.8 11.2 67.28 15.44 70.56 20.48L52 57.6C51.92 57.84 51.76 58.08 51.52 58.08C51.28 58.08 51.2 57.84 51.04 57.6L44.08 41.76C43.84 41.2 43.52 41.12 43.04 41.12H36.64C36.16 41.12 35.84 41.2 35.6 41.76L28.88 57.6C28.8 57.84 28.64 58.08 28.4 58.08ZM40 80C62.16 80 80 62.16 80 40C80 17.84 62.16 0 40 0C17.84 0 0 17.84 0 40C0 62.16 17.84 80 40 80Z" fill="white"/>
</svg>
