<svg width="81" height="40" viewBox="0 0 81 40" fill="none" xmlns="http://www.w3.org/2000/svg">
<path d="M33.4482 1H33.4917C33.8234 1.38059 34.1985 1.71769 34.5519 2.08197L36.9551 4.48513V4.52863C35.7916 5.68672 34.6334 6.85568 33.4699 8.01376C32.301 6.85024 31.1374 5.68128 29.9685 4.51776C30.0284 4.40358 30.1425 4.32746 30.2295 4.23503C31.3006 3.15306 32.388 2.08741 33.4482 1ZM40.4619 1H40.5054C40.5382 1.04893 40.5707 1.09243 40.6142 1.13593C41.7396 2.25052 42.8489 3.38142 43.9851 4.49057C43.9579 4.55582 43.8981 4.59931 43.8492 4.64824C42.7239 5.76827 41.6037 6.89374 40.4783 8.01376C39.3039 6.85568 38.1512 5.67584 36.9714 4.52319C38.1131 3.33248 39.3147 2.18527 40.4619 1ZM47.4757 1H47.5192C47.7367 1.26098 47.9922 1.4839 48.226 1.72856C49.1068 2.60936 49.9823 3.48472 50.863 4.36552C50.9066 4.41445 50.9773 4.45795 50.9935 4.52863C49.8136 5.67584 48.6719 6.86655 47.4866 8.01376L44.1428 4.66999C44.0884 4.61019 44.0178 4.56669 43.9906 4.49057C44.5832 3.91425 45.1595 3.32161 45.7467 2.73985C46.3231 2.15809 46.9103 1.59264 47.4757 1ZM37.0203 11.4663C38.1675 10.3191 39.3202 9.17185 40.4674 8.0192L40.5162 8.04095C41.6688 9.19904 42.8215 10.3571 43.985 11.5043C43.9471 11.5913 43.8655 11.6403 43.8056 11.7109C42.9684 12.5428 42.131 13.3855 41.2937 14.2174C41.0218 14.4784 40.7609 14.772 40.4837 15.0167C40.0868 14.6578 39.7225 14.2555 39.3364 13.8858C38.5535 13.1028 37.7761 12.3199 36.9877 11.5424C36.9986 11.5206 37.0094 11.488 37.0203 11.4663ZM1 26.5486H11.4608C11.4663 27.3858 11.4663 28.2232 11.4608 29.0551H7.69298V38.9504C7.68754 39.1136 7.70385 39.2767 7.67123 39.4398H4.76242C4.7733 35.9764 4.76786 32.5184 4.76786 29.0551H1V26.5486ZM20.1873 26.5486C21.1659 26.5486 22.1446 26.5486 23.1233 26.554C23.1178 30.8493 23.1341 35.1445 23.1124 39.4398H20.1927C20.1764 38.298 20.1873 37.1562 20.1818 36.0145C20.1873 32.861 20.1818 29.7075 20.1873 26.5486ZM71.9532 26.5486C72.9319 26.5486 73.9105 26.5486 74.8892 26.554V36.8518C76.591 36.8625 78.2982 36.8572 80 36.8572V39.4398H71.9586C71.9423 35.1445 71.9586 30.8493 71.9532 26.5486ZM44.3549 30.871C44.0613 29.8596 43.4904 28.9409 42.6966 28.2504C41.6472 27.3206 40.2771 26.815 38.9015 26.6356C38.124 26.5214 37.3357 26.554 36.5528 26.5486H33.0786C33.0133 26.5486 32.9426 26.554 32.8774 26.5649C32.8937 30.8221 32.8774 35.0793 32.8883 39.3364C32.8828 39.3636 32.8774 39.4125 32.872 39.4397H37.8957C38.347 39.3581 38.8092 39.3635 39.2549 39.2657C40.7773 38.9884 42.2398 38.2327 43.2348 37.0311C43.9688 36.1611 44.4201 35.0682 44.5669 33.9428C44.6974 32.9153 44.643 31.8606 44.3549 30.871ZM41.0437 35.15C40.6794 35.7317 40.1412 36.1939 39.5159 36.4766C38.9505 36.7376 38.3252 36.8572 37.7053 36.8735C37.0528 36.879 36.4004 36.8735 35.7479 36.879C35.7153 36.1558 35.7425 35.4327 35.7316 34.7097C35.7316 32.823 35.7316 30.9418 35.7372 29.0552H37.7543C38.7656 29.0769 39.7932 29.4249 40.5272 30.1426C41.1851 30.7787 41.5548 31.6758 41.6146 32.5838C41.6744 33.4699 41.5113 34.3888 41.0437 35.15ZM62.906 36.4059C61.6772 33.421 60.4539 30.4306 59.2144 27.4511C59.1001 27.1521 58.9805 26.8476 58.8446 26.5595C57.8332 26.5432 56.8221 26.5432 55.8107 26.5595C54.0817 30.7188 52.3527 34.8781 50.6239 39.032C50.5695 39.1679 50.5042 39.2984 50.4771 39.4398H53.6033C53.9133 38.5807 54.2449 37.7326 54.5548 36.8735C56.3273 36.8463 58.1052 36.8681 59.8831 36.8626C59.9755 36.8354 60.0027 36.9334 60.0245 36.9986C60.3235 37.8141 60.6281 38.6242 60.9216 39.4398H64.1459C63.7542 38.4176 63.3192 37.4172 62.906 36.4059ZM55.3811 34.5845C55.3648 34.4702 55.4355 34.3725 55.4681 34.2692C56.0608 32.7196 56.6698 31.1701 57.2569 29.6205C57.2678 29.615 57.2895 29.6096 57.3004 29.6096C57.9148 31.2407 58.5401 32.8663 59.1599 34.4974C59.1599 34.5192 59.1653 34.5627 59.1653 34.5845C57.9039 34.5736 56.6425 34.5736 55.3811 34.5845Z" fill="white" stroke="white" stroke-width="0.161675"/>
</svg>
