<svg xmlns="http://www.w3.org/2000/svg" width="320" height="320" viewBox="0 0 320 320"><defs><clipPath id="txe1a"><path fill="#fff" d="M0 160C0 71.634 71.634 0 160 0s160 71.634 160 160-71.634 160-160 160S0 248.366 0 160z"/></clipPath></defs><g><g><g><path fill="none" stroke="#634137" stroke-miterlimit="20" stroke-opacity=".4" stroke-width="2" d="M0 160C0 71.634 71.634 0 160 0h0c88.366 0 160 71.634 160 160v0c0 88.366-71.634 160-160 160h0C71.634 320 0 248.366 0 160z" clip-path="url(&quot;#txe1a&quot;)"/></g></g><g><g><path fill="#fff" d="M120 142l7.661 33.57c7.691-4.438 23.537-5.994 32.349.02 8.814-6.002 24.642-4.456 32.329-.02L200 142z"/></g><g><path d="M134.164 150.168v9.655h4.608v2.962h-8.832v-12.617zm18.068.02h4.706l3.174 8.476 3.065-8.475h4.65l-5.307 12.575h-4.925zm20.99-.011v12.6h-4.22v-12.6zm-20.936 5.094c.029.273.082 2.054.028 2.52h-8.712c0 3.232 2 2.958 2.328 2.958 1.096 0 2.165-.466 2.165-1.534h4.22c-.165 1.342-.275 4.163-6.247 4.163-5.59 0-6.767-2-6.767-6.819 0-5.86 2.74-6.6 6.603-6.6 5.808-.027 6.082 2.465 6.382 5.312zm32.128-5.297c3.446 0 5.635 1.284 5.907 4.07h-4.375c0-.6-.437-1.72-1.696-1.72-1.258 0-1.942.41-1.942 1.338 0 .983.575 1.23 1.012 1.339.219.054 2.845.437 3.719.546.651.081 3.337.219 3.282 2.95-.055 2.733-1.75 4.427-6.016 4.427-4.267 0-6.29-1.475-6.29-3.88h4.375c.027.847.492 1.476 1.86 1.476s2.078-.6 2.078-1.53c0-.71-.629-1.093-1.312-1.148-.45-.036-3.31-.055-4.677-.656-1.22-.536-2.616-1.361-2.379-3.442.273-2.404 2.023-3.77 6.454-3.77zm-7.954 2.715c.083-.186.336-.576.295-.838a1.884 1.884 0 0 1-.68.125c-.962 0-1.742-.71-1.742-1.588 0-.877.78-1.588 1.743-1.588.964 0 1.744.71 1.744 1.588.01.958-.072 1.588-1.36 2.3z"/></g><g><path fill="#fff" d="M143.68 155.139c0-1.7.713-2.659 2.22-2.659 1.673 0 2.331.932 2.304 2.659zm46.065 21.014c.041.1.062.208.06.316a.8.8 0 0 1-.24.587.796.796 0 0 1-.586.243.794.794 0 0 1-.585-.244.803.803 0 0 1-.24-.586.795.795 0 0 1 .242-.583c.16-.16.355-.24.582-.24a.799.799 0 0 1 .586.24c.078.076.14.167.18.267zm-.057.316a.686.686 0 0 0-.207-.503.683.683 0 0 0-.503-.21.682.682 0 0 0-.502.21.686.686 0 0 0-.207.503.697.697 0 0 0 .205.507c.139.14.307.21.504.21a.68.68 0 0 0 .503-.21.691.691 0 0 0 .207-.507z"/></g><g><path fill="#fff" d="M189.351 176.906l.006.01h-.15a.121.121 0 0 1-.002-.008l-.002-.01-.004-.03v-.071c0-.105-.028-.175-.085-.208a.386.386 0 0 0-.178-.03h-.127v.358h-.159v-.907h.317c.113 0 .196.011.248.032.094.04.14.116.14.23 0 .081-.03.141-.089.18a.34.34 0 0 1-.131.043.22.22 0 0 1 .156.09c.03.04.048.09.05.14v.066c0 .022 0 .044.002.068.001.023.004.04.008.047zm-.152-.62c0-.066-.02-.11-.06-.133a.417.417 0 0 0-.194-.034h-.136v.329h.145a.428.428 0 0 0 .152-.02c.061-.025.093-.072.093-.142z"/></g></g></g></svg>