<svg width="75" height="62" viewBox="0 0 75 62" fill="none" xmlns="http://www.w3.org/2000/svg">
<path d="M16.3 0L11.0144 8.14941H43.8868L48.6953 0H16.3Z" fill="white"/>
<path d="M6.71784 14.9355L1.90999 22.4383H9.8211L1.43279 36.9307H42.6935L47.5014 29.7351L44.1257 22.4383H51.5932L56.6064 15.8222L69.8026 37.6803H78.9417L56.8447 0.238281L46.7853 14.9355H32.6342L38.6353 29.4968H15.345L19.9146 22.4383H27.1096L31.884 14.9355H6.71784ZM7.19563 45.2507C11.5628 45.5651 12.6459 46.1159 12.6513 49.5131C12.6453 51.9404 12.7435 54.3413 6.24065 54.3551C2.49196 54.3413 -0.00716939 54.2623 1.54513e-05 49.4107H3.78523C3.77086 50.9567 4.3217 51.1136 6.24065 51.116C8.09973 51.1142 8.71044 50.9956 8.69607 49.752C8.71044 48.4773 8.4937 48.4971 6.65019 48.3881L5.76406 48.3199C2.13751 48.0642 0.0125889 48.0839 1.54513e-05 43.8527C0.0125889 39.6226 2.39377 39.3472 6.24065 39.3514C9.47742 39.3472 12.2322 39.4059 12.2418 43.4773V44.091H8.45657C8.45418 42.5738 7.82431 42.5738 6.24005 42.5905C4.12471 42.5738 3.94749 43.0067 3.95527 43.8179C3.94749 45.0136 4.51808 45.0531 5.55809 45.1483L7.19563 45.2507ZM14.0835 54.2192V39.4538H21.5174C25.1763 39.4657 26.554 41.02 26.5642 44.8759C26.5534 49.0288 25.6289 50.4454 21.5174 50.4346H18.0394V54.2198H14.0835V54.2192Z" fill="white"/>
<path d="M20.7331 47.0245C22.2839 46.9622 22.5001 46.7856 22.5067 44.8762C22.5001 43.362 22.2648 42.8896 20.7331 42.8986H18.0394V47.0245H20.7331Z" fill="black"/>
<path d="M27.212 48.9332V44.7731C27.2024 40.2126 30.0356 39.3474 34.0322 39.3516C38.0246 39.3474 40.8584 40.2126 40.8524 44.7731V48.9332C40.8584 53.4752 38.0252 54.341 34.0322 54.3553C30.0356 54.341 27.2024 53.4746 27.212 48.9332Z" fill="white"/>
<path d="M36.7942 48.4898V45.1824C36.8044 42.9874 36.0763 42.7707 34.0316 42.7617C31.9833 42.7713 31.314 42.9874 31.2697 45.1824V48.4898C31.314 50.7004 31.9827 50.9171 34.0316 50.9111C36.0763 50.9171 36.8044 50.701 36.7942 48.4898Z" fill="black"/>
<path d="M41.8751 39.4541H49.4797C52.8709 39.5242 53.5062 40.2528 53.5373 43.9213C53.5834 47.8717 51.9034 48.3489 49.1043 49.0022L54.6965 54.2196H50.4682L45.2849 49.0698V54.2196H41.8751V39.4541Z" fill="white"/>
<path d="M48.8653 46.0685C50.5483 46.0829 50.4897 45.4536 50.5022 43.7843C50.4897 42.4629 50.155 42.0887 48.8653 42.0791H45.2849V46.0685H48.8653Z" fill="black"/>
<path d="M28.3376 57.1172H30.4859C31.4582 57.1346 31.6372 57.3405 31.645 58.3787C31.6588 59.4924 31.1846 59.6265 30.3835 59.8115L31.9863 61.2778H30.793L29.3267 59.8456V61.2778H28.3376V57.1172Z" fill="white"/>
<path d="M30.3153 58.9927C30.8021 58.9873 30.7853 58.8095 30.7925 58.3448C30.7853 57.9652 30.6907 57.8593 30.3153 57.8676H29.3262V58.9927H30.3153Z" fill="black"/>
<path d="M64.8246 57.1172H66.9729C67.9333 57.1346 68.1123 57.3405 68.1321 58.3787C68.1339 59.4924 67.6597 59.6265 66.8705 59.8115L68.4392 61.2778H67.2453L65.779 59.8456V61.2778H64.824V57.1172H64.8246Z" fill="white"/>
<path d="M66.8017 58.9927C67.2765 58.9873 67.2597 58.8095 67.2454 58.3448C67.2597 57.9652 67.1657 57.8593 66.8017 57.8676H65.7791V58.9927H66.8017Z" fill="black"/>
<path d="M63.0512 54.2195H59.1295V42.898H55.3442V39.4541H67.007V42.898H63.0512V54.2195ZM74.5427 45.2511C78.9279 45.5654 80.0098 46.1162 79.9984 49.5135C80.0098 51.9407 80.108 54.3417 73.6219 54.3555C69.8564 54.3417 67.3573 54.2627 67.3477 49.4111H71.1329C71.1359 50.957 71.6868 51.1139 73.6219 51.1163C75.4648 51.1145 76.0743 50.9959 76.0773 49.7524C76.0743 48.4777 75.8582 48.4974 73.9973 48.3884L73.1447 48.3202C69.5026 48.0645 67.3771 48.0843 67.3819 43.853C67.3771 39.6229 69.7576 39.3475 73.6219 39.3517C76.8419 39.3475 79.5967 39.4062 79.5895 43.4776V44.0913H75.8043C75.8186 42.5741 75.1894 42.5741 73.6219 42.5909C71.4892 42.5741 71.3126 43.007 71.303 43.8183C71.3126 45.014 71.8831 45.0535 72.9399 45.1487L74.5427 45.2511ZM3.13737 58.8226H4.87671V59.607H3.13737V60.3913H5.04675V61.3116H2.01175V57.1516H5.01322V58.0724H3.13737V58.8226ZM8.49128 60.3572H10.1959V61.3116H7.36566V57.1516H8.49128V60.3572ZM13.4015 58.8226H15.175V59.607H13.4015V60.3913H15.3109V61.3116H12.3106V57.1516H15.2768V58.0724H13.4015V58.8226ZM21.1761 59.7435V59.8459C21.1791 60.3093 21.1731 60.7176 20.8013 61.0398C20.4229 61.3415 19.9655 61.3361 19.4709 61.3469C18.3591 61.3361 17.537 61.2804 17.5274 59.7782V58.6873C17.537 57.33 18.2705 57.1312 19.4709 57.1186C20.6211 57.1312 21.1516 57.2474 21.1761 58.4825V58.6532H20.0511V58.4825C19.9984 58.1197 19.7392 58.0916 19.3691 58.1077C18.7345 58.0916 18.674 58.285 18.6872 58.8921V59.5058C18.674 60.1393 18.7015 60.3764 19.3691 60.3925C19.8218 60.3764 20.0427 60.3434 20.0511 59.8465V59.7441H21.1761V59.7435ZM25.2002 61.3116H24.0746V58.1407H23.0172V57.1516H26.2911V58.1407H25.2002V61.3116ZM33.8957 59.8117V58.652C33.8891 57.3731 34.6836 57.13 35.8045 57.1174C36.9235 57.13 37.718 57.3731 37.7144 58.652V59.8117C37.718 61.0924 36.9235 61.3355 35.8045 61.3463C34.6836 61.3355 33.8891 61.0924 33.8957 59.8117Z" fill="white"/>
<path d="M36.5894 59.7095V58.7545C36.5817 58.1516 36.3775 58.0911 35.8051 58.1067C35.2297 58.0905 35.0423 58.1516 35.0208 58.7545V59.7095C35.0417 60.3154 35.2297 60.3753 35.8051 60.392C36.3775 60.3753 36.5817 60.3148 36.5894 59.7095Z" fill="black"/>
<path d="M40.9884 61.3111H39.8975V57.1511H41.7727L42.9319 60.3567H43.0001L42.9319 57.1511H44.0234V61.3111H42.1481L40.9884 58.1402H40.9201L40.9884 61.3111ZM46.3764 57.1511H47.4673V61.3111H46.3764V57.1511ZM53.2984 59.743V59.8454C53.2972 60.3088 53.2912 60.7172 52.9236 61.0393C52.541 61.3411 52.083 61.3357 51.5938 61.3464C50.4777 61.3357 49.6557 61.28 49.6503 59.7777V58.6869C49.6557 57.3295 50.3891 57.1307 51.5938 57.1182C52.7404 57.1307 53.2696 57.2469 53.299 58.4821V58.6527H52.1398V58.4821C52.1165 58.1193 51.8572 58.0911 51.492 58.1073C50.8531 58.0911 50.7927 58.2845 50.7759 58.8916V59.5053C50.7927 60.1388 50.8202 60.3759 51.492 60.3921C51.9399 60.3759 52.1608 60.343 52.174 59.846V59.7436H53.2984V59.743ZM60.0503 60.5956L59.8456 61.3111H58.7205L59.948 57.1511H61.619L62.8806 61.3111H61.7555L61.5508 60.5956H60.0503Z" fill="white"/>
<path d="M60.8006 58.0039L60.2886 59.7774H61.3119L60.8006 58.0039Z" fill="black"/>
<path d="M72.3945 61.3117H71.303V58.1408H70.2462V57.1517H73.5201V58.1408H72.3945V61.3117ZM77.4071 58.7892C78.6166 58.8749 78.9195 59.0293 78.9075 59.9825C78.9201 60.6627 78.9471 61.3357 77.1341 61.3464C76.0725 61.3357 75.372 61.3135 75.3612 59.9484H76.418C76.4312 60.3861 76.5856 60.431 77.1341 60.4256C77.6454 60.431 77.816 60.3974 77.816 60.0508C77.816 59.6915 77.7556 59.6969 77.2365 59.676L76.9976 59.6418C75.9725 59.5754 75.3768 59.5814 75.3612 58.3797C75.3768 57.2086 76.045 57.1313 77.1341 57.1182C78.0316 57.1307 78.8034 57.1475 78.8052 58.2779V58.448H77.7478C77.7442 58.036 77.5676 58.036 77.1341 58.039C76.53 58.0366 76.4809 58.1582 76.4863 58.3797C76.4809 58.7204 76.6407 58.7318 76.9299 58.7545L77.4071 58.7892Z" fill="white"/>
</svg>
