<svg xmlns="http://www.w3.org/2000/svg" width="320" height="320" viewBox="0 0 320 320"><defs><clipPath id="lzwna"><path fill="#fff" d="M0 160C0 71.634 71.634 0 160 0s160 71.634 160 160-71.634 160-160 160S0 248.366 0 160z"/></clipPath></defs><g><g><g><path fill="none" stroke="#634137" stroke-miterlimit="20" stroke-opacity=".4" stroke-width="2" d="M0 160C0 71.634 71.634 0 160 0h0c88.366 0 160 71.634 160 160v0c0 88.366-71.634 160-160 160h0C71.634 320 0 248.366 0 160z" clip-path="url(&quot;#lzwna&quot;)"/></g></g><g><g><path fill="#fff" d="M136.296 129l-5.286 8.15h32.873l4.808-8.15z"/></g><g><path fill="#fff" d="M151.884 143.937l-4.774 7.503h-7.195l-4.57 7.059h23.29l-6-14.562h14.15l10.06-14.697 22.097 37.442h-9.14l-13.196-21.858-5.013 6.616h-7.467l3.375 7.297-4.807 7.195h-41.261l8.388-14.492h-7.911l4.808-7.503zm-24.688 30.315c4.367.315 5.45.866 5.455 4.263-.006 2.427.092 4.828-6.41 4.842-3.749-.014-6.248-.093-6.241-4.944h3.785c-.014 1.545.537 1.702 2.456 1.705 1.859-.002 2.47-.12 2.455-1.364.014-1.275-.202-1.255-2.046-1.364l-.886-.068c-3.626-.256-5.751-.236-5.764-4.468.013-4.23 2.394-4.505 6.24-4.5 3.237-.005 5.992.054 6.002 4.125v.614h-3.785c-.003-1.517-.633-1.517-2.217-1.5-2.115-.017-2.293.415-2.285 1.227-.008 1.195.563 1.235 1.603 1.33zm6.887-5.797h7.434c3.66.012 5.037 1.567 5.047 5.423-.01 4.153-.935 5.57-5.047 5.558h-3.478v3.785h-3.956z"/></g><g><path d="M140.734 176.026c1.55-.062 1.767-.239 1.773-2.148-.006-1.514-.242-1.987-1.773-1.978h-2.694v4.126z"/></g><g><path fill="#fff" d="M147.21 177.932v-4.16c-.01-4.561 2.824-5.426 6.82-5.422 3.993-.004 6.826.861 6.82 5.422v4.16c.006 4.542-2.827 5.407-6.82 5.422-3.996-.015-6.83-.881-6.82-5.422z"/></g><g><path d="M156.795 177.488v-3.307c.01-2.195-.718-2.412-2.763-2.421-2.048.01-2.718.226-2.762 2.42v3.308c.044 2.21.713 2.427 2.762 2.421 2.045.006 2.773-.21 2.763-2.42z"/></g><g><path fill="#fff" d="M161.88 168.45h7.605c3.39.07 4.026.799 4.057 4.467.046 3.95-1.634 4.428-4.433 5.081l5.592 5.218h-4.228l-5.183-5.15v5.15h-3.41z"/></g><g><path d="M168.86 175.07c1.683.014 1.625-.616 1.637-2.285-.012-1.321-.347-1.695-1.637-1.705h-3.58v3.99z"/></g><g><path fill="#fff" d="M148.34 186.12h2.148c.973.017 1.152.223 1.16 1.262.013 1.113-.461 1.247-1.262 1.432l1.603 1.467h-1.194l-1.466-1.433v1.433h-.989z"/></g><g><path d="M150.32 187.995c.486-.005.47-.183.476-.647-.007-.38-.101-.486-.477-.478h-.989v1.125z"/></g><g><path fill="#fff" d="M184.82 186.12h2.149c.96.017 1.14.223 1.159 1.262.002 1.113-.472 1.247-1.262 1.432l1.57 1.467h-1.195l-1.466-1.433v1.433h-.955v-4.161z"/></g><g><path d="M186.803 187.995c.474-.005.458-.183.443-.647.015-.38-.08-.486-.443-.478h-1.023v1.125z"/></g><g><path fill="#fff" d="M183.05 183.218h-3.922v-11.322h-3.785v-3.443h11.662v3.443h-3.956zm11.491-8.968c4.385.314 5.467.865 5.456 4.262.011 2.427.11 4.828-6.377 4.842-3.765-.014-6.264-.093-6.274-4.944h3.785c.003 1.546.554 1.702 2.49 1.705 1.842-.002 2.452-.12 2.455-1.364-.003-1.275-.22-1.255-2.08-1.364l-.853-.068c-3.642-.256-5.768-.236-5.763-4.468-.005-4.23 2.376-4.505 6.24-4.5 3.22-.005 5.975.054 5.968 4.125v.614h-3.785c.014-1.517-.615-1.517-2.183-1.5-2.133-.017-2.31.415-2.319 1.227.01 1.195.58 1.235 1.637 1.33zm-71.405 13.571h1.739v.784h-1.74v.785h1.91v.92h-3.035v-4.16h3.001v.92h-1.875zm5.354 1.535h1.704v.954h-2.83v-4.16h1.126zm4.91-1.535h1.773v.784H133.4v.785h1.91v.92h-3.001v-4.16h2.966v.92H133.4zm7.774 1.023c.003.464-.003.872-.374 1.194-.379.302-.836.297-1.33.307-1.113-.01-1.935-.066-1.944-1.568v-1.091c.01-1.358.743-1.556 1.943-1.569 1.15.013 1.68.129 1.705 1.364v.17h-1.125v-.17c-.052-.363-.312-.391-.682-.375-.634-.016-.695.177-.682.785v.613c-.013.634.015.87.682.887.453-.016.674-.05.682-.546v-.103h1.125zm4.024 1.466h-1.125v-3.17h-1.058v-.99h3.274v.99h-1.09zm8.696-2.66c-.007-1.279.788-1.522 1.909-1.534 1.119.012 1.913.255 1.91 1.534v1.16c.003 1.28-.791 1.524-1.91 1.535-1.121-.011-1.916-.254-1.91-1.535z"/></g><g><path d="M156.589 188.705v-.955c-.008-.603-.212-.663-.785-.648-.575-.016-.762.045-.784.648v.955c.021.606.209.666.784.683.573-.017.777-.078.785-.683z"/></g><g><path fill="#fff" d="M160.99 190.313h-1.09v-4.16h1.875l1.16 3.206h.068l-.069-3.206h1.092v4.16h-1.875l-1.16-3.171h-.068zm5.389-4.16h1.09v4.16h-1.09zm6.922 2.694c-.001.464-.007.872-.375 1.194-.382.302-.84.297-1.33.307-1.116-.01-1.938-.066-1.943-1.568v-1.091c.005-1.358.739-1.556 1.943-1.569 1.147.013 1.676.129 1.706 1.364v.17h-1.16v-.17c-.023-.363-.282-.391-.647-.375-.64-.016-.7.177-.717.784v.614c.017.634.045.87.717.887.447-.016.668-.05.682-.546v-.103h1.124zm6.752.75l-.205.716h-1.125l1.227-4.16h1.672l1.261 4.16h-1.125l-.205-.716z"/></g><g><path d="M180.802 187l-.512 1.773h1.023z"/></g><g><path fill="#fff" d="M192.398 187.143h1.126v-.99h-3.274v.99h1.057v3.17h1.091zm4.536.613c-.29-.022-.45-.034-.444-.374-.005-.222.044-.344.648-.341.433-.003.61-.003.614.409h1.057v-.17c-.002-1.13-.774-1.147-1.671-1.16-1.09.013-1.757.09-1.773 1.262.016 1.201.611 1.195 1.636 1.262l.24.034c.518.02.579.015.579.375 0 .346-.17.38-.682.374-.549.006-.703-.04-.716-.477h-1.057c.01 1.365.711 1.388 1.773 1.398 1.813-.01 1.786-.683 1.773-1.364.012-.953-.29-1.107-1.5-1.193z"/></g></g></g></svg>