<svg xmlns="http://www.w3.org/2000/svg" width="320" height="320" viewBox="0 0 320 320"><defs><clipPath id="q8roa"><path fill="#fff" d="M0 160C0 71.634 71.634 0 160 0s160 71.634 160 160-71.634 160-160 160S0 248.366 0 160z"/></clipPath></defs><g><g><g><path fill="none" stroke="#634137" stroke-miterlimit="20" stroke-opacity=".4" stroke-width="2" d="M0 160C0 71.634 71.634 0 160 0h0c88.366 0 160 71.634 160 160v0c0 88.366-71.634 160-160 160h0C71.634 320 0 248.366 0 160z" clip-path="url(&quot;#q8roa&quot;)"/></g></g><g><path fill="#fff" d="M160 196.32c-19.92 0-36.24-16.4-36.24-36.32 0-4.48.8-8.72 2.32-12.72l21.2 42.64c.24.56.64 1.04 1.28 1.04s1.04-.48 1.28-1.04l9.76-21.84c.08-.24.24-.48.48-.48s.32.24.48.48l9.76 21.84c.24.56.64 1.04 1.28 1.04s1.04-.48 1.28-1.04l21.2-42.64c1.52 4 2.32 8.24 2.32 12.72-.16 19.92-16.48 36.32-36.4 36.32zm0-44.56c-.24 0-.32-.24-.48-.48l-11.36-25.6c3.68-1.36 7.68-2.08 11.84-2.08s8.16.72 11.84 2.08l-11.36 25.6c-.16.32-.24.48-.48.48zm-11.6 26.32c-.24 0-.32-.24-.48-.48l-18.4-37.12c3.28-5.04 7.68-9.28 13.04-12.24l13.28 29.52c.16.48.56.64.96.64h6.4c.48 0 .8-.08 1.04-.64l13.28-29.52c5.28 2.96 9.76 7.2 13.04 12.24L172 177.6c-.08.24-.24.48-.48.48s-.32-.24-.48-.48l-6.96-15.84c-.24-.56-.56-.64-1.04-.64h-6.4c-.48 0-.8.08-1.04.64l-6.72 15.84c-.08.24-.24.48-.48.48zM160 200c22.16 0 40-17.84 40-40s-17.84-40-40-40-40 17.84-40 40 17.84 40 40 40z"/></g></g></svg>