<svg xmlns="http://www.w3.org/2000/svg" width="320" height="320" viewBox="0 0 320 320"><defs><clipPath id="w4ata"><path fill="#fff" d="M0 160C0 71.634 71.634 0 160 0s160 71.634 160 160-71.634 160-160 160S0 248.366 0 160z"/></clipPath></defs><g><g><g><path fill="none" stroke="#634137" stroke-miterlimit="20" stroke-opacity=".4" stroke-width="2" d="M0 160C0 71.634 71.634 0 160 0h0c88.366 0 160 71.634 160 160v0c0 88.366-71.634 160-160 160h0C71.634 320 0 248.366 0 160z" clip-path="url(&quot;#w4ata&quot;)"/></g></g><g><g><path fill="#fff" d="M169.834 163.433c0 .136.034.238.034.374v.034c.034.374.17.714.306 1.054 0 .034.034.034.034.068l.102.203c.034.068.102.136.136.204.102.136.204.272.306.374.102.136.272.272.408.374l.068.068c.136.068.238.136.374.204l.204.102c.102.034.17.068.272.102l.305.102c.136.034.238.034.374.034a.307.307 0 0 0 .17.034h.034c1.326 0 2.006-.646 2.584-1.53l1.971.952c-.85 1.598-2.413 2.652-4.589 2.652-2.923 0-5.065-2.006-5.269-4.895v-.884c.204-2.89 2.312-4.895 5.27-4.895 2.14 0 3.738 1.054 4.588 2.651l-1.971.952c-.578-.884-1.258-1.53-2.584-1.53h-.034c-.068 0-.102.034-.17.034-.136 0-.272 0-.374.034l-.305.102a2.343 2.343 0 0 0-.272.102l-.204.102c-.136.068-.272.136-.374.204l-.068.068a4.084 4.084 0 0 0-.408.374c-.102.102-.17.238-.272.374-.068.068-.102.136-.136.204l-.102.204c0 .034-.034.034-.034.068-.136.306-.272.68-.306 1.054 0 .136-.068.136-.068.272zm-28.758-9.348h8.124v2.413h-5.643v4.385h5.27v2.414h-5.27v5.337h-2.481zm39.976 4.35h2.515v2.414h-2.515v7.785h-2.414v-13.36h2.414zm-17.065-.033h2.38V168.6h-2.38v-1.462c-.748 1.054-2.04 1.734-3.467 1.734-2.788 0-4.963-2.346-4.963-5.337 0-2.992 2.141-5.337 4.963-5.337 1.427 0 2.72.578 3.467 1.632zm.102 5.133c0-1.734-1.326-3.162-3.06-3.162-1.733 0-3.059 1.428-3.059 3.162 0 1.733 1.326 3.161 3.06 3.161 1.7 0 3.06-1.427 3.06-3.161zm-13.937-5.1h4.929v2.414h-2.516v7.785h-2.413zm42.321-.033h2.38V168.6h-2.38v-1.462c-.748 1.054-2.04 1.734-3.467 1.734-2.787 0-4.963-2.346-4.963-5.337 0-2.992 2.142-5.337 4.963-5.337 1.428 0 2.72.578 3.467 1.632zm.102 5.133c0-1.734-1.325-3.162-3.06-3.162-1.733 0-3.058 1.428-3.058 3.162 0 1.733 1.325 3.161 3.059 3.161 1.734 0 3.06-1.427 3.06-3.161zm4.012-9.484H199v14.583h-2.413zM120 169.824v-4.827l8.396-4.862 4.215 2.414-8.396 4.861v4.861zm0-12.136v-4.827l8.396-4.861 4.215 2.414-8.396 4.86v4.861z"/></g></g></g></svg>