<svg width="80" height="53" viewBox="0 0 80 53" fill="none" xmlns="http://www.w3.org/2000/svg">
<path fill-rule="evenodd" clip-rule="evenodd" d="M69.3839 34.1102H53.4911L75.0907 22.7772C78.8693 20.5836 80 16.8004 80 12.0158C80 4.95164 74.3082 0.000454947 67.4457 0.000454947C65.4578 0.000454947 62.8031 0.481144 61.1371 1.336L35.0151 14.9878L45.6094 0H31.5265L0 45.3518H14.0833L26.8748 27.0041L27.1334 45.3518H38.7619L38.5033 25.4537L65.8124 11.075C66.2711 10.8544 66.7986 10.8252 67.2789 10.9936C67.7592 11.162 68.1529 11.5144 68.3734 11.9731C68.5939 12.4318 68.6231 12.9593 68.4547 13.4395C68.2863 13.9198 67.9339 14.3135 67.4753 14.534L48.0643 24.6785C45.9972 25.8415 42.6383 27.2622 42.6383 30.622L42.896 45.3518H61.5022L69.3839 34.1102ZM71.908 46.7042C70.2151 46.7042 68.783 48.0056 68.783 49.7722C68.783 51.5547 70.2151 52.8561 71.908 52.8561C73.5849 52.8561 75.017 51.5547 75.017 49.7722C75.017 48.0056 73.5845 46.7042 71.908 46.7042ZM71.9034 47.2249L71.908 47.2158C73.3004 47.2158 74.3993 48.3146 74.3993 49.7717C74.3993 51.2529 73.3004 52.3436 71.908 52.3436C70.5005 52.3436 69.4016 51.2529 69.4016 49.7717C69.4016 48.3151 70.495 47.2249 71.9034 47.2249Z" fill="white"/>
</svg>
