<svg xmlns="http://www.w3.org/2000/svg" width="320" height="320" viewBox="0 0 320 320"><defs><clipPath id="5eq7a"><path fill="#fff" d="M0 160C0 71.634 71.634 0 160 0s160 71.634 160 160-71.634 160-160 160S0 248.366 0 160z"/></clipPath></defs><g><g><g><path fill="none" stroke="#634137" stroke-miterlimit="20" stroke-opacity=".4" stroke-width="2" d="M0 160C0 71.634 71.634 0 160 0h0c88.366 0 160 71.634 160 160v0c0 88.366-71.634 160-160 160h0C71.634 320 0 248.366 0 160z" clip-path="url(&quot;#5eq7a&quot;)"/></g></g><g><g><path fill="#fff" d="M153.492 141c.331.38.707.718 1.06 1.082l2.403 2.403v.044c-1.163 1.158-2.322 2.327-3.485 3.485-1.169-1.164-2.333-2.333-3.501-3.496.06-.114.174-.19.26-.283 1.072-1.082 2.159-2.148 3.22-3.235zm7.013 0a.862.862 0 0 0 .11.136c1.125 1.115 2.234 2.245 3.37 3.355-.027.065-.087.108-.136.157-1.125 1.12-2.245 2.246-3.37 3.366-1.175-1.158-2.328-2.338-3.508-3.49 1.142-1.192 2.344-2.339 3.49-3.524zm7.014 0c.218.261.473.484.707.729l2.637 2.637c.044.048.114.092.13.163-1.18 1.147-2.321 2.338-3.506 3.485l-3.344-3.344c-.055-.06-.125-.103-.152-.18.592-.576 1.169-1.168 1.756-1.75.576-.582 1.163-1.147 1.729-1.74zm-10.499 10.466c1.147-1.147 2.3-2.294 3.447-3.447l.05.022a519.334 519.334 0 0 0 3.468 3.463c-.038.087-.12.136-.18.207-.837.832-1.674 1.674-2.511 2.506-.272.261-.533.555-.81.8-.397-.36-.762-.762-1.148-1.131-.783-.783-1.56-1.566-2.348-2.344.01-.021.021-.054.032-.076zM121 166.55h10.46c.006.837.006 1.674 0 2.506h-3.767v9.895c-.005.164.01.327-.022.49h-2.909c.011-3.464.006-6.922.006-10.385H121zm19.187 0c.979 0 1.958 0 2.936.005-.005 4.295.011 8.59-.01 12.886h-2.92c-.017-1.142-.006-2.284-.011-3.426.005-3.153 0-6.307.005-9.465zm51.766 0c.979 0 1.958 0 2.936.005v10.298c1.702.01 3.41.005 5.111.005v2.583h-8.041c-.017-4.295 0-8.59-.006-12.891zm-27.386 7.394c-.147 1.125-.598 2.218-1.332 3.088-.995 1.202-2.458 1.957-3.98 2.235-.446.098-.908.092-1.36.174h-5.023c.005-.027.01-.076.016-.104-.01-4.257.006-8.514-.01-12.771.065-.011.135-.016.2-.016h3.475c.783.005 1.571-.028 2.349.087 1.375.179 2.745.685 3.795 1.614a5.506 5.506 0 0 1 1.658 2.621c.288.99.342 2.044.212 3.072zm-2.952-1.36c-.06-.907-.43-1.804-1.088-2.44-.734-.718-1.761-1.066-2.773-1.088h-2.017c-.005 1.887-.005 3.768-.005 5.655.01.723-.017 1.446.016 2.169.652-.005 1.305 0 1.957-.005a4.615 4.615 0 0 0 1.81-.397 3.513 3.513 0 0 0 1.529-1.327c.467-.761.63-1.68.57-2.566zm22.53 6.857h-3.223c-.294-.816-.598-1.626-.897-2.441-.022-.066-.05-.164-.142-.136-1.778.005-3.556-.017-5.328.01-.31.86-.642 1.708-.952 2.567h-3.126c.027-.142.092-.272.147-.408 1.729-4.154 3.458-8.313 5.187-12.473a94.122 94.122 0 0 1 3.034 0c.135.289.255.593.37.892 1.239 2.98 2.462 5.97 3.691 8.955.413 1.011.848 2.012 1.24 3.034zm-4.98-4.856c0-.021-.005-.065-.005-.087-.62-1.63-1.245-3.256-1.86-4.887a.127.127 0 0 0-.043.01c-.587 1.55-1.196 3.1-1.789 4.65-.032.102-.103.2-.087.314 1.262-.01 2.523-.01 3.784 0z"/><path fill="none" stroke="#fff" stroke-miterlimit="20" stroke-width=".16" d="M153.492 141c.331.38.707.718 1.06 1.082l2.403 2.403v.044c-1.163 1.158-2.322 2.327-3.485 3.485-1.169-1.164-2.333-2.333-3.501-3.496.06-.114.174-.19.26-.283 1.072-1.082 2.159-2.148 3.22-3.235zm7.013 0a.862.862 0 0 0 .11.136c1.125 1.115 2.234 2.245 3.37 3.355-.027.065-.087.108-.136.157-1.125 1.12-2.245 2.246-3.37 3.366-1.175-1.158-2.328-2.338-3.508-3.49 1.142-1.192 2.344-2.339 3.49-3.524zm7.014 0c.218.261.473.484.707.729l2.637 2.637c.044.048.114.092.13.163-1.18 1.147-2.321 2.338-3.506 3.485l-3.344-3.344c-.055-.06-.125-.103-.152-.18.592-.576 1.169-1.168 1.756-1.75.576-.582 1.163-1.147 1.729-1.74zm-10.499 10.466c1.147-1.147 2.3-2.294 3.447-3.447l.05.022a519.334 519.334 0 0 0 3.468 3.463c-.038.087-.12.136-.18.207-.837.832-1.674 1.674-2.511 2.506-.272.261-.533.555-.81.8-.397-.36-.762-.762-1.148-1.131-.783-.783-1.56-1.566-2.348-2.344.01-.021.021-.054.032-.076zM121 166.55h10.46c.006.837.006 1.674 0 2.506h-3.767v9.895c-.005.164.01.327-.022.49h-2.909c.011-3.464.006-6.922.006-10.385H121zm19.187 0c.979 0 1.958 0 2.936.005-.005 4.295.011 8.59-.01 12.886h-2.92c-.017-1.142-.006-2.284-.011-3.426.005-3.153 0-6.307.005-9.465zm51.766 0c.979 0 1.958 0 2.936.005v10.298c1.702.01 3.41.005 5.111.005v2.583h-8.041c-.017-4.295 0-8.59-.006-12.891zm-27.386 7.394c-.147 1.125-.598 2.218-1.332 3.088-.995 1.202-2.458 1.957-3.98 2.235-.446.098-.908.092-1.36.174h-5.023c.005-.027.01-.076.016-.104-.01-4.257.006-8.514-.01-12.771.065-.011.135-.016.2-.016h3.475c.783.005 1.571-.028 2.349.087 1.375.179 2.745.685 3.795 1.614a5.506 5.506 0 0 1 1.658 2.621c.288.99.342 2.044.212 3.072zm-2.952-1.36c-.06-.907-.43-1.804-1.088-2.44-.734-.718-1.761-1.066-2.773-1.088h-2.017c-.005 1.887-.005 3.768-.005 5.655.01.723-.017 1.446.016 2.169.652-.005 1.305 0 1.957-.005a4.615 4.615 0 0 0 1.81-.397 3.513 3.513 0 0 0 1.529-1.327c.467-.761.63-1.68.57-2.566zm22.53 6.857h-3.223c-.294-.816-.598-1.626-.897-2.441-.022-.066-.05-.164-.142-.136-1.778.005-3.556-.017-5.328.01-.31.86-.642 1.708-.952 2.567h-3.126c.027-.142.092-.272.147-.408 1.729-4.154 3.458-8.313 5.187-12.473a94.122 94.122 0 0 1 3.034 0c.135.289.255.593.37.892 1.239 2.98 2.462 5.97 3.691 8.955.413 1.011.848 2.012 1.24 3.034zm-4.98-4.856c0-.021-.005-.065-.005-.087-.62-1.63-1.245-3.256-1.86-4.887a.127.127 0 0 0-.043.01c-.587 1.55-1.196 3.1-1.789 4.65-.032.102-.103.2-.087.314 1.262-.01 2.523-.01 3.784 0z"/></g></g></g></svg>