<svg xmlns="http://www.w3.org/2000/svg" width="320" height="320" viewBox="0 0 320 320"><defs><clipPath id="272pa"><path fill="#fff" d="M0 160C0 71.634 71.634 0 160 0s160 71.634 160 160-71.634 160-160 160S0 248.366 0 160z"/></clipPath></defs><g><g><g><path fill="none" stroke="#634137" stroke-miterlimit="20" stroke-opacity=".4" stroke-width="2" d="M0 160C0 71.634 71.634 0 160 0h0c88.366 0 160 71.634 160 160v0c0 88.366-71.634 160-160 160h0C71.634 320 0 248.366 0 160z" clip-path="url(&quot;#272pa&quot;)"/></g></g><g><g><g><path fill="#fff" d="M181.502 179.352h-18.606l-.258-14.73c0-3.36 3.36-4.78 5.426-5.944l19.411-10.144a1.92 1.92 0 0 0-1.663-3.459l-27.309 14.379.259 19.898h-11.629l-.258-18.348-12.792 18.348H120L151.526 134h14.083l-10.594 14.988 26.122-13.652c1.666-.855 4.32-1.336 6.309-1.336 6.862 0 12.554 4.952 12.554 12.016 0 4.784-1.13 8.568-4.91 10.761l-21.599 11.333h15.893zm13.515 4.42c0 1.783-1.432 3.084-3.109 3.084-1.693 0-3.125-1.301-3.125-3.084 0-1.766 1.432-3.068 3.125-3.068 1.677 0 3.109 1.302 3.109 3.068zm-3.114-2.547c-1.408 0-2.501 1.09-2.501 2.547 0 1.48 1.099 2.572 2.506 2.572 1.392 0 2.491-1.091 2.491-2.572 0-1.457-1.099-2.556-2.491-2.556z"/></g><g><path fill="#fff" d="M191.257 185.56h-.537v-3.55h1.35c.839 0 1.254.31 1.254 1.01 0 .635-.398.91-.92.976l1.01 1.563h-.602l-.936-1.538h-.619zm0-1.995h.643c.456 0 .863-.033.863-.578 0-.439-.4-.52-.773-.52h-.733z"/></g></g></g></g></svg>