<svg xmlns="http://www.w3.org/2000/svg" width="478" height="393" viewBox="0 0 478 393"><defs><radialGradient id="s2vka" cx="275" cy="196" r="279" gradientUnits="userSpaceOnUse"><stop offset="0" stop-color="#072fbe"/><stop offset=".71" stop-color="#072fbe" stop-opacity="0"/></radialGradient><linearGradient id="s2vkb" x1="269.43" x2="350.49" y1="213.81" y2="260.52" gradientUnits="userSpaceOnUse"><stop offset="0" stop-color="#c0bff6"/><stop offset=".29" stop-color="#c5c4f7"/><stop offset=".64" stop-color="#d3d2f9"/><stop offset="1" stop-color="#e9e9fd"/></linearGradient><linearGradient id="s2vkc" x1="244.02" x2="329.62" y1="236.07" y2="236.07" gradientUnits="userSpaceOnUse"><stop offset=".35" stop-color="#bcbeff"/><stop offset=".44" stop-color="#b5b8fc"/><stop offset=".57" stop-color="#a3a7f5"/><stop offset=".72" stop-color="#848be9"/><stop offset=".88" stop-color="#5a64d8"/><stop offset=".89" stop-color="#5761d7"/></linearGradient><linearGradient id="s2vkd" x1="217.58" x2="328.37" y1="236.07" y2="236.07" gradientUnits="userSpaceOnUse"><stop offset="0" stop-color="#2fd3c7"/><stop offset=".09" stop-color="#31b6bd"/><stop offset=".23" stop-color="#338db0"/><stop offset=".37" stop-color="#356ba5"/><stop offset=".52" stop-color="#37519c"/><stop offset=".67" stop-color="#383f96"/><stop offset=".83" stop-color="#393492"/><stop offset="1" stop-color="#393091"/></linearGradient><linearGradient id="s2vke" x1="267.86" x2="352.05" y1="196.99" y2="245.49" gradientUnits="userSpaceOnUse"><stop offset="0" stop-color="#e9e9fd"/><stop offset=".36" stop-color="#d3d2f9"/><stop offset=".71" stop-color="#c5c4f7"/><stop offset="1" stop-color="#c0bff6"/></linearGradient><linearGradient id="s2vkf" x1="267.86" x2="352.05" y1="196.99" y2="245.49" gradientUnits="userSpaceOnUse"><stop offset="0" stop-color="#2fd3c7"/><stop offset=".09" stop-color="#31b6bd"/><stop offset=".23" stop-color="#338db0"/><stop offset=".37" stop-color="#356ba5"/><stop offset=".52" stop-color="#37519c"/><stop offset=".67" stop-color="#383f96"/><stop offset=".83" stop-color="#393492"/><stop offset="1" stop-color="#393091"/></linearGradient><linearGradient id="s2vkg" x1="145.53" x2="312.03" y1="107.49" y2="107.49" gradientUnits="userSpaceOnUse"><stop offset="0" stop-color="#2fd3c7"/><stop offset=".09" stop-color="#31b6bd"/><stop offset=".23" stop-color="#338db0"/><stop offset=".37" stop-color="#356ba5"/><stop offset=".52" stop-color="#37519c"/><stop offset=".67" stop-color="#383f96"/><stop offset=".83" stop-color="#393492"/><stop offset="1" stop-color="#393091"/></linearGradient><linearGradient id="s2vkh" x1="145.53" x2="174.12" y1="150.1" y2="150.1" gradientUnits="userSpaceOnUse"><stop offset="0" stop-color="#2fd3c7"/><stop offset=".09" stop-color="#31b6bd"/><stop offset=".23" stop-color="#338db0"/><stop offset=".37" stop-color="#356ba5"/><stop offset=".52" stop-color="#37519c"/><stop offset=".67" stop-color="#383f96"/><stop offset=".83" stop-color="#393492"/><stop offset="1" stop-color="#393091"/></linearGradient><linearGradient id="s2vki" x1="285.31" x2="108.21" y1="1.75" y2="349.14" gradientUnits="userSpaceOnUse"><stop offset="0" stop-color="#2fd3c7"/><stop offset=".09" stop-color="#31b6bd"/><stop offset=".23" stop-color="#338db0"/><stop offset=".37" stop-color="#356ba5"/><stop offset=".52" stop-color="#37519c"/><stop offset=".67" stop-color="#383f96"/><stop offset=".83" stop-color="#393492"/><stop offset="1" stop-color="#393091"/></linearGradient><linearGradient id="s2vkj" x1="316.11" x2="332.63" y1="192.75" y2="192.75" gradientUnits="userSpaceOnUse"><stop offset="0" stop-color="#5761d7"/><stop offset=".07" stop-color="#5472d8"/><stop offset=".28" stop-color="#4e9cdb"/><stop offset=".48" stop-color="#49bddd"/><stop offset=".67" stop-color="#45d5df"/><stop offset=".85" stop-color="#43e3e0"/><stop offset="1" stop-color="#42e8e0"/></linearGradient><linearGradient id="s2vkk" x1="333.96" x2="336.33" y1="60.97" y2="60.97" gradientUnits="userSpaceOnUse"><stop offset="0" stop-color="#5761d7"/><stop offset=".07" stop-color="#5472d8"/><stop offset=".28" stop-color="#4e9cdb"/><stop offset=".48" stop-color="#49bddd"/><stop offset=".67" stop-color="#45d5df"/><stop offset=".85" stop-color="#43e3e0"/><stop offset="1" stop-color="#42e8e0"/></linearGradient><linearGradient id="s2vkl" x1="299.22" x2="339.55" y1="145.07" y2="145.07" gradientUnits="userSpaceOnUse"><stop offset="0" stop-color="#5761d7"/><stop offset=".07" stop-color="#5472d8"/><stop offset=".28" stop-color="#4e9cdb"/><stop offset=".48" stop-color="#49bddd"/><stop offset=".67" stop-color="#45d5df"/><stop offset=".85" stop-color="#43e3e0"/><stop offset="1" stop-color="#42e8e0"/></linearGradient><linearGradient id="s2vkm" x1="337.18" x2="346.37" y1="97.33" y2="97.33" gradientUnits="userSpaceOnUse"><stop offset="0" stop-color="#5761d7"/><stop offset=".07" stop-color="#5472d8"/><stop offset=".28" stop-color="#4e9cdb"/><stop offset=".48" stop-color="#49bddd"/><stop offset=".67" stop-color="#45d5df"/><stop offset=".85" stop-color="#43e3e0"/><stop offset="1" stop-color="#42e8e0"/></linearGradient><linearGradient id="s2vkn" x1="309.27" x2="337.98" y1="51.3" y2="51.3" gradientUnits="userSpaceOnUse"><stop offset="0" stop-color="#2fd3c7"/><stop offset=".09" stop-color="#31b6bd"/><stop offset=".23" stop-color="#338db0"/><stop offset=".37" stop-color="#356ba5"/><stop offset=".52" stop-color="#37519c"/><stop offset=".67" stop-color="#383f96"/><stop offset=".83" stop-color="#393492"/><stop offset="1" stop-color="#393091"/></linearGradient><linearGradient id="s2vko" x1="278.28" x2="310.87" y1="183.06" y2="183.06" gradientUnits="userSpaceOnUse"><stop offset="0" stop-color="#5761d7"/><stop offset=".07" stop-color="#5472d8"/><stop offset=".28" stop-color="#4e9cdb"/><stop offset=".48" stop-color="#49bddd"/><stop offset=".67" stop-color="#45d5df"/><stop offset=".85" stop-color="#43e3e0"/><stop offset="1" stop-color="#42e8e0"/></linearGradient><linearGradient id="s2vkp" x1="296.5" x2="300.63" y1="171.09" y2="171.09" gradientUnits="userSpaceOnUse"><stop offset="0" stop-color="#5761d7"/><stop offset=".07" stop-color="#5472d8"/><stop offset=".28" stop-color="#4e9cdb"/><stop offset=".48" stop-color="#49bddd"/><stop offset=".67" stop-color="#45d5df"/><stop offset=".85" stop-color="#43e3e0"/><stop offset="1" stop-color="#42e8e0"/></linearGradient><linearGradient id="s2vkq" x1="288.62" x2="292.74" y1="163.03" y2="163.03" gradientUnits="userSpaceOnUse"><stop offset="0" stop-color="#5761d7"/><stop offset=".07" stop-color="#5472d8"/><stop offset=".28" stop-color="#4e9cdb"/><stop offset=".48" stop-color="#49bddd"/><stop offset=".67" stop-color="#45d5df"/><stop offset=".85" stop-color="#43e3e0"/><stop offset="1" stop-color="#42e8e0"/></linearGradient><linearGradient id="s2vkr" x1="296.5" x2="326.81" y1="127.12" y2="127.12" gradientUnits="userSpaceOnUse"><stop offset="0" stop-color="#5761d7"/><stop offset=".07" stop-color="#5472d8"/><stop offset=".28" stop-color="#4e9cdb"/><stop offset=".48" stop-color="#49bddd"/><stop offset=".67" stop-color="#45d5df"/><stop offset=".85" stop-color="#43e3e0"/><stop offset="1" stop-color="#42e8e0"/></linearGradient></defs><g><g><g/><g opacity=".2"><path fill="url(#s2vka)" d="M554 196c0 154.087-124.913 279-279 279S-4 350.087-4 196 120.913-83 275-83 554 41.913 554 196z"/></g><g><g><g><g><path fill="#42ace8" d="M309.056 301.24c-1.094 0-2.189-.274-2.872-.683L228.09 255.24c-.82-.41-1.231-1.092-1.231-1.91 0-.82.684-1.775 1.778-2.321l78.503-45.317c1.915-1.092 4.923-1.229 6.701-.273l78.093 45.317c.821.41 1.231 1.092 1.231 1.91 0 .82-.684 1.775-1.778 2.321l-78.503 45.317c-1.094.546-2.462.955-3.83.955zm-2.599-1.23c1.505.82 4.24.82 6.018-.272l78.503-45.317c.82-.546 1.367-1.092 1.367-1.774 0-.546-.273-.956-.957-1.365l-78.093-45.317c-1.504-.819-4.24-.819-6.017.273l-78.503 45.317c-.82.546-1.368 1.228-1.368 1.774s.274.956.957 1.365z"/></g><g><g><path fill="url(#s2vkb)" d="M306.044 282.815l-75.084-43.542c-1.641-.956-1.368-2.457.41-3.55l76.315-43.951c1.778-1.092 4.513-1.229 6.154-.273l75.084 43.542c1.641.956 1.368 2.457-.41 3.55l-76.315 43.951c-1.778 1.092-4.513 1.228-6.154.273z"/></g></g><g opacity=".4"><path fill="#42ace8" d="M392.752 230.942l-26.806-1.774-52.38-30.439c-1.642-.956-4.514-.819-6.292.273L248.33 232.99l-21.199-1.365v14.741c0 .546.274 1.229 1.094 1.638l78.093 45.317c1.64.955 4.513.819 6.29-.273l78.504-45.317c.957-.546 1.504-1.365 1.504-2.047v-14.742z"/></g><g><path fill="url(#s2vkc)" d="M392.752 221.112l-26.806-1.774-52.38-30.439c-1.642-.956-4.514-.819-6.292.273l-58.945 33.987-21.199-1.364v14.741c0 .546.274 1.229 1.094 1.638l78.093 45.317c1.64.956 4.513.819 6.29-.273l78.504-45.317c.957-.546 1.504-1.365 1.504-2.047v-14.742z"/></g><g><path fill="url(#s2vkd)" d="M392.752 221.112l-26.806-1.774-52.38-30.439c-1.642-.956-4.514-.819-6.292.273l-58.945 33.987-21.199-1.364v14.741c0 .546.274 1.229 1.094 1.638l78.093 45.317c1.64.956 4.513.819 6.29-.273l78.504-45.317c.957-.546 1.504-1.365 1.504-2.047v-14.742z"/></g><g><path fill="url(#s2vke)" d="M306.313 268.481l-78.093-45.317c-1.641-.955-1.368-2.593.41-3.685l78.503-45.317c1.915-1.092 4.65-1.229 6.291-.273l78.093 45.317c1.641.955 1.368 2.593-.41 3.685l-78.503 45.317c-1.778 1.092-4.65 1.228-6.292.273z"/></g><g><path fill="url(#s2vkf)" d="M306.313 268.481l-78.093-45.317c-1.641-.955-1.368-2.593.41-3.685l78.503-45.317c1.915-1.092 4.65-1.229 6.291-.273l78.093 45.317c1.641.955 1.368 2.593-.41 3.685l-78.503 45.317c-1.778 1.092-4.65 1.228-6.292.273z"/></g><g><path fill="#fff" d="M391.245 221.525l-78.503 45.317c-1.914 1.092-4.65 1.228-6.29.273l-78.094-45.317c-.41-.273-.82-.546-.957-.956-.41.82-.137 1.638.957 2.32l78.093 45.318c1.641.955 4.513.819 6.291-.273l78.503-45.317c1.368-.819 1.778-1.775 1.368-2.73-.274.546-.684 1.092-1.368 1.365z"/></g></g></g></g><g opacity=".3"><path fill="#160a5b" d="M310.829 239.819c19.638 0 35.559-9.167 35.559-20.475 0-11.307-15.92-20.474-35.56-20.474-19.638 0-35.558 9.167-35.558 20.474 0 11.308 15.92 20.475 35.559 20.475z"/></g><g><path fill="#42ace8" d="M261.738 194.63l-132.662-76.438H49.889L-.03 89.392V42.71h.82v46.136l49.373 28.527h79.186l132.799 76.575z"/></g><g><path fill="#42ace8" d="M277.594 185.493l-134.713-77.666V61.691L94.74 33.982l.41-.682 48.552 27.982v46.136l134.303 77.393z"/></g><g><path fill="#42ace8" d="M105.136 187.537c1.504.82 3.83.82 5.197 0 1.504-.819 1.504-2.184 0-3.003-1.505-.819-3.83-.819-5.197 0-1.368.82-1.368 2.184 0 3.003z"/></g><g><path fill="#42ace8" d="M92.286 35.067c1.504.82 3.83.82 5.197 0 1.504-.819 1.504-2.184 0-3.003-1.505-.819-3.83-.819-5.197 0-1.368.82-1.368 2.184 0 3.003z"/></g><g><path fill="#42ace8" d="M108.01 186.311l-.41-.682 43.218-24.979h29.54v.136l38.158 21.976h24.071v.82h-24.208l-.136-.137-38.158-21.976h-28.994z"/></g><g><g><g><g><g><g><g><path fill="url(#s2vkg)" d="M312.064 117.785l-18.053-106.74 1.505-.546-2.189-1.229c-.41-.273-.957-.273-1.641.137L147.4 92.397c-1.231.682-2.052 2.457-1.915 3.685l18.19 107.696c.136.546.41.955.82 1.092l2.188 1.228.41-2.047h-.136l143.329-82.581c1.094-.682 1.915-2.457 1.778-3.685z"/></g><g><path fill="url(#s2vkh)" d="M148.222 95.262l-2.325-1.092c-.273.546-.41 1.228-.273 1.774l18.19 107.696c.136.546.41.956.82 1.092l2.188 1.229.41-2.048h-.136l7.248-4.231z"/></g><g><path fill="#24126a" d="M312.335 122.834l-144.013 82.989c-1.094.683-2.052.273-2.325-.819l-18.19-107.695c-.274-1.229.684-3.003 1.915-3.686l144.15-82.99c1.094-.682 2.051-.272 2.325.82l18.189 107.695c.137 1.229-.82 3.003-2.051 3.686z"/></g><g opacity=".51"><g opacity=".26"><path fill="#453c9e" d="M294.284 12.55L149.45 95.95l18.326 107.968 144.698-83.399z"/></g></g><g opacity=".6"><g opacity=".36"><path fill="url(#s2vki)" d="M294.284 12.55L149.45 95.95l18.326 107.968 144.698-83.399z"/></g></g></g></g></g></g><g><g><path fill="#42ace8" d="M173.935 101.273c-.274 0-.41 0-.684-.136-.41-.137-.82-.546-.82-1.092-.274-1.092.41-2.457 1.504-3.14.547-.273 1.23-.41 1.64-.136.411.136.821.546.821 1.092.274 1.092-.41 2.457-1.504 3.14-.273.136-.547.272-.957.272zm-.958-1.365c.137.41.274.683.547.82.41.136.821.136 1.231-.137.958-.546 1.505-1.638 1.231-2.594-.137-.41-.273-.682-.547-.819-.41-.136-.82-.136-1.23.137-.958.546-1.505 1.638-1.232 2.593z"/></g><g><path fill="#42ace8" d="M168.185 104.543c-.274 0-.41 0-.684-.136-.41-.137-.82-.546-.82-1.092-.274-1.092.41-2.457 1.504-3.14.547-.273 1.23-.41 1.64-.136.411.136.821.546.821 1.092.274 1.092-.41 2.457-1.504 3.14-.273.136-.684.272-.957.272zm-1.094-1.365c.136.41.273.683.547.82.41.136.82.136 1.23-.137.958-.546 1.505-1.638 1.231-2.594-.136-.41-.273-.682-.547-.819-.41-.136-.82-.136-1.23.137-.821.546-1.368 1.774-1.231 2.593z"/></g><g><path fill="#42ace8" d="M161.07 106.591c.274.955 1.232 1.365 2.189.819.957-.546 1.641-1.911 1.368-2.866-.274-.956-1.231-1.365-2.189-.82-.957.547-1.504 1.911-1.367 2.867z"/></g></g><g><path fill="#42ace8" d="M271.714 43.126l3.145-1.775-.273-1.501-3.146 1.774z"/></g><g><path fill="#42ace8" d="M267.204 45.716l3.145-1.775-.273-1.501-3.146 1.774z"/></g><g><path fill="#42ace8" d="M276.097 40.533l6.838-3.958-.274-1.365-6.701 3.958z"/></g></g></g><g><g><g><path fill="#160a5b" d="M310.15 218.52s-3.555.546-6.838.273c-3.282-.273-12.445.682-12.582 4.095 0 3.412 4.24 8.872 10.12 10.237 5.882 1.365 13.677.41 17.507.956 3.829.546 6.838-3.276 5.607-7.235-1.231-3.822-13.813-8.326-13.813-8.326z"/></g><g><path fill="#160a5b" d="M330.803 211.422s1.094 2.184.41 3.413c-.684 1.228-2.598 4.231-7.795.546-5.197-3.55-15.181-9.01-15.181-9.01s-5.744-3.821-5.06-7.506c.683-3.686 6.017-2.594 6.017-2.594z"/></g><g><path fill="#24126a" d="M300.03 154.366s.274 24.57 4.513 34.397c4.24 9.965 4.24 27.436 4.924 30.849.82 3.412 3.556 8.599 8.616 10.1 5.06 1.502 6.154-1.91 6.018-3.958-.137-2.184-1.231-5.733-1.095-7.917.137-2.32.821-3.276.958-4.368 0 0 5.744 2.32 6.975-2.184 0 0-.41-1.365-.41-2.047 0-.682 1.777-17.062 2.051-19.11.274-1.91 0-12.83-1.094-18.29-1.231-5.323.137-16.38.137-16.38l-16.275-3.958z"/></g><g><path fill="url(#s2vkj)" d="M331.348 172.11c-1.231-5.324.136-16.38.136-16.38l-1.367-.41c-.137 1.501-1.231 11.193-.137 16.243 1.23 5.46 1.368 16.243 1.094 18.29-.273 1.911-2.188 18.428-2.188 19.11 0 .683.41 2.048.41 2.048-1.23 4.504-6.975 2.184-6.975 2.184-.137 1.091-.82 2.047-.957 4.23-.137 2.321.957 5.87 1.094 7.918.137 2.184-.957 5.596-6.018 3.958-.136 0-.273-.136-.41-.136.547.273 1.23.682 1.915.819 5.06 1.501 6.154-1.911 6.017-3.959-.136-2.184-1.23-5.733-1.094-7.917.137-2.32.82-3.412.958-4.504 0 0 5.607 2.593 6.838-1.911 0 0-.41-1.365-.41-2.047 0-.683 1.777-17.062 2.051-19.11.547-2.184.273-12.967-.957-18.427z"/></g><g><path fill="#160a5b" d="M326.56 156.958s-.41 3.822-2.188 6.825c0 0-.957 12.967-2.872 19.52 0 0 1.094 13.512 2.188 17.744 1.094 4.368.274 12.557.274 12.557s.684.273 1.641.41c.957.136 2.325-16.107 1.094-19.246-1.23-3.003-1.368-15.834-.547-19.519.82-3.822 1.504-14.742 2.325-16.516.82-1.911-.684-3.003-.684-3.003z"/></g><g><path fill="#160a5b" d="M319.587 68.38s-5.06 3.003-5.197 8.872l3.556-.41c0 .137-.547-6.551 1.641-8.462z"/></g><g><path fill="#160a5b" d="M314.113 161.058c10.805 1.365 17.096-2.866 17.096-2.866.137-1.502.274-2.594.274-2.594l-16.275-3.958-15.318 2.73s0 4.777.547 11.056c2.599.546 5.744-5.733 5.744-5.733l7.385 1.229c.137 0-10.257-1.365.547.136z"/></g><g><path fill="#453c9e" d="M302.079 155.056s22.84 12.148 35.832-5.324c.41-.546.547-1.092.547-1.774l.137-4.368c0-.546.137-1.092.41-1.638.41-1.092.684-2.184.547-3.412-.547-4.914-1.914-18.154-2.188-21.84-.41-4.504 3.282-21.84 7.796-29.073 4.376-7.098-4.24-24.843-4.24-24.843s-2.188-4.095-6.975-3.276c0 0 4.24 3.55 1.504 6.689-2.735 3.139-10.394 5.187-10.394 5.187s-14.223 5.869-19.694 14.059c0 0-1.915 4.368-2.598 10.1-.547 5.733-1.094 19.792-1.505 21.703-.41 1.911-2.188 15.151-2.188 15.834.137.682 3.009 21.976 3.009 21.976z"/></g><g><g><path fill="url(#s2vkk)" d="M336.001 62.372c.41-.955.41-1.774.137-2.73-.684-.136-1.367-.136-2.188 0 0 .137 1.368 1.229 2.051 2.73z"/></g><g><path fill="#24126a" d="M309.052 157.644s16.822-36.444 17.232-50.23c.41-13.377-22.43 25.115-22.43 25.115l-1.914 22.386c.137.136 4.513 2.184 7.112 2.73z"/></g><g><path fill="url(#s2vkl)" d="M338.872 138.26c-.274.547-.274.956-.41 1.502l-.137 4.232c0 .682-.274 1.228-.547 1.774-12.856 17.199-35.696 5.187-35.696 5.187s-2.051-15.151-2.599-20.065c-.136 1.228-.273 2.047-.273 2.184 0 .682 2.872 21.84 2.872 21.84s22.84 12.148 35.832-5.324c.41-.546.547-1.092.547-1.774l.137-4.368c0-.546.137-1.092.41-1.638.41-1.092.684-2.184.548-3.413 0-.546-.137-1.092-.137-1.774-.137.682-.274 1.228-.547 1.638z"/></g><g><path fill="url(#s2vkm)" d="M345.027 84.344c-4.513 7.235-8.206 24.433-7.796 28.801 0 .41.137.956.137 1.638.41-6.279 3.83-20.61 7.796-27.026 1.23-2.048 1.367-4.914 1.094-7.917-.137 1.774-.547 3.276-1.231 4.504z"/></g></g><g><path fill="#4846a5" d="M305.089 112.324c.684-3.003 1.23-6.006 1.504-9.146.547-5.323 2.735-14.059 12.172-11.602 13.403 3.413 6.155 22.113 4.377 25.252-1.778 3.276-8.89 17.881-9.3 18.7-.41.819-11.352 18.973-15.044 23.204-.41.41-.821.41-1.231 0-1.231-1.365-4.103-4.367-4.377-6.278-.273-2.32 2.325-10.374 2.325-10.374s6.975-20.065 7.522-20.884c.41-.682.958-3.958 2.052-8.872z"/></g><g><path fill="url(#s2vkn)" d="M319.72 68.926s-.82-2.593-3.418-3.003c-2.462-.546-3.83-1.365-3.966-2.184-.137-.955-.137-2.047-.547-3.412-.548-1.365-.684-4.777-.684-4.914 0-.136-1.778-.819-1.915-1.638 0-.819 1.23-3.685 1.094-3.958-.137-.273-.957-2.184-.684-3.55.274-1.364.547-3.412 1.505-5.05.82-1.638 6.975-11.602 20.24-5.05 13.404 6.688 2.052 17.335 2.736 24.979 0 0 1.094 1.638-1.368 4.231-2.461 2.32-9.026 2.32-12.992 3.55z"/></g><g><path fill="#24126a" d="M332.854 65.102c2.462-2.457 1.368-4.231 1.368-4.231-.137-1.092 0-2.184.273-3.412l-5.47.546s-7.522-7.78-7.249-3.959c.274 3.959-1.778 4.368-1.778 4.368l1.505 2.184c.41.546.136 1.228-.274 1.774-2.598 3.686-8.069 2.048-8.069 2.048.684.546 1.778.955 3.282 1.228 2.462.546 3.42 3.003 3.42 3.003 3.829-.955 10.394-.955 12.992-3.549z"/></g><g><g><path fill="#453c9e" d="M310.834 36.985s-1.23 2.73.274 4.095a88.877 88.877 0 0 1 2.735 2.593l-.273 3.549c0 .546 0 1.092.273 1.501l1.778 3.14c.274.682.547 1.365.41 2.047l-.137 1.502c0 .41.274.819.684.955l.547.137c.41.136.821-.273.958-.683l.41-2.047s1.094-1.502 3.282.546l1.915.955a2.17 2.17 0 0 1 1.094 1.365c.41 1.638 1.368 4.778 2.325 5.46 1.231.82 6.155-1.228 6.838-2.184.684-1.092 2.872-8.053 4.103-11.466 1.231-3.276 1.368-11.875-8.753-14.878-9.847-3.276-16.822.41-18.463 3.413z"/></g><g opacity=".3"><path fill="#160a5b" d="M333.948 59.781c.684-1.092 2.872-8.053 4.103-11.466 0 0-4.103 2.32-9.3 2.594-5.197.273-14.907-6.279-14.907-6.279l-.274 2.593c0 .546 0 1.092.274 1.502l1.777 3.14c.274.682.548 1.364.41 2.047l-.136 1.501c0 .41.274.82.684.956l.547.136c.41.137.82-.273.957-.682l.41-2.048s1.095-1.501 3.283.546l2.872 1.502s1.368 5.596 2.599 6.279c1.094.682 6.017-1.365 6.7-2.32z"/></g></g><g><path fill="#f0f6ff" d="M334.084 60.05s3.83 2.866 1.504 6.142c-2.325 3.276-17.232 8.19-17.916 9.146 0 0-.137-5.324 1.915-6.825 0 0 11.214-1.092 13.129-3.822 1.915-2.73 1.368-4.641 1.368-4.641z"/></g><g><path fill="#24126a" d="M335.993 71.52s-6.702 3.14-9.984 4.504c-3.282 1.365-6.838 3.276-6.838 3.276l-1.094-1.365-1.641 3.003s-5.197 2.457-7.66 4.778c-2.461 2.32-4.512 5.323-4.786 6.142 0 0 6.838-7.507 11.898-9.418l1.368-.546.958-2.457 1.094 1.365c-.274-.137 14.497-7.371 16.685-9.282z"/></g></g><g><g><path fill="url(#s2vko)" d="M310.699 180.027c-.137-.546-.41-1.228-.82-1.501l-24.755-25.252c-.684-.683-1.368-.273-1.641.819l-5.197 25.934c-.274 1.228.136 2.73.82 3.412l20.789 21.976-1.368 7.644 6.975-2.457c.273-.136.547-.546.684-1.228l4.65-27.436c.137-.546 0-1.229-.137-1.911z"/></g><g><path fill="#453c9e" d="M277.74 155.187l6.428-2.047h.273c.274 0 .548 0 .684.273l24.755 25.252c.273.41.547.955.82 1.501l-.957.41-5.607 2.047-21.61-22.522z"/></g><g><path fill="#24126a" d="M272.398 185.902l25.301 26.89c.684.683 1.504.273 1.641-.955l4.924-27.573c.273-1.228-.137-2.73-.82-3.412l-24.619-25.388c-.683-.683-1.367-.273-1.64.819l-5.471 26.07c-.41 1.229 0 2.867.684 3.55z"/></g><g><path fill="#160a5b" d="M302.765 210.467l4.787-27.436c.274-1.229-.137-2.73-.82-3.413l-24.755-25.251c-.137-.273-.41-.273-.547-.273.274-.137.547 0 .82.273l24.755 25.251c.684.683 1.094 2.184.82 3.413l-4.786 27.436c-.137.819-.547 1.364-.958 1.364.274-.136.548-.545.684-1.364z"/></g><g><g><g><path fill="#160a5b" d="M296.334 168.832l1.505-.546c.273-.136.684-.136.82-.136h.137c.137 0 .137.137.137.41v.272l-4.103 1.638v-.273c0-.273.137-.41.41-.546l.137-.136c.274-.41.547-.546.957-.683z"/></g><g><path fill="#160a5b" d="M296.468 172.248l-1.778-1.774 4.103-2.184 1.778 1.774z"/></g><g><path fill="url(#s2vkp)" d="M297.974 170.612l1.505-.545c.273-.137.684-.137.82-.137h.137c.137 0 .137.137.137.41v.273l-4.103 1.637v-.273c0-.273.137-.409.41-.682l.137-.137c.274-.273.684-.409.957-.545z"/></g><g><path fill="#722318" d="M298.797 171.292l.273-1.092h-.136l-.274 1.228z"/></g><g><path fill="#722318" d="M299.075 170.204l-1.915-1.774 1.778 1.774z"/></g></g><g><g><path fill="#160a5b" d="M288.404 160.788l1.505-.546c.273-.136.684-.136.82 0h.137c.137 0 .137.137.137.41v.273l-4.103 1.501v-.273c0-.273.137-.41.41-.546l.137-.136c.274-.273.684-.546.957-.683z"/></g><g><path fill="#160a5b" d="M288.678 164.198l-1.778-1.774 4.103-2.184 1.641 1.774z"/></g><g><path fill="url(#s2vkq)" d="M290.184 162.558l1.505-.546c.273-.136.684-.136.82 0h.137c.137 0 .137.137.137.41v.273l-4.103 1.501v-.273c0-.273.137-.41.41-.546l.137-.136c.274-.41.547-.546.957-.683z"/></g><g><path fill="#722318" d="M290.867 163.242l.273-1.092h-.136l-.274 1.228z"/></g><g><path fill="#722318" d="M291.135 162.144l-1.778-1.774-.137.137 1.778 1.637z"/></g></g><g><g><path fill="#453c9e" d="M300.16 164.741l-.957 4.914-1.23-1.228.82-4.778c.137-.682-.137-1.638-.547-2.047l-5.06-5.05c-.41-.41-.958-.274-1.095.409l-.957 4.64-1.094-1.228.957-4.777c.274-1.502 1.368-1.911 2.325-.82l5.334 5.46c1.231.956 1.778 3.004 1.504 4.505z"/></g><g><path fill="#453c9e" d="M291.55 156.01h2.188l6.018 6.688v3.822l-.41 3.14-1.505.546.274-3.959.136-2.73-1.23-2.047-2.325-2.32c0 .136-3.146-3.14-3.146-3.14z"/></g><g><path fill="#453c9e" d="M289.91 162.148l1.504-.546.684-3.412h-1.777z"/></g><g><path fill="#453c9e" d="M290.59 154.916l1.641-.546s-.41.819-.547.819l-.547.137z"/></g><g><path fill="#160a5b" d="M298.66 165.421l-.957 4.914-1.23-1.228.82-4.778c.137-.682-.137-1.638-.547-2.047l-5.06-5.05c-.41-.41-.958-.274-1.095.409l-.957 4.64-1.094-1.228.957-4.777c.274-1.502 1.368-1.911 2.325-.82l5.334 5.46c1.231.82 1.778 2.867 1.505 4.505z"/></g></g></g></g><g><path fill="#453c9e" d="M293.6 152.46s-1.367 4.64-1.094 5.87c.137 1.228 2.188 3.821 3.556 4.367 1.368.546.957-1.092 1.23-2.184.411-.955.548-3.276.548-3.276z"/></g><g><path fill="#24126a" d="M297.837 157.234l-4.24-4.914s-.273.955-.547 2.184c0 0 1.368 3.685 4.376 5.46.41-1.092.41-2.73.41-2.73z"/></g><g><path fill="#4846a5" d="M293.33 152.735s1.23 5.324 5.197 6.143l-.957-5.733-3.42-1.365c-.136 0-.82.955-.82.955z"/></g><g><path fill="url(#s2vkr)" d="M324.644 95.13c2.872 11.875-8.07 29.074-9.847 34.124-1.778 5.187-18.19 28.391-18.19 28.391-.137.137-.137.273-.137.273.274.273.684.546.957.683.41.136.137.136.684.273.274.136.684 0 .82-.273 3.693-4.232 14.635-22.386 15.045-23.205.41-.819 7.522-15.56 9.3-18.7 1.368-2.457 6.428-15.014 1.368-21.566z"/></g></g><g><g opacity=".15"><g opacity=".02"/><g opacity=".02"><g opacity=".01"><path fill="#1f0099" d="M453.07 272.306l-14.77-8.463 14.77-8.463 14.634 8.463z"/></g></g><g opacity=".02"><g opacity=".01"><path fill="#1f0099" d="M453.07 261.386l-14.77-8.463 14.77-8.463 14.634 8.463z"/></g></g></g><g><g opacity=".1"><path fill="#03002d" d="M453.07 243.369l-17.37-9.965 17.37-9.964 17.231 9.964z"/></g><g><path fill="#42ace8" d="M453.071 247.598l-24.891-14.196.137-.136 24.617-14.196 24.755 14.196-.137.136zm-24.344-14.196l24.344 14.06 24.344-14.06-24.344-14.059z"/></g><g><g><path fill="#42ace8" d="M453.07 221.114l-17.37-9.964v7.098l17.37 9.964 17.231-9.964v-7.098z"/></g><g><path fill="#42ace8" d="M453.07 228.212l-17.37-9.964v-7.098l17.37 9.964z"/></g><g><path fill="#2f84d3" d="M470.302 218.248l-17.232 9.964v-7.098l17.232-9.964z"/></g><g><path fill="#42ace8" d="M453.07 221.119l-17.37-9.965 17.37-9.964 17.231 9.964z"/></g><g><path fill="#fff" d="M453.07 221.114l-17.37-9.964v.819l17.37 9.964 17.231-9.964v-.819z"/></g></g><g><g opacity=".6"><path fill="#1f0099" d="M453.07 219.616l-14.77-8.463 14.77-8.463 14.634 8.463z"/></g><g><g><path fill="#42ace8" d="M453.07 210.33l-17.37-10.1v7.098l17.37 9.964 17.231-9.964v-7.098z"/></g><g><path fill="#42ace8" d="M453.07 217.292l-17.37-9.964v-7.098l17.37 10.1z"/></g><g><path fill="#2f84d3" d="M470.302 207.328l-17.232 9.964v-6.961l17.232-10.101z"/></g><g><path fill="#42ace8" d="M453.07 210.335l-17.37-10.1 17.37-9.965 17.231 9.964z"/></g><g><path fill="#fff" d="M453.07 210.33l-17.37-10.1v.955l17.37 9.965 17.231-9.965v-.955z"/></g></g></g><g><g opacity=".6"><path fill="#1f0099" d="M453.07 208.832l-14.77-8.6 14.77-8.462 14.634 8.463z"/></g><g><g><path fill="#42ace8" d="M453.07 199.414l-17.37-9.964v7.098l17.37 9.964 17.231-9.964v-7.098z"/></g><g><path fill="#42ace8" d="M453.07 206.512l-17.37-9.964v-7.098l17.37 9.964z"/></g><g><path fill="#2f84d3" d="M470.302 196.548l-17.232 9.964v-7.098l17.232-9.964z"/></g><g><path fill="#42ace8" d="M453.07 199.409l-17.37-9.965 17.37-9.964 17.231 9.964z"/></g><g><path fill="#fff" d="M453.07 199.414l-17.37-9.964v.819l17.37 9.964 17.231-9.964v-.819z"/></g></g></g></g></g><g><g opacity=".15"><g opacity=".02"/><g opacity=".02"><g opacity=".01"><path fill="#1f0099" d="M129.89 278.312l-14.77-8.6 14.77-8.462 14.771 8.463z"/></g></g><g opacity=".02"><g opacity=".01"><path fill="#1f0099" d="M129.89 267.392l-14.77-8.463 14.77-8.599 14.771 8.6z"/></g></g></g><g><g opacity=".1"><path fill="#03002d" d="M129.89 249.238l-17.37-9.964 17.37-9.964 17.232 9.964z"/></g><g><path fill="#42ace8" d="M129.894 253.604l-24.754-14.332.137-.136 24.617-14.196 24.755 14.196-.137.136zm-24.344-14.332l24.344 14.06 24.344-14.06-24.344-14.059z"/></g><g><g><path fill="#42ace8" d="M129.89 226.984l-17.37-9.964v7.098l17.37 9.964 17.232-9.964v-7.098z"/></g><g><path fill="#42ace8" d="M129.89 234.082l-17.37-9.964v-7.098l17.37 9.964z"/></g><g><path fill="#2f84d3" d="M147.122 224.118l-17.232 9.964v-7.098l17.232-9.964z"/></g><g><path fill="#42ace8" d="M129.89 226.988l-17.37-9.964 17.37-9.964 17.232 9.964z"/></g><g><path fill="#fff" d="M129.89 226.984l-17.37-9.964v.955l17.37 9.965 17.232-9.965v-.955z"/></g></g><g><g opacity=".6"><path fill="#1f0099" d="M129.89 225.622l-14.77-8.6 14.77-8.462 14.771 8.463z"/></g><g><g><path fill="#42ace8" d="M129.89 216.204l-17.37-9.964v7.098l17.37 9.964 17.232-9.964v-7.098z"/></g><g><path fill="#42ace8" d="M129.89 223.302l-17.37-9.964v-7.098l17.37 9.964z"/></g><g><path fill="#2f84d3" d="M147.122 213.338l-17.232 9.964v-7.098l17.232-9.964z"/></g><g><path fill="#42ace8" d="M129.89 216.198l-17.37-9.964 17.37-9.964 17.232 9.964z"/></g><g><path fill="#fff" d="M129.89 216.204l-17.37-9.964v.819l17.37 9.964 17.232-9.964v-.819z"/></g></g></g><g><g opacity=".6"><path fill="#1f0099" d="M129.89 214.702l-14.77-8.463 14.77-8.599 14.771 8.6z"/></g><g><g><path fill="#42ace8" d="M129.89 205.284l-17.37-9.964v7.098l17.37 9.964 17.232-9.964v-7.098z"/></g><g><path fill="#42ace8" d="M129.89 212.382l-17.37-9.964v-7.098l17.37 9.964z"/></g><g><path fill="#2f84d3" d="M147.122 202.418l-17.232 9.964v-7.098l17.232-9.964z"/></g><g><path fill="#42ace8" d="M129.89 205.279l-17.37-9.965 17.37-9.964 17.232 9.964z"/></g><g><path fill="#fff" d="M129.89 205.284l-17.37-9.964v.819l17.37 9.964 17.232-9.964v-.819z"/></g></g></g></g></g><g><g opacity=".15"><g opacity=".02"/><g opacity=".02"><g opacity=".01"><path fill="#1f0099" d="M260.91 371.262l-14.77-8.6 14.77-8.462 14.771 8.463z"/></g></g><g opacity=".02"><g opacity=".01"><path fill="#1f0099" d="M260.91 360.342l-14.77-8.6 14.77-8.462 14.771 8.463z"/></g></g></g><g><g opacity=".1"><path fill="#03002d" d="M260.91 342.188l-17.37-9.964 17.37-9.964 17.368 9.964z"/></g><g><path fill="#42ace8" d="M260.914 346.414l-24.754-14.332.137-.136 24.617-14.196 24.755 14.196-.137.136zM236.57 332.22l24.344 14.059 24.345-14.06-24.345-14.059z"/></g><g><g><path fill="#42ace8" d="M260.91 319.934l-17.37-9.964v7.098l17.37 9.964 17.368-9.964v-7.098z"/></g><g><path fill="#42ace8" d="M260.91 327.032l-17.37-9.964v-7.098l17.37 9.964z"/></g><g><path fill="#2f84d3" d="M278.28 317.068l-17.37 9.964v-7.098l17.37-9.964z"/></g><g><path fill="#42ace8" d="M260.91 319.938l-17.37-9.964 17.37-9.964 17.368 9.964z"/></g><g><path fill="#fff" d="M260.91 319.934l-17.37-9.964v.955l17.37 9.965 17.368-9.965v-.955z"/></g></g><g><g opacity=".6"><path fill="#1f0099" d="M260.91 318.572l-14.77-8.6 14.77-8.462 14.771 8.463z"/></g><g><g><path fill="#42ace8" d="M260.91 309.154l-17.37-9.964v7.098l17.37 9.964 17.368-9.964v-7.098z"/></g><g><path fill="#42ace8" d="M260.91 316.252l-17.37-9.964v-7.098l17.37 9.964z"/></g><g><path fill="#2f84d3" d="M278.28 306.288l-17.37 9.964v-7.098l17.37-9.964z"/></g><g><path fill="#42ace8" d="M260.91 309.158l-17.37-9.964 17.37-9.964 17.368 9.964z"/></g><g><path fill="#fff" d="M260.91 309.154l-17.37-9.964v.819l17.37 9.964 17.368-9.964v-.819z"/></g></g></g><g><g opacity=".6"><path fill="#1f0099" d="M260.91 307.652l-14.77-8.463 14.77-8.599 14.771 8.6z"/></g><g><g><path fill="#42ace8" d="M260.91 298.234l-17.37-9.964v7.098l17.37 9.964 17.368-9.964v-7.098z"/></g><g><path fill="#42ace8" d="M260.91 305.332l-17.37-9.964v-7.098l17.37 9.964z"/></g><g><path fill="#2f84d3" d="M278.28 295.368l-17.37 9.964v-7.098l17.37-9.964z"/></g><g><path fill="#42ace8" d="M260.91 298.238l-17.37-9.964 17.37-9.964 17.368 9.964z"/></g><g><path fill="#fff" d="M260.91 298.234l-17.37-9.964v.819l17.37 9.964 17.368-9.964v-.819z"/></g></g></g></g></g><g><g opacity=".15"><g opacity=".02"/><g opacity=".02"><g opacity=".01"><path fill="#1f0099" d="M368.27 185.082l-14.77-8.6 14.77-8.462 14.634 8.463z"/></g></g><g opacity=".02"><g opacity=".01"><path fill="#1f0099" d="M368.27 174.162L353.5 165.7l14.77-8.599 14.634 8.6z"/></g></g></g><g><g opacity=".1"><path fill="#03002d" d="M368.27 156.008l-17.37-9.964 17.37-9.964 17.231 9.964z"/></g><g><path fill="#42ace8" d="M368.271 160.374l-24.891-14.332.137-.136 24.617-14.196 24.755 14.196-.137.136zm-24.344-14.332l24.344 14.06 24.344-14.06-24.344-14.059z"/></g><g><g><path fill="#42ace8" d="M368.27 133.754l-17.37-9.964v7.098l17.37 9.964 17.231-9.964v-7.098z"/></g><g><path fill="#42ace8" d="M368.27 140.852l-17.37-9.964v-7.098l17.37 9.964z"/></g><g><path fill="#2f84d3" d="M385.502 130.888l-17.232 9.964v-7.098l17.232-9.964z"/></g><g><path fill="#42ace8" d="M368.27 133.758l-17.37-9.964 17.37-9.964 17.231 9.964z"/></g><g><path fill="#fff" d="M368.27 133.754l-17.37-9.964v.955l17.37 9.965 17.231-9.965v-.955z"/></g></g><g><g opacity=".6"><path fill="#1f0099" d="M368.27 132.392l-14.77-8.463 14.77-8.599 14.634 8.6z"/></g><g><g><path fill="#42ace8" d="M368.27 122.974l-17.37-9.964v7.098l17.37 9.964 17.231-9.964v-7.098z"/></g><g><path fill="#42ace8" d="M368.27 130.072l-17.37-9.964v-7.098l17.37 9.964z"/></g><g><path fill="#2f84d3" d="M385.502 120.108l-17.232 9.964v-7.098l17.232-9.964z"/></g><g><path fill="#42ace8" d="M368.27 122.978l-17.37-9.964 17.37-9.964 17.231 9.964z"/></g><g><path fill="#fff" d="M368.27 122.974l-17.37-9.964v.819l17.37 9.964 17.231-9.964v-.819z"/></g></g></g><g><g opacity=".6"><path fill="#1f0099" d="M368.27 121.472l-14.77-8.463 14.77-8.599 14.634 8.6z"/></g><g><g><path fill="#42ace8" d="M368.27 112.054l-17.37-9.964v7.098l17.37 9.964 17.231-9.964v-7.098z"/></g><g><path fill="#42ace8" d="M368.27 119.152l-17.37-9.964v-7.098l17.37 9.964z"/></g><g><path fill="#2f84d3" d="M385.502 109.188l-17.232 9.964v-7.098l17.232-9.964z"/></g><g><path fill="#42ace8" d="M368.27 112.058l-17.37-9.964 17.37-9.964 17.231 9.964z"/></g><g><path fill="#fff" d="M368.27 112.054l-17.37-9.964v.819l17.37 9.964 17.231-9.964v-.819z"/></g></g></g></g></g><g><g><g><g><g><g><g><path fill="#824120" d="M262.316 102.64l-1.037 2.436a2.42 2.42 0 0 1-.259.518l1.036-2.436c.104-.155.208-.363.26-.518z"/></g><g><path fill="#272e70" d="M262.06 103.16l-1.037 2.436c-.674 1.243-1.762 2.384-3.213 3.213l1.036-2.436c1.452-.83 2.592-1.97 3.214-3.213z"/></g></g></g><g><g><path fill="#272e70" d="M258.84 106.37l-1.036 2.436-29.384 16.324 1.036-2.487z"/></g></g><g><g><g><path fill="#272e70" d="M229.459 122.647l-1.037 2.436a8.06 8.06 0 0 1-4.25 1.036c-1.865-.052-3.523-.88-4.404-2.384-.726-1.295-.674-2.798-.104-4.25l1.037-2.435c-.622 1.451-.622 2.954.103 4.25.83 1.502 2.488 2.28 4.405 2.383 1.348.104 2.85-.259 4.25-1.036z"/></g></g></g><g><g><path fill="#42ace8" d="M257.856 96.005c1.866.052 3.524.88 4.354 2.384 1.45 2.54-.104 6.167-3.369 7.98l-29.384 16.273a8.06 8.06 0 0 1-4.25 1.037c-1.865-.052-3.524-.881-4.405-2.384-1.399-2.488.104-6.064 3.42-7.93l29.385-16.272c1.4-.777 2.902-1.14 4.25-1.088z"/></g></g></g></g></g></g></g></g></svg>