<svg xmlns="http://www.w3.org/2000/svg" width="74" height="52" viewBox="0 0 74 52"><g><g><g><g><g><path fill="#ab3a0a" d="M1.282 46.735C.94 44.77.684 42.72.342 40.755a1.456 1.456 0 0 1 0-.855L0 44.685v.854c.342 1.965.598 4.015.94 5.98 5.895-.683 11.79-1.281 17.686-1.623l.341-4.784c-5.895.341-11.79.94-17.685 1.623z"/></g><g><path fill="#ab3a0a" d="M73.99 40.58v.17c-.257 1.88-.427 3.675-.684 5.554-11.961-1.281-24.008-1.965-36.055-1.88-2.221 0-4.528.086-6.75.086l-.341 4.785c2.221-.086 4.528-.086 6.75-.086 12.046-.085 24.093.598 36.055 1.88.256-1.88.427-3.674.683-5.554v-.17z"/></g><g><path fill="#ab3a0a" d="M30.503 2.48c.086 0 .171.086.171.086L30.845.43V.772c-.085.085-.085.256-.17.342 0 0 0 .085-.086.085-.085.085-.17.17-.17.256 0 0 0 .086-.086.086l-.086.085c-.085.171-.256.256-.427.342.085 0 .085.085.17.085.257.257.343.342.513.428z"/></g><g><path fill="#ab3a0a" d="M34.346 11.104c0 .171 0 .257-.085.428v.256c0 .085-.086.256-.086.342v.17c0 .171-.085.257-.085.428h.256l.171-2.478v.598c-.17.086-.17.17-.17.256z"/></g><g><path fill="#ab3a0a" d="M63.649 15.892l.17-3.332c0 .256-.085.427-.085.684 0 .085 0 .256-.085.341-.086.342-.17.684-.256.94-.086.427-.257.769-.513 1.196.17 0 .256 0 .427.086.171 0 .256 0 .342.085z"/></g><g><path fill="#ab3a0a" d="M41.27 14.95v.255c.256-.256.513-.341.854-.341h.171c-.17-.428-.341-.77-.427-1.196-.085-.428-.17-.855-.17-1.197v-.341c0-.257-.086-.513-.086-.77v-.256-.854z"/></g><g><path fill="#ab3a0a" d="M62.71 20.93c-.085.086-.085.171-.17.171l-.086.085-.17.171-.086.086c-.086.085-.171.17-.257.17h-.085c-.085 0-.17.086-.256.086-.086.256-.171.598-.342.854 0 .086-.086.171-.171.257l-.256.512c0 .086-.086.171-.086.171-.256.427-.512.77-.769 1.111l-.256 3.845c0 .17.085.256.17.341 0 0 .086 0 .086.086.171-.171.257-.427.342-.598 0-.086.085-.086.085-.171 0 0 0-.086.086-.086l.256-.512c0-.086.086-.171.086-.256.085-.257.256-.598.341-.855l.257-.085c.085 0 .17-.086.256-.171l.086-.086.17-.17.086-.086c.085-.085.085-.17.17-.256l.086-.086c.086-.085.171-.17.171-.341l.085-.086c.086-.085.086-.17.171-.342 0-.085.086-.17.086-.256.085-.17.17-.427.342-.683.341-.855.512-1.453.598-1.965L64.077 17v.256c0 .171-.085.428-.17.684 0 .085 0 .085-.086.17a5.89 5.89 0 0 1-.342.855c-.085.256-.17.513-.341.684 0 .085-.086.17-.086.256-.085.085-.085.256-.17.342 0 .085-.086.085-.086.17-.086.086-.086.171-.171.257.17.17.17.17.085.256z"/></g><g><path fill="#ab3a0a" d="M41.007 17.17c-.085-.17-.085-.426-.085-.597v-.086-.427l-.342 4.785c0 .512.085 1.196.427 2.135.77 2.222 1.453 2.82 1.88 2.82.17.94.512 1.794 1.025 2.649.086-.086.256-.086.342-.086.17-.085.256-.17.256-.342v-3.93a6.968 6.968 0 0 1-1.281-3.076c-.513-.085-1.197-.598-1.88-2.819-.085-.342-.17-.598-.256-.854 0 0-.086-.086-.086-.171z"/></g><g><path fill="#ab3a0a" d="M31.527 30.331l.256-3.503v-.085c.171-.342.342-.769.513-1.196 0-.086.085-.17.085-.256.171-.428.256-.855.342-1.282l.256-.085h.086l.17-.171.086-.086c.085-.085.17-.17.17-.256l.086-.085c.086-.171.171-.257.257-.428.085-.17.17-.256.256-.427 0 0 0-.085.085-.085.086-.171.171-.342.171-.513 0-.085.086-.085.086-.17.085-.257.17-.428.256-.684.256-.77.342-1.367.427-1.794l.342-4.785c0 .17-.086.342-.086.513-.085.427-.17.769-.341 1.367-.086.256-.171.512-.257.683 0 .086-.085.171-.085.171-.085.17-.085.342-.17.427 0 .086-.086.086-.086.171-.086.171-.171.342-.257.427-.085.171-.17.342-.341.427l-.086.086-.256.256-.086.086c-.085.085-.17.085-.17.17h-.086c-.085 0-.17.086-.256.086-.086.427-.171.854-.342 1.282 0 .085-.085.17-.085.256-.171.427-.342.769-.513 1.196-.085.17-.256.427-.342.598 0 .94.086 1.88.086 2.905v.085c-.086.086-.171.171-.342.171a199.904 199.904 0 0 0-7.006 4.7l2.734 2.733c1.623-1.025 2.99-1.965 4.443-2.905z"/></g><g><path fill="#ab3a0a" d="M26.483 39.305c.257-.342.428-.769.684-1.11l.342-4.785c-.598.854-1.11 1.794-1.709 2.649.256 1.11.513 2.136.683 3.246z"/></g><g><path fill="#ab3a0a" d="M22.042 40.92c.171-1.538.256-3.076.427-4.614a32.895 32.895 0 0 0-1.623-1.965c-.17-.17-.342-.341-.427-.598.854-1.11 1.709-2.136 2.563-3.246-2.563-1.453-5.212-2.82-7.86-4.272-.086-.94-.171-1.965-.257-2.905a9.502 9.502 0 0 1-1.708-3.161c-.513 0-1.196-.513-2.136-2.222-.086-.17-.171-.341-.257-.598-.17-.342-.256-.683-.341-.94v-.085c0-.085 0-.085-.086-.17-.085-.172-.085-.343-.17-.514v-.17-.513c.085-.854.683-1.11 1.28-1.196-.17-.513-.34-1.025-.512-1.538-.085-.17-.085-.342-.085-.513-.086-.256-.171-.598-.171-.854 0-.17 0-.342-.085-.513 0-.256-.086-.512-.086-.683v-.427-.513l-.342 4.785c0 .427 0 .94.086 1.367l-.342 4.784c0 .513.17 1.367.684 2.478 1.025 2.221 1.88 2.82 2.392 2.82a9.502 9.502 0 0 0 1.709 3.16c.085.94.17 1.965.256 2.905 1.88.94 3.76 1.965 5.639 2.99l-.257 4.443c.428.855 1.111 1.624 1.71 2.478z"/></g><g><path fill="#ab3a0a" d="M21.702 44.936l-.342 4.785c1.965-.086 4.016-.171 5.98-.256l.342-4.785c-1.965.085-4.015.17-5.98.256z"/></g></g></g><g><g><path fill="#f0783c" d="M72.706 37.588c-3.673-3.247-7.945-6.152-12.559-8.544 0 0-.085 0-.085-.085-.171-.086-.257-.171-.171-.342l.256-3.845c.256-.342.513-.769.769-1.11 0-.086.085-.171.085-.171l.257-.513c.085-.085.085-.17.17-.256.086-.257.257-.598.342-.855.086 0 .171 0 .257-.085h.085c.086 0 .171-.086.256-.171l.086-.085.17-.171.086-.086c.086-.085.086-.17.171-.17 0-.086.086-.086.086-.172.085-.085.085-.17.17-.256 0-.085.086-.085.086-.17.085-.086.085-.257.17-.342 0-.086.086-.171.086-.257.086-.17.171-.427.342-.683.17-.342.256-.598.342-.855 0-.085 0-.085.085-.17.086-.257.086-.428.17-.684v-.085c.086-.855-.17-1.282-.597-1.453-.086-.085-.171-.085-.256-.085-.171 0-.257-.086-.428-.086.171-.427.342-.769.513-1.196.085-.342.17-.683.256-.94 0-.085 0-.256.086-.342 0-.17.085-.427.085-.683.086-.684 0-1.282-.17-1.965-.342-1.538-1.197-2.99-2.478-4.187-.77-.683-1.624-1.367-2.564-1.88-.768-.512-1.623-.854-2.563-1.195-.769-.257-1.538-.428-2.306-.428-.513-.085-1.111-.085-1.624-.085-1.538 0-2.99.342-4.357.854-1.196.513-2.136 1.197-2.82 2.136-.17 0-3.588.257-3.417 5.297v.257c0 .256 0 .512.085.769v.342c.086.341.086.768.171 1.196.086.427.257.854.427 1.196h-.17c-.342 0-.599.085-.855.342-.256.256-.427.683-.342 1.367v.085c0 .17.086.342.086.598 0 .086 0 .17.085.17.086.257.171.514.257.855.769 2.222 1.452 2.82 1.88 2.82a9.784 9.784 0 0 0 1.28 3.076v3.93c0 .17-.085.256-.256.341-.085 0-.17.086-.341.086-.77.342-2.393 1.025-4.443 2.05-2.563-1.367-4.785-2.392-6.237-2.99C32.38 33.316 31.44 39.04 30.5 44.679c2.221-.085 4.528-.085 6.75-.085 12.046-.086 24.093.598 36.055 1.88.256-1.88.427-3.674.683-5.554.085-1.367-.342-2.478-1.282-3.332z"/></g><g><path fill="#f0783c" d="M25.802 36.054c.598-.854 1.11-1.794 1.708-2.649l-.256-.256-2.734-2.734a200.211 200.211 0 0 1 7.006-4.699c.085-.086.17-.17.342-.17v-.086c0-.94-.086-1.965-.086-2.905.171-.171.256-.427.342-.598.17-.342.427-.77.512-1.196 0-.086.086-.171.086-.257.17-.427.256-.854.342-1.281.085 0 .17 0 .256-.086h.086c.085 0 .17-.085.17-.17l.086-.086.256-.256.086-.086c.085-.17.17-.256.341-.427.086-.17.171-.256.257-.427 0-.086.085-.086.085-.171.086-.17.086-.256.17-.427 0-.086.086-.171.086-.171.086-.257.171-.427.257-.684.17-.512.256-.94.341-1.367.257-1.623-.341-2.136-1.025-2.221h-.256c0-.086.085-.256.085-.427v-.171c0-.085.086-.256.086-.342v-.256c0-.086 0-.256.085-.427v-.257-.427c.086-2.307-.342-5.724-3.76-7.775-.084 0-.17-.085-.17-.085-.17-.086-.342-.171-.513-.256-.085 0-.085-.086-.17-.086.17-.085.341-.256.427-.342l.085-.085s0-.086.086-.086c.085-.085.17-.17.17-.256 0 0 0-.085.086-.085V.768v-.17V.17s-1.025.085-2.563.256c-1.453.086-3.247.257-4.87.257-.855 0-1.709 0-2.307-.086h-.769c-2.99 0-5.81 2.05-6.066 3.76-.171 0-4.016.427-3.93 4.87v.427c0 .256.085.427.085.683 0 .171 0 .342.086.513.085.256.17.598.17.854.086.171.086.342.086.513.17.512.342.94.513 1.538-.598.085-1.197.256-1.282 1.196v.683c0 .171.085.342.17.513 0 .085 0 .085.086.17v.086c.086.256.257.598.342.94.086.256.171.427.256.598.94 1.794 1.624 2.221 2.136 2.221a9.502 9.502 0 0 0 1.71 3.162c.085.94.17 1.965.255 2.905a230.294 230.294 0 0 1 7.86 4.271c-.854 1.111-1.708 2.136-2.562 3.247.17.171.341.342.427.598a32.856 32.856 0 0 0 1.623 1.965c-.17 1.538-.256 3.076-.427 4.614-.085 1.367-.256 2.648-.342 4.016 1.965-.086 4.016-.171 5.98-.257-.085-1.794-.512-3.588-.939-5.382-.17-1.111-.427-2.136-.683-3.247z"/></g><g><path fill="#f0783c" d="M1.542 37.25c-.94.94-1.453 2.221-1.196 3.503.342 1.965.598 4.016.94 5.98 5.895-.683 11.79-1.28 17.685-1.623a620.42 620.42 0 0 0-5.126-16.66 59.285 59.285 0 0 0-12.303 8.8z"/></g></g></g></g></svg>