<svg xmlns="http://www.w3.org/2000/svg" width="66" height="66" viewBox="0 0 66 66"><g><g><g><g><g><g><path fill="#ab3a0a" d="M40.85 1.24l2.218 4.785v.088L40.85 1.24c0 .089 0 .089 0 0z"/></g><g><g><path fill="#ab3a0a" d="M40.85 1.24l2.218 4.785v.088L40.85 1.24c0 .089 0 .089 0 0z"/></g></g></g><g><g><path fill="#ab3a0a" d="M54.516 2.13l2.218 4.785s.089.797-.266 1.683c-.178.443-.355.886-.71 1.418L53.54 5.231c.355-.443.532-.974.71-1.417.266-.887.266-1.595.266-1.684z"/></g><g><g><path fill="#ab3a0a" d="M54.51 2.13l2.218 4.785v.088L54.51 2.13s0 .089 0 0z"/></g><g><path fill="#ab3a0a" d="M54.519 2.22l2.218 4.785c0 .177 0 .443-.089.797L54.43 3.017c.089-.354.089-.62.089-.797z"/></g><g><path fill="#ab3a0a" d="M54.427 3.01l2.218 4.785c0 .266-.088.531-.177.797L54.25 3.807c.089-.265.177-.531.177-.797z"/></g><g><path fill="#ab3a0a" d="M54.245 3.81l2.218 4.785c-.089.266-.178.531-.355.797L53.89 4.607c.177-.265.266-.531.355-.797z"/></g><g><path fill="#ab3a0a" d="M53.895 4.61l2.218 4.785c-.089.177-.178.354-.355.531L53.54 5.142c.177-.178.266-.355.355-.532z"/></g></g></g><g><g><path fill="#ab3a0a" d="M53.632 5.14l2.218 4.785c-.355.443-.798.797-1.242 1.24L52.39 6.381c.355-.355.887-.798 1.242-1.241z"/></g><g><g><path fill="#ab3a0a" d="M53.627 5.14l2.218 4.785-2.218-4.785c-.09.089-.09.089 0 0z"/></g><g><path fill="#ab3a0a" d="M53.542 5.23l2.218 4.785c-.355.443-.798.797-1.242 1.24L52.3 6.471c.444-.444.976-.798 1.242-1.241z"/></g></g></g><g><g><path fill="#ab3a0a" d="M52.39 6.38l2.218 4.785c-1.597 1.772-3.283 3.278-3.371 3.367L48.93 9.747c.089 0 1.774-1.595 3.46-3.367z"/></g><g><g><path fill="#ab3a0a" d="M52.39 6.38l2.218 4.785c-1.597 1.772-3.283 3.278-3.371 3.367L48.93 9.747c.089 0 1.774-1.595 3.46-3.367z"/></g></g></g><g><g><path fill="#ab3a0a" d="M48.927 9.749l2.307 4.784-.177-.088L48.75 9.66z"/></g></g><g><g><g><path fill="#ab3a0a" d="M52.831 2.749c.71-.532 1.42-.709 1.508-.709l.178.089s.089.797-.266 1.683c-.178.443-.355.886-.71 1.418-.355.443-.799.797-1.242 1.24-1.597 1.773-3.283 3.279-3.372 3.367l-.177-.088c.089-.089.976-2.215 2.13-4.253.265-.532.443-1.064.798-1.595.355-.532.71-.886 1.153-1.152z"/></g><g><g><g><path fill="#ab3a0a" d="M54.517 2.217v.443l-.089.266v.266l-.089.266-.088.354-.09.177v.178l-.088.177-.089.177-.088.177-.089.177-.089.178-.088.088-.178.177-.177.178-.089.177-.177.089-.178.177-.177.177-.178.177-.088.089-.355.354-.267.355-.354.265-.267.355-.266.266-.266.266-.266.265-.266.178-.266.265-.178.178-.177.177-.178.177-.088.089-.178.088v.089h-.089l-.177-.089v-.088h.089v-.178l.088-.177.09-.177.177-.266.088-.266.178-.265.088-.266.178-.355.177-.354.178-.355.177-.354.266-.354.178-.443.177-.355.089-.177.177-.266.09-.177.088-.177.089-.178.088-.265.089-.178.089-.177.177-.177.089-.089.177-.177.09-.177.177-.089.177-.088.089-.178.177-.088.266-.177.266-.178.267-.088.177-.089.177-.088.178-.089h.177l.178.089z"/></g></g></g></g></g><g><g><path fill="#ab3a0a" d="M40.85 1.33l2.307 4.785 4.524 10.633-2.306-4.785z"/></g></g><g><g><path fill="#ab3a0a" d="M34.91 4.25l2.218 4.696 6.92 16.127-2.218-4.696z"/></g></g><g><g><path fill="#ab3a0a" d="M60.72 12.14l2.218 4.785.089.177-2.307-4.696z"/></g></g><g><g><path fill="#ab3a0a" d="M56.915 14.89l2.218 4.785c-2.218.62-4.348 1.063-4.436 1.063l-2.307-4.785c.177 0 2.307-.443 4.525-1.063z"/></g><g><g><path fill="#ab3a0a" d="M56.915 14.89l2.218 4.785c-2.218.62-4.348 1.063-4.436 1.063l-2.307-4.785c.177 0 2.307-.443 4.525-1.063z"/></g></g></g><g><g><path fill="#ab3a0a" d="M60.726 12.41l2.218 4.785s-.355.709-.976 1.24l-2.218-4.784c.71-.62.976-1.241.976-1.241z"/></g><g><g><path fill="#ab3a0a" d="M60.72 12.41l2.218 4.785"/></g><g><path fill="#ab3a0a" d="M60.724 12.41l2.218 4.785c-.09.088-.178.354-.444.62L60.28 13.03c.266-.266.444-.531.444-.62z"/></g><g><path fill="#ab3a0a" d="M60.372 13.03l2.218 4.785c-.177.177-.355.443-.532.62L59.84 13.65c.177-.177.355-.443.532-.62z"/></g></g></g><g><g><path fill="#ab3a0a" d="M58.507 14.44l2.218 4.785c-.532.177-1.065.266-1.597.443l-2.218-4.785c.532-.177 1.153-.266 1.597-.443z"/></g><g><g><path fill="#ab3a0a" d="M58.507 14.44l2.218 4.785c-.532.177-1.065.266-1.597.443l-2.218-4.785c.532-.177 1.153-.266 1.597-.443z"/></g></g></g><g><g><g><path fill="#ab3a0a" d="M52.389 15.947l-.089-.177c.089-.089 1.863-1.33 3.904-2.481.532-.266.976-.71 1.42-.886.443-.178.975-.266 1.419-.355.887-.089 1.597.177 1.597.177l.088.178s-.354.708-.976 1.24c-.354.266-.71.62-1.242.797-.532.178-1.064.266-1.597.444-2.218.62-4.347 1.063-4.524 1.063z"/></g><g><g><g><path fill="#ab3a0a" d="M60.728 12.403v.089l-.088.177-.09.177-.176.177-.178.178-.177.265-.267.178-.088.088-.178.177-.088.089-.178.089-.177.088-.178.089-.177.088-.178.089-.177.089-.177.088h-.178l-.266.089h-.178l-.177.088h-.266l-.178.09-.443.088-.355.088-.444.177-.355.09-.443.088-.355.088-.266.089h-.355l-.355.089-.266.088h-.178l-.266.089h-.177l-.089.088h-.177l-.089-.177.089-.088h.088l.09-.09.177-.088.177-.177.177-.089.178-.177.266-.177.266-.177.355-.177.266-.178.355-.265.355-.178.355-.265.355-.178.355-.265.177-.09.178-.088.177-.088.177-.178.178-.088.177-.089.178-.177.177-.089.178-.088h.177l.178-.089h.177l.177-.088H59.043l.355-.089.266.089h.532l.178.088h.354z"/></g></g></g></g></g><g><g><path fill="#ab3a0a" d="M59.752 13.65l2.218 4.785c-.355.266-.71.62-1.242.797l-2.218-4.785c.532-.177.976-.531 1.242-.797z"/></g><g><g><path fill="#ab3a0a" d="M59.752 13.65l2.218 4.785c-.355.266-.71.62-1.242.797l-2.218-4.785c.532-.177.976-.531 1.242-.797z"/></g></g></g><g><g><path fill="#ab3a0a" d="M2.698 42.975L.48 38.19c.798 1.772 2.573 2.747 4.081 2.215L6.78 45.19c-1.508.532-3.194-.443-4.081-2.215z"/></g><g><g><path fill="#ab3a0a" d="M4.561 40.494L6.78 45.19c-1.508.443-3.194-.443-4.081-2.215L.48 38.19c.798 1.772 2.573 2.747 4.081 2.304z"/></g></g></g><g><g><path fill="#ab3a0a" d="M7.319 41.385l2.218 4.785c-1.065.443-2.218 0-2.839-.975L4.48 40.41c.621 1.063 1.774 1.418 2.839.975z"/></g><g><g><path fill="#ab3a0a" d="M7.319 41.385l2.218 4.785c-1.065.443-2.218 0-2.839-.975L4.48 40.41c.621 1.063 1.774 1.418 2.839.975z"/></g></g></g><g><g><path fill="#ab3a0a" d="M10.159 40.23l2.218 4.696-2.75 1.24-2.307-4.784z"/></g></g><g><g><path fill="#ab3a0a" d="M5.54 29.51l2.307 4.785 4.524 10.633-2.218-4.696z"/></g></g><g><g><g><path fill="#ab3a0a" d="M.392 38.015c-.798-1.86-.266-3.899 1.154-4.696-.355-1.064.177-2.215 1.242-2.659l2.839-1.24 4.613 10.722-2.839 1.24c-1.064.443-2.218 0-2.839-.975-1.597.532-3.371-.443-4.17-2.392z"/></g><g><g><g><path fill="#ab3a0a" d="M7.315 41.383l-.355.178h-.798l-.444-.089-.355-.177-.355-.177-.266-.355-.177-.266-.621.089h-.621l-.533-.177-.62-.266-.533-.354-.444-.532-.443-.532-.355-.709-.266-.709L.04 36.6v-.62l.089-.71.177-.531.355-.532.355-.443.532-.354-.088-.443v-.798l.177-.354.177-.355.267-.265.354-.266.355-.177 2.75-1.241 4.614 10.721z"/></g></g></g></g></g><g><g><path fill="#ab3a0a" d="M50.26 16.22l2.218 4.785c.089.177.089.266.177.443 1.243 2.924 1.154 5.76-.088 6.911l-2.218-4.785c1.242-1.063 1.33-3.987.088-6.911 0-.177-.088-.266-.177-.443z"/></g><g><g><path fill="#ab3a0a" d="M50.26 16.22l2.218 4.785c.089.177.089.266.177.443.178.354.267.709.355 1.063l-2.129-4.785c-.089-.354-.266-.709-.355-1.063-.089-.177-.177-.266-.266-.443z"/></g><g><path fill="#ab3a0a" d="M50.88 17.72l2.218 4.785c.266.974.444 1.86.532 2.658l-2.306-4.785c0-.797-.178-1.772-.444-2.658z"/></g><g><path fill="#ab3a0a" d="M51.319 20.38l2.218 4.785c0 .443 0 .797-.089 1.24l-2.218-4.784c.089-.355.089-.798.089-1.241z"/></g><g><path fill="#ab3a0a" d="M51.317 21.62l2.218 4.785c0 .266-.088.531-.177.709l-2.218-4.785c.089-.177.089-.443.177-.709z"/></g><g><path fill="#ab3a0a" d="M51.147 22.33l2.218 4.785c-.088.177-.088.354-.177.531l-2.218-4.784c0-.178.089-.355.177-.532z"/></g><g><path fill="#ab3a0a" d="M50.876 22.86l2.218 4.785c-.089.177-.177.266-.266.443l-2.218-4.785c.089-.177.177-.266.266-.443z"/></g><g><path fill="#ab3a0a" d="M50.606 23.3l2.218 4.785-.266.266-2.218-4.785.266-.266z"/></g></g></g><g><g><path fill="#ab3a0a" d="M14.238 45.195L12.02 40.41c.532 1.063 1.774 1.506 2.928 1.063l2.218 4.785c-1.154.443-2.484 0-2.928-1.063z"/></g><g><g><path fill="#ab3a0a" d="M14.858 41.553l2.218 4.785c-1.065.443-2.396 0-2.928-1.063L11.93 40.49a2.383 2.383 0 0 0 2.928 1.063z"/></g></g></g><g><g><path fill="#ab3a0a" d="M16.634 40.76l2.218 4.785-1.774.709-2.218-4.697z"/></g></g><g><g><path fill="#ab3a0a" d="M48.661 36.51l2.307 4.696-21.47-.62-2.218-4.696z"/></g></g><g><g><path fill="#ab3a0a" d="M41.83 20.38l2.218 4.696 6.92 16.127-2.307-4.696z"/></g></g><g><g><path fill="#ab3a0a" d="M50.34 23.57l2.307 4.785 4.524 10.544-2.306-4.696z"/></g></g><g><g><path fill="#ab3a0a" d="M52.648 40.935L50.43 36.15c.532 1.063 1.774 1.595 2.928 1.063l2.218 4.785c-1.065.532-2.396 0-2.928-1.063z"/></g><g><g><path fill="#ab3a0a" d="M53.358 37.303l2.218 4.785c-1.065.443-2.396 0-2.928-1.063L50.43 36.24a2.383 2.383 0 0 0 2.928 1.063z"/></g></g></g><g><g><path fill="#ab3a0a" d="M53.715 37.13l2.218 4.696-.355.177-2.218-4.696z"/></g></g><g><g><g><path fill="#ab3a0a" d="M45.376 11.964c1.686-.177 3.815 1.772 5.057 4.696 1.242 2.924 1.154 5.76-.088 6.911l4.524 10.633c.444 1.152-.088 2.393-1.153 2.924l-.444.178c-1.153.531-2.484 0-2.927-1.152L36.327 3.28c-.444-1.152.089-2.392 1.153-2.924l.444-.177c1.153-.443 2.484 0 2.928 1.152z"/></g><g><g><g><path fill="#ab3a0a" d="M55.047 35v.443l-.088.443-.267.354-.266.355-.266.266-.443.266-.355.177-.444.088-.444.089-.443-.089-.444-.088-.355-.177-.355-.266-.266-.355-.177-.443L36.327 3.278l-.088-.443-.089-.443.089-.443.088-.354.178-.443.266-.266.355-.354.444-.178.354-.177.444-.088.444-.089h.443l.444.177.355.177.355.266.266.355.177.354 4.525 10.633h.71l.62.266.71.354.71.62.621.62.621.887.621.886.444 1.063.443 1.064.267 1.063.177 1.063v.975l-.089.797-.177.798-.266.62-.444.532 4.525 10.633.177.443z"/></g></g></g></g></g><g><g><path fill="#ab3a0a" d="M54.873 34.2l2.218 4.785c.444 1.152-.088 2.392-1.153 2.924l-2.218-4.785c1.153-.532 1.686-1.86 1.153-2.924z"/></g><g><g><path fill="#ab3a0a" d="M54.87 34.2l2.218 4.785c0 .088.089.177.089.177l-2.218-4.785c0-.088 0-.177-.089-.177z"/></g><g><path fill="#ab3a0a" d="M54.96 34.38l2.218 4.785c.089.177.089.354.089.62L55.049 35c0-.266 0-.443-.089-.62z"/></g><g><path fill="#ab3a0a" d="M55.05 35l2.218 4.785v.443l-2.218-4.785V35z"/></g><g><path fill="#ab3a0a" d="M55.049 35.35l2.218 4.785c0 .088-.089.266-.089.354l-2.218-4.785c.089-.088.089-.265.089-.354z"/></g><g><path fill="#ab3a0a" d="M54.957 35.71l2.218 4.785c0 .088-.088.266-.177.354l-2.218-4.785c.089-.088.177-.265.177-.354z"/></g><g><path fill="#ab3a0a" d="M54.866 36.06l2.218 4.785c-.089.088-.177.266-.266.354L54.6 36.414c.089-.088.177-.265.266-.354z"/></g><g><path fill="#ab3a0a" d="M54.607 36.42l2.218 4.785c-.266.266-.532.531-.887.709l-2.218-4.785c.355-.177.71-.443.887-.709z"/></g></g></g><g><g><path fill="#ab3a0a" d="M26.833 59.456l2.307 4.785-10.292-18.696-2.218-4.785z"/></g></g><g><g><path fill="#ab3a0a" d="M27.28 35.89l2.218 4.696 6.565 20.734-2.306-4.784z"/></g></g><g><g><path fill="#ab3a0a" d="M33.75 56.53l2.218 4.785c.355 1.152-.089 2.48-.976 2.835s-2.306.975-3.194 1.33c-.887.354-2.129-.178-2.75-1.241l-2.218-4.785c.621 1.063 1.863 1.595 2.75 1.24.888-.354 2.307-.974 3.194-1.329.887-.443 1.331-1.683.976-2.835z"/></g><g><g><path fill="#ab3a0a" d="M33.75 56.53l2.218 4.785c.089.266.089.443.089.709l-2.218-4.785c0-.266 0-.532-.089-.709z"/></g><g><path fill="#ab3a0a" d="M33.84 57.24l2.218 4.785v.531l-2.218-4.784v-.532z"/></g><g><path fill="#ab3a0a" d="M33.839 57.68l2.218 4.785c0 .177-.089.266-.089.443l-2.218-4.785c0-.089.089-.266.089-.443z"/></g><g><path fill="#ab3a0a" d="M33.757 58.13l2.218 4.785c0 .088-.088.266-.177.354l-2.218-4.785c.089-.088.089-.177.177-.354z"/></g><g><path fill="#ab3a0a" d="M33.577 58.48l2.218 4.785c-.088.088-.088.266-.177.354L33.4 58.834c.089-.088.177-.177.177-.354z"/></g><g><path fill="#ab3a0a" d="M33.395 58.84l2.218 4.785c-.177.177-.355.354-.62.443-.888.354-2.307.975-3.195 1.329-.887.354-2.129-.177-2.75-1.24l-2.218-4.785c.621 1.063 1.863 1.595 2.75 1.24.888-.354 2.307-.975 3.194-1.329.266-.089.444-.177.621-.443z"/></g></g></g><g><g><g><path fill="#ab3a0a" d="M18.408 22.592L34.91 4.25l6.92 16.127 6.92 16.126-21.47-.62 6.565 20.645c.355 1.152-.088 2.482-.976 2.836-.887.354-2.306.975-3.194 1.329-.887.354-2.129-.177-2.75-1.24L16.634 40.755l-1.775.798c-1.153.443-2.484 0-2.928-1.152L6.697 28.174c-.444-1.152.089-2.392 1.153-2.924l7.896-3.367c.976-.443 2.04-.089 2.662.709z"/></g><g><g><g><path fill="#ab3a0a" d="M27.28 35.883l6.477 20.645.089.444v.886l-.089.354-.177.354-.267.355-.266.266-.266.177-.355.088-.443.178-.355.177-.444.177-.444.177-.443.178-.355.177-.355.177-.355.089h-.71l-.443-.178-.355-.177-.266-.266-.355-.354-.266-.355-10.203-18.696-1.774.798-.444.088-.444.089-.443-.089-.444-.088-.355-.177-.354-.266-.267-.355-.177-.443-5.235-12.139-.177-.443v-.886l.177-.443.178-.355.266-.354.355-.266.355-.177 7.896-3.367.355-.177h1.064l.355.177.355.177.266.177.266.355L34.91 4.25l6.92 16.127 6.832 16.126z"/></g></g></g></g></g></g><g><g><g><path fill="#ab3a0a" d="M58.955 24.098l2.218 4.785c-2.307-.62-4.436-1.33-4.525-1.418L54.43 22.68c0 .089 2.218.886 4.525 1.418z"/></g><g><g><path fill="#ab3a0a" d="M58.955 24.098l2.218 4.785c-2.307-.62-4.436-1.33-4.525-1.418L54.43 22.68c0 .089 2.218.886 4.525 1.418z"/></g></g></g><g><g><path fill="#ab3a0a" d="M60.636 24.632l2.218 4.784c-.533-.088-1.065-.354-1.686-.531L58.95 24.1c.532.177 1.065.443 1.686.532z"/></g><g><g><path fill="#ab3a0a" d="M60.636 24.632l2.218 4.784c-.533-.088-1.065-.354-1.686-.531L58.95 24.1c.532.177 1.065.443 1.686.532z"/></g></g></g><g><g><path fill="#ab3a0a" d="M62.148 24.54l2.218 4.785c-.443.088-.976.177-1.508.088L60.64 24.63c.532.088 1.065 0 1.508-.089z"/></g><g><g><path fill="#ab3a0a" d="M62.148 24.54l2.218 4.785c-.443.088-.976.177-1.508.088L60.64 24.63c.532.088 1.065 0 1.508-.089z"/></g></g></g><g><g><path fill="#ab3a0a" d="M63.74 23.75l2.218 4.785v.266l-2.218-4.785z"/></g></g><g><g><path fill="#ab3a0a" d="M63.737 24.01l2.218 4.785s-.621.443-1.597.531l-2.218-4.784c.887-.089 1.508-.532 1.597-.532z"/></g><g><g><path fill="#ab3a0a" d="M63.737 24.01l2.218 4.785s-.621.443-1.597.531l-2.218-4.784c.887-.089 1.508-.532 1.597-.532z"/></g></g></g><g><g><g><path fill="#ab3a0a" d="M62.415 22.772c.798.355 1.33.975 1.33.975v.266s-.62.443-1.596.532c-.444.088-.976.177-1.509.088-.532-.088-1.064-.354-1.685-.531-2.307-.62-4.436-1.33-4.525-1.418v-.266c.089 0 2.395-.177 4.79-.089.622 0 1.243-.088 1.775 0 .444.089.976.266 1.42.443z"/></g><g><g><g><path fill="#ab3a0a" d="M63.744 24.014h-.088l-.09.088-.088.089-.177.088-.266.089-.267.089-.266.088h-.355l-.177.089h-1.597l-.177-.089-.178-.088-.266-.089h-.178l-.177-.089-.266-.088-.178-.089-.443-.088-.444-.09-.443-.176-.355-.089-.355-.088-.444-.09-.355-.176-.266-.089-.355-.089-.266-.088-.266-.089-.177-.088h-.178l-.089-.089h-.177l.089-.266h.621l.266-.088h2.129l.444-.089h.443l.444.089h.621l.266-.089h1.242l.266.089h.178l.177.088h.178l.177.089.178.088.177.089h.178l.266.177.266.177.266.178.177.088.178.178.089.088.088.089z"/></g></g></g></g></g></g></g><g><g><path fill="#f0783c" d="M52.831 2.749c.71-.532 1.42-.709 1.508-.709l.178.089s.089.797-.266 1.683c-.178.443-.355.886-.71 1.418-.355.443-.799.797-1.242 1.24-1.597 1.773-3.283 3.279-3.372 3.367l-.177-.088c.089-.089.976-2.215 2.13-4.253.265-.532.443-1.064.798-1.595.355-.532.71-.886 1.153-1.152z"/></g><g><path fill="#f0783c" d="M52.389 15.947l-.089-.177c.089-.089 1.863-1.33 3.904-2.481.532-.266.976-.71 1.42-.886.443-.178.975-.266 1.419-.355.887-.089 1.597.177 1.597.177l.088.178s-.354.708-.976 1.24c-.354.266-.71.62-1.242.797-.532.178-1.064.266-1.597.444-2.218.62-4.347 1.063-4.524 1.063z"/></g><g><path fill="#f0783c" d="M.392 38.015c-.798-1.86-.266-3.899 1.154-4.696-.355-1.064.177-2.215 1.242-2.659l2.839-1.24 4.613 10.722-2.839 1.24c-1.064.443-2.218 0-2.839-.975-1.597.532-3.371-.443-4.17-2.392z"/></g><g><path fill="#f0783c" d="M45.376 11.964c1.686-.177 3.815 1.772 5.057 4.696 1.242 2.924 1.154 5.76-.088 6.911l4.524 10.633c.444 1.152-.088 2.393-1.153 2.924l-.444.178c-1.153.531-2.484 0-2.927-1.152L36.327 3.28c-.444-1.152.089-2.392 1.153-2.924l.444-.177c1.153-.443 2.484 0 2.928 1.152z"/></g><g><path fill="#f0783c" d="M18.408 22.592L34.91 4.25l6.92 16.127 6.92 16.126-21.47-.62 6.565 20.645c.355 1.152-.088 2.482-.976 2.836-.887.354-2.306.975-3.194 1.329-.887.354-2.129-.177-2.75-1.24L16.634 40.755l-1.775.798c-1.153.443-2.484 0-2.928-1.152L6.697 28.174c-.444-1.152.089-2.392 1.153-2.924l7.896-3.367c.976-.443 2.04-.089 2.662.709z"/></g><g><path fill="#f0783c" d="M62.415 22.772c.798.355 1.33.975 1.33.975v.266s-.62.443-1.596.532c-.444.088-.976.177-1.509.088-.532-.088-1.064-.354-1.685-.531-2.307-.62-4.436-1.33-4.525-1.418v-.266c.089 0 2.395-.177 4.79-.089.622 0 1.243-.088 1.775 0 .444.089.976.266 1.42.443z"/></g></g></g></g></svg>