<svg xmlns="http://www.w3.org/2000/svg" width="68" height="67" viewBox="0 0 68 67"><g><g><g><g><g><g><g><path fill="#ab3a0a" d="M51.66 10.54l-3.377 3.728c-.913-3.182-2.19-6-3.833-8.09l3.376-3.728c1.643 2.09 2.92 4.91 3.833 8.09z"/></g></g></g><g><g><g><path fill="#ab3a0a" d="M61.418 13.55l-3.285 3.727c-2.646.728-5.658 1.182-8.943 1.273l3.376-3.727c3.286-.182 6.297-.546 8.852-1.273z"/></g></g></g><g><g><g><path fill="#ab3a0a" d="M52.569 14.823l-3.376 3.727c-.274-1.545-.548-3-.913-4.273l3.376-3.727c.365 1.364.64 2.727.913 4.273z"/></g></g></g><g><g><g><path fill="#ab3a0a" d="M50.472 14.91l-3.377 3.726c-3.376 0-6.935-.272-10.585-.909L39.886 14c3.65.636 7.21.91 10.586.91z"/></g></g></g><g><g><path fill="#ab3a0a" d="M39.795 14.002l-3.285 3.727 2.281-13.182L42.168.82z"/></g></g><g><g><path fill="#ab3a0a" d="M66.805 35.996l-3.377 3.728-14.418-2.637 3.285-3.727z"/></g></g><g><g><g><path fill="#ab3a0a" d="M52.296 33.364l-3.376 3.728c.913-5.91 1.095-11.455.548-16.455l3.376-3.727c.547 5 .456 10.546-.548 16.454z"/></g></g></g><g><g><path fill="#ab3a0a" d="M50.29 32.914l-3.377 3.818-13.323-2.455 3.285-3.727z"/></g></g><g><g><path fill="#ab3a0a" d="M36.875 30.544l-3.285 3.728 2.555-14.455 3.285-3.727z"/></g></g></g><g><g><g><g><path fill="#ab3a0a" d="M59.228 52.27l-3.377 3.727c-1.186 1.273-2.463 2.546-3.741 3.546l3.376-3.728c1.37-1.09 2.647-2.272 3.742-3.545z"/></g></g></g><g><g><g><path fill="#ab3a0a" d="M46.816 50.906l-3.376 3.727c2.281-4.455 4.015-9.728 5.202-15.546l3.376-3.727c-1.186 5.818-3.011 11.09-5.202 15.546z"/></g></g></g><g><g><g><path fill="#ab3a0a" d="M55.486 55.82l-3.377 3.726c-2.464-1.818-5.384-3.454-8.669-4.909l3.376-3.727c3.286 1.455 6.206 3.09 8.67 4.91z"/></g></g></g><g><g><g><path fill="#ab3a0a" d="M44.816 50.18l-3.377 3.728a60.822 60.822 0 0 0-10.859-3.09l3.376-3.728c3.924.727 7.575 1.727 10.86 3.09z"/></g></g></g><g><g><path fill="#ab3a0a" d="M33.956 47.005l-3.376 3.818 2.646-14.455 3.286-3.818z"/></g></g><g><g><g><path fill="#ab3a0a" d="M43.446 56.547l-3.376 3.728c.821-1.091 1.551-2.364 2.373-3.728l3.376-3.727a51.752 51.752 0 0 1-2.373 3.727z"/></g></g></g><g><g><g><path fill="#ab3a0a" d="M41.616 58.814L38.24 62.54c.639-.727 1.278-1.546 1.916-2.364l3.377-3.727c-.639.91-1.278 1.636-1.917 2.364z"/></g></g></g><g><g><g><path fill="#ab3a0a" d="M53.755 57.18l-3.377 3.727c-4.836 3.364-10.585 5.273-16.608 5.546l3.376-3.728c6.023-.272 11.772-2.272 16.609-5.545z"/></g></g></g><g><g><g><path fill="#ab3a0a" d="M40.067 57.45l-3.377 3.727c-2.92 3.182-5.931 4.91-8.76 4.91l3.376-3.728c2.83 0 5.84-1.727 8.76-4.909z"/></g></g></g><g><g><path fill="#ab3a0a" d="M31.215 62.272L27.93 66.09l2.281-13.273 3.377-3.727z"/></g></g></g><g><g><g><g><path fill="#ab3a0a" d="M34.318 0L30.94 3.727c-1.55.91-3.102 2.273-4.471 3.91l3.376-3.728c1.37-1.636 2.92-3 4.472-3.909z"/></g></g></g><g><g><g><path fill="#ab3a0a" d="M29.575 7.452l-3.285 3.727c.548-.818 1.186-1.545 1.734-2.182L31.4 5.27c-.639.636-1.186 1.364-1.825 2.182z"/></g></g></g><g><g><g><path fill="#ab3a0a" d="M27.566 10.723L24.19 14.45c.639-1.182 1.369-2.273 2.099-3.273l3.376-3.727c-.73 1-1.46 2.09-2.099 3.273z"/></g></g></g><g><g><g><path fill="#ab3a0a" d="M37.787 13.64l-3.377 3.726c-3.65-.727-7.117-1.727-10.22-2.909l3.376-3.727c3.103 1.182 6.57 2.182 10.221 2.91z"/></g></g></g><g><g><g><path fill="#ab3a0a" d="M25.556 9.914l-3.377 3.727c-3.011-1.273-5.658-2.818-7.939-4.364l3.376-3.727c2.282 1.545 4.928 3.09 7.94 4.364z"/></g></g></g><g><g><g><path fill="#ab3a0a" d="M21.456 27.732l-3.376 3.727c1.095-5.727 2.92-10.909 5.11-15.182l3.377-3.727c-2.19 4.273-4.016 9.455-5.11 15.182z"/></g></g></g><g><g><path fill="#ab3a0a" d="M34.87 30.185l-3.376 3.727-13.414-2.455 3.376-3.727z"/></g></g><g><g><g><path fill="#ab3a0a" d="M4.936 24.723L1.56 28.45c1.186-5.455 3.741-10.364 7.21-14.273l3.376-3.727c-3.56 3.91-6.023 8.727-7.21 14.273z"/></g></g></g><g><g><path fill="#ab3a0a" d="M19.446 27.366l-3.376 3.728-14.51-2.637 3.376-3.727z"/></g></g></g><g><g><g><g><path fill="#ab3a0a" d="M20.635 45.73l-3.376 3.727c-.548-4.727-.456-10.272.456-16l3.376-3.727c-.912 5.727-1.003 11.273-.456 16z"/></g></g></g><g><g><g><path fill="#ab3a0a" d="M31.95 46.64l-3.376 3.726a69.95 69.95 0 0 0-11.224-.909l3.376-3.727c3.468 0 7.3.273 11.225.91z"/></g></g></g><g><g><g><path fill="#ab3a0a" d="M21.728 51.638l-3.377 3.727a23.49 23.49 0 0 1-.821-3.818l3.376-3.727c.274 1.364.548 2.636.822 3.818z"/></g></g></g><g><g><g><path fill="#ab3a0a" d="M29.208 61.913l-3.376 3.727c-3.194-1.09-5.84-4.727-7.392-10.273l3.376-3.727c1.46 5.545 4.107 9.182 7.392 10.273z"/></g></g></g><g><g><g><path fill="#ab3a0a" d="M18.532 45.82l-3.376 3.727c-3.56.182-6.936.728-9.856 1.546l3.376-3.728c2.92-.909 6.297-1.363 9.856-1.545z"/></g></g></g><g><g><g><path fill="#ab3a0a" d="M8.678 47.275l-3.376 3.818c-3.56-6-5.202-13.182-4.107-20.546l3.377-3.727c-1.095 7.273.547 14.546 4.106 20.454z"/></g></g></g><g><g><g><path fill="#ab3a0a" d="M23.645 60.27l-3.377 3.728C14.61 61.635 9.956 57.725 6.58 52.908l3.376-3.728c3.286 4.818 8.03 8.727 13.689 11.09z"/></g></g></g></g></g><g><g><path fill="#f0783c" d="M52.575 14.814c3.285-.182 6.297-.637 8.943-1.273-3.376-4.818-8.03-8.727-13.688-11.091 1.643 2.09 2.92 4.91 3.833 8.09.365 1.365.638 2.728.912 4.274z"/></g><g><path fill="#f0783c" d="M50.467 14.91a23.493 23.493 0 0 0-.821-3.817C48.094 5.547 45.448 1.91 42.163.82L39.79 14.093c3.741.545 7.3.818 10.677.818z"/></g><g><path fill="#f0783c" d="M62.703 15.36c-2.92.818-6.205 1.364-9.855 1.545.547 4.91.456 10.546-.548 16.455l14.51 2.636c1.095-7.454-.548-14.636-4.107-20.636z"/></g><g><path fill="#f0783c" d="M50.75 17c-3.56 0-7.392-.274-11.225-.91L36.97 30.544 50.293 33c.913-5.818 1.004-11.273.456-16z"/></g><g><path fill="#f0783c" d="M46.82 50.906c3.285 1.454 6.205 3.09 8.67 4.909 5.474-4.364 9.398-10.546 10.95-17.819L51.93 35.36c-1.095 5.818-2.92 11.09-5.11 15.546z"/></g><g><path fill="#f0783c" d="M49.928 35.005L36.605 32.55 34.05 47.005a60.818 60.818 0 0 1 10.86 3.09c2.098-4.181 3.923-9.363 5.018-15.09z"/></g><g><path fill="#f0783c" d="M43.448 56.547c-1.917 2.637-4.107 4.818-6.388 6.182a30.252 30.252 0 0 0 16.608-5.545c-2.19-1.546-4.927-3.091-7.939-4.364-.639 1.273-1.46 2.545-2.281 3.727z"/></g><g><path fill="#f0783c" d="M41.714 55.272c.73-1 1.37-2.091 2.1-3.273-3.104-1.182-6.571-2.182-10.221-2.909L31.22 62.363c3.468 0 7.21-2.455 10.494-7.091z"/></g><g><path fill="#f0783c" d="M29.579 7.453c-.73 1-1.46 2.091-2.099 3.273 3.103 1.182 6.57 2.182 10.22 2.91L40.073.361c-3.376-.09-7.118 2.455-10.494 7.091z"/></g><g><path fill="#f0783c" d="M27.932 6.182C29.848 3.545 32.038 1.364 34.32 0c-6.114.182-11.863 2.182-16.7 5.545 2.19 1.546 4.928 3.091 7.94 4.364.73-1.364 1.55-2.545 2.372-3.727z"/></g><g><path fill="#f0783c" d="M37.42 15.73c-3.924-.817-7.575-1.817-10.86-3.09-2.19 4.273-3.924 9.455-5.11 15.182l13.323 2.454z"/></g><g><path fill="#f0783c" d="M24.56 11.73c-3.285-1.455-6.206-3.092-8.67-4.91-5.475 4.364-9.399 10.546-10.95 17.818l14.51 2.636c1.095-5.818 2.92-11.09 5.11-15.545z"/></g><g><path fill="#f0783c" d="M20.633 45.73c3.559 0 7.392.273 11.224.91l2.647-14.455L21.18 29.73c-1.003 5.727-1.095 11.273-.547 16z"/></g><g><path fill="#f0783c" d="M20.9 47.82a23.49 23.49 0 0 0 .821 3.818c1.552 5.546 4.198 9.182 7.392 10.273l2.373-13.273c-3.65-.545-7.21-.818-10.586-.818z"/></g><g><path fill="#f0783c" d="M19.075 29.366L4.565 26.73a31.077 31.077 0 0 0 4.107 20.546c2.92-.819 6.205-1.364 9.855-1.546-.547-4.91-.456-10.455.548-16.364z"/></g><g><path fill="#f0783c" d="M18.803 47.91c-3.285.182-6.297.545-8.943 1.273a32.1 32.1 0 0 0 13.688 11.09c-1.642-2.09-2.92-4.908-3.832-8.09-.366-1.364-.64-2.818-.913-4.273z"/></g></g></g></g></svg>