<svg xmlns="http://www.w3.org/2000/svg" width="74" height="64" viewBox="0 0 74 64"><g><g><g><g><g><g><path fill="#ab3a0a" d="M55.942 29.424l-3.046 2.124c-1.293-.185-2.586-.37-3.786-.554l3.047-2.124c1.2.185 2.493.37 3.785.554z"/></g><g><g><path fill="#ab3a0a" d="M55.942 29.424l-3.046 2.124c-1.293-.185-2.586-.37-3.786-.554l3.047-2.124c1.2.185 2.493.37 3.785.554z"/></g></g></g><g><g><path fill="#ab3a0a" d="M61.57 53.149l-3.048 2.124-5.632-23.73 3.047-2.123z"/></g></g><g><g><path fill="#ab3a0a" d="M39.047 22.037L36 24.253l.185-1.477 3.047-2.216z"/></g></g><g><g><path fill="#ab3a0a" d="M45.695 30.71l-3.047 2.123c.554-6.463-3.416-8.033-6.648-8.68l3.047-2.123c3.232.646 7.202 2.216 6.648 8.68z"/></g><g><g><path fill="#ab3a0a" d="M45.695 30.71l-3.047 2.123c.554-6.463-3.416-8.033-6.648-8.68l3.047-2.123c3.232.646 7.202 2.216 6.648 8.68z"/></g></g></g><g><g><path fill="#ab3a0a" d="M33.597 16.676L30.55 18.8c.185-1.2.37-2.308.554-3.416l3.047-2.124c-.185 1.108-.37 2.216-.554 3.416z"/></g><g><g><path fill="#ab3a0a" d="M33.597 16.676L30.55 18.8c.185-1.2.37-2.308.554-3.416l3.047-2.124c-.185 1.108-.37 2.216-.554 3.416z"/></g></g></g><g><g><path fill="#ab3a0a" d="M46.523 33.396l-2.954 2.123-4.709-3.785 3.047-2.124z"/></g></g><g><g><path fill="#ab3a0a" d="M54.92 42.071l-2.955 2.124-5.725-.831 3.047-2.124z"/></g></g><g><g><path fill="#ab3a0a" d="M49.287 41.236L46.24 43.36c1.385-2.4 2.862-4.893 3.97-7.386l3.047-2.124c-1.108 2.493-2.585 4.894-3.97 7.386z"/></g><g><g><path fill="#ab3a0a" d="M49.287 41.236L46.24 43.36c1.385-2.4 2.862-4.893 3.97-7.386l3.047-2.124c-1.108 2.493-2.585 4.894-3.97 7.386z"/></g></g></g><g><g><path fill="#ab3a0a" d="M38.305 26.467l-2.955 2.124.185-1.477 3.047-2.124z"/></g></g><g><g><path fill="#ab3a0a" d="M28.057 12.244l-3.047 2.123.37-2.123 2.954-2.124z"/></g></g><g><g><path fill="#ab3a0a" d="M34.15 13.173l-3.046 2.216-6.094-1.015 3.047-2.124z"/></g></g><g><g><path fill="#ab3a0a" d="M39.227 20.56l-3.047 2.216-5.54 2.124 3.047-2.124z"/></g></g><g><g><path fill="#ab3a0a" d="M28.332 10.126l-3.047 2.124c-1.385-.185-2.77-.462-4.155-.646l3.047-2.124c1.385.185 2.77.37 4.155.646z"/></g><g><g><path fill="#ab3a0a" d="M28.332 10.126l-3.047 2.124c-1.385-.185-2.77-.462-4.155-.646l3.047-2.124c1.385.185 2.77.37 4.155.646z"/></g></g></g><g><g><path fill="#ab3a0a" d="M38.679 33.204c-.052.034-.123 0-.185 0H35.54c-.031 0-.064.01-.093 0-.065-.022-.12-.07-.184-.092-.03-.01-.062 0-.093 0h-1.569c-.031 0-.064.01-.093 0-.065-.022-.12-.07-.184-.093-.03-.01-.062 0-.093 0-.03 0-.065.014-.092 0-.039-.019-.053-.072-.092-.092-.028-.014-.065.014-.093 0-.039-.02-.061-.061-.092-.092l-.092-.093c-.031-.03-.054-.072-.093-.092-.027-.014-.065.014-.092 0-.039-.02-.062-.061-.092-.092l-.093-.092-.277-.277c-.061-.062-.136-.113-.184-.185-.017-.026.013-.065 0-.092-.02-.04-.062-.062-.093-.093l-.092-.092c-.03-.03-.073-.054-.092-.092-.014-.028.013-.065 0-.093-.02-.039-.073-.053-.093-.092-.013-.028 0-.062 0-.092v-.093c0-.03.014-.065 0-.092-.02-.04-.073-.054-.092-.092-.014-.028 0-.062 0-.093v-.092-.554-.092c0-.031.014-.065 0-.093-.039-.078-.146-.107-.185-.184-.013-.028 0-.062 0-.093v-.277-1.108-.184c0-.031.01-.064 0-.093-.021-.065-.146-.142-.092-.184a33.833 33.833 0 0 1 3.047-2.124c.058-.036.07.12.092.185.01.029 0 .061 0 .092V27.757c0 .03-.013.064 0 .092.04.078.146.107.185.185.014.027 0 .061 0 .092v.739c0 .03-.014.064 0 .092.02.039.073.053.092.092.014.028 0 .062 0 .093v.092c0 .03-.013.065 0 .092.02.04.073.054.093.093.013.027-.014.064 0 .092.02.039.061.061.092.092l.092.093c.031.03.073.053.093.092.013.027-.017.067 0 .092.048.073.123.123.184.185l.277.277.185.185c.027.013.065-.014.092 0 .04.019.062.061.093.092l.092.092c.03.031.053.073.092.093.028.013.065-.014.093 0 .038.019.053.072.092.092.027.014.061 0 .092 0s.063-.01.093 0c.065.022.119.07.184.092.03.01.062 0 .093 0H38.217c.03 0 .063-.01.092 0 .066.022.12.07.185.093.03.01.062 0 .092 0h1.017c.707 0 2.36-.036-.924 2.123z"/></g><g><g><path fill="#ab3a0a" d="M38.679 33.204c-.052.034-.123 0-.185 0H35.54c-.031 0-.064.01-.093 0-.065-.022-.12-.07-.184-.092-.03-.01-.062 0-.093 0h-1.569c-.031 0-.064.01-.093 0-.065-.022-.12-.07-.184-.093-.03-.01-.062 0-.093 0-.03 0-.065.014-.092 0-.039-.019-.053-.072-.092-.092-.028-.014-.065.014-.093 0-.039-.02-.061-.061-.092-.092l-.092-.093c-.031-.03-.054-.072-.093-.092-.027-.014-.065.014-.092 0-.039-.02-.062-.061-.092-.092l-.093-.092-.277-.277c-.061-.062-.136-.113-.184-.185-.017-.026.013-.065 0-.092-.02-.04-.062-.062-.093-.093l-.092-.092c-.03-.03-.073-.054-.092-.092-.014-.028.013-.065 0-.093-.02-.039-.073-.053-.093-.092-.013-.028 0-.062 0-.092v-.093c0-.03.014-.065 0-.092-.02-.04-.073-.054-.092-.092-.014-.028 0-.062 0-.093v-.092-.554-.092c0-.031.014-.065 0-.093-.039-.078-.146-.107-.185-.184-.013-.028 0-.062 0-.093v-.277-1.108-.184c0-.031.01-.064 0-.093-.021-.065-.146-.142-.092-.184a33.833 33.833 0 0 1 3.047-2.124c.058-.036.07.12.092.185.01.029 0 .061 0 .092V27.757c0 .03-.013.064 0 .092.04.078.146.107.185.185.014.027 0 .061 0 .092v.739c0 .03-.014.064 0 .092.02.039.073.053.092.092.014.028 0 .062 0 .093v.092c0 .03-.013.065 0 .092.02.04.073.054.093.093.013.027-.014.064 0 .092.02.039.061.061.092.092l.092.093c.031.03.073.053.093.092.013.027-.017.067 0 .092.048.073.123.123.184.185l.277.277.185.185c.027.013.065-.014.092 0 .04.019.062.061.093.092l.092.092c.03.031.053.073.092.093.028.013.065-.014.093 0 .038.019.053.072.092.092.027.014.061 0 .092 0s.063-.01.093 0c.065.022.119.07.184.092.03.01.062 0 .093 0H38.217c.03 0 .063-.01.092 0 .066.022.12.07.185.093.03.01.062 0 .092 0h1.017c.707 0 2.36-.036-.924 2.123z"/></g></g></g><g><g><path fill="#ab3a0a" d="M23.808 11.603l-2.954 2.124-6.094-.923 2.955-2.124z"/></g></g><g><g><path fill="#ab3a0a" d="M44.307 50.382l-3.047 2.215 3.232-6.093 3.047-2.124z"/></g></g><g><g><path fill="#ab3a0a" d="M22.793 16.492l-3.047 2.123c-1.108-.184-2.308-.277-3.416-.461l3.047-2.124c1.2.185 2.308.37 3.416.462z"/></g><g><g><path fill="#ab3a0a" d="M22.793 16.492l-3.047 2.123c-1.108-.184-2.308-.277-3.416-.461l3.047-2.124c1.2.185 2.308.37 3.416.462z"/></g></g></g><g><g><path fill="#ab3a0a" d="M23.257 23.422l-2.955 2.124c-.739-2.308-.739-4.432-.462-6.832l3.047-2.124c-.369 2.308-.369 4.524.37 6.832z"/></g></g><g><g><path fill="#ab3a0a" d="M24.827 26.559l-3.047 2.123c3.324-2.493 5.448-6.278 6.279-10.248l3.046-2.124c-.83 4.063-2.862 7.756-6.278 10.249z"/></g><g><g><path fill="#ab3a0a" d="M24.827 26.559l-3.047 2.123c3.324-2.493 5.448-6.278 6.279-10.248l3.046-2.124c-.83 4.063-2.862 7.756-6.278 10.249z"/></g></g></g><g><g><path fill="#ab3a0a" d="M31.013 30.992l-3.047 2.123c-2.585-.923-4.616-2.123-6.186-4.431l3.047-2.124c1.662 2.308 3.6 3.6 6.186 4.432z"/></g><g><g><path fill="#ab3a0a" d="M31.013 30.992l-3.047 2.123c-2.585-.923-4.616-2.123-6.186-4.431l3.047-2.124c1.662 2.308 3.6 3.6 6.186 4.432z"/></g></g></g><g><g><path fill="#ab3a0a" d="M29.905 34.314l-2.955 2.124 1.108-3.324 2.955-2.124z"/></g></g><g><g><path fill="#ab3a0a" d="M20.301 25.17l-3.047 2.124c-1.57.646-2.862.738-4.524.738l3.047-2.123c1.662 0 2.955-.093 4.524-.739z"/></g><g><g><path fill="#ab3a0a" d="M20.301 25.17l-3.047 2.124c-1.57.646-2.862.738-4.524.738l3.047-2.123c1.662 0 2.955-.093 4.524-.739z"/></g></g></g><g><g><path fill="#ab3a0a" d="M65.082 57.86l-3.047 2.125c-4.431 3.139-9.971 4.616-15.696 3.693-10.064-1.57-17.358-9.88-18.189-19.574l3.047-2.124c.739 9.695 8.033 18.005 18.097 19.574 5.817.924 11.357-.554 15.788-3.693z"/></g><g><g><path fill="#ab3a0a" d="M65.082 57.86l-3.047 2.125c-4.431 3.139-9.971 4.616-15.696 3.693-10.064-1.57-17.358-9.88-18.189-19.574l3.047-2.124c.739 9.695 8.033 18.005 18.097 19.574 5.817.924 11.357-.554 15.788-3.693z"/></g></g></g><g><g><g><path fill="#ab3a0a" d="M38.943 31.083h2.687c.062 0 .17.06.185 0 .12-.482-.262-1.693.185-1.478 1.793.863 4.924 1.82 4.616 3.786-.305 1.954-3.576 1.887-5.54 2.124-.492.06.47-1.072.185-1.478a39.258 39.258 0 0 0-2.318-2.954zm-.175 0h-.092c-.03 0-.063.01-.092 0-.066-.022-.12-.07-.185-.093-.03-.01-.062 0-.092 0h-1.57c-.03 0-.063.01-.092 0-.066-.021-.12-.07-.185-.092-.03-.01-.062 0-.092 0-.031 0-.065.014-.093 0-.039-.02-.053-.073-.092-.092-.028-.014-.065.013-.092 0-.04-.02-.062-.062-.093-.093l-.092-.092c-.03-.03-.053-.073-.092-.092-.028-.014-.065.013-.093 0-.039-.02-.061-.062-.092-.093l-.092-.092-.277-.277c-.062-.061-.137-.112-.185-.185-.017-.025.014-.064 0-.092-.02-.039-.062-.061-.092-.092l-.093-.093c-.03-.03-.073-.053-.092-.092-.014-.027.014-.065 0-.092-.02-.04-.073-.054-.092-.093-.014-.027 0-.061 0-.092v-.092c0-.031.013-.065 0-.093-.02-.038-.073-.053-.093-.092-.013-.027 0-.061 0-.092v-.093-.554-.092c0-.03.014-.065 0-.092-.039-.078-.145-.107-.184-.185-.014-.027 0-.061 0-.092v-1.293-.277c0-.03.01-.063 0-.092-.022-.065-.138-.237-.093-.185 1.504 1.748 3.108 3.419 4.607 5.17h-.175zm-.277-10.803c.485-.107-.45 1.059-.184 1.477a44.215 44.215 0 0 0 2.366 3.324h-1.998c-.06 0-.169-.06-.184 0-.12.482.263 1.693-.184 1.478-8.05-3.87-1.577-5.892.184-6.279zm2.216 4.801H41.446c.03 0 .063-.01.092 0 .065.022.12.07.185.093.029.01.061 0 .092 0h.739c.03 0 .065-.014.092 0 .039.019.058.066.092.092.09.066.189.118.277.185.035.026.062.061.093.092l.092.092c.03.031.053.073.092.093.028.013.065-.014.093 0 .039.019.061.061.092.092l.092.092c.031.031.054.073.093.093.027.013.065-.014.092 0 .039.019.062.061.092.092l.37.37c.03.03.073.053.092.092.014.027-.014.064 0 .092l.185.185c.03.03.073.053.092.092.014.027-.014.065 0 .092.02.04.073.054.092.092.014.028 0 .062 0 .093v.923c0 .03-.013.065 0 .092.02.04.073.054.093.093.013.027-.014.065 0 .092.02.04.073.054.092.092.014.028 0 .062 0 .093V30.159c0 .031-.01.064 0 .093.022.065.134.239.092.184-1.394-1.807-2.883-3.55-4.281-5.355h.034z"/></g></g></g><g><g><g><path fill="#ab3a0a" d="M49.29 41.236c1.385-2.4 2.862-4.893 3.97-7.386.462 2.77 1.108 5.54 1.662 8.31z"/></g></g></g><g><g><path fill="#ab3a0a" d="M8.943 6.064L11.99 3.94C7.466 7.172 4.142 12.157 3.22 18.159c-1.755 11.726 6.278 22.713 18.004 24.56 3.417.554 6.833.185 9.88-.739l-3.047 2.124c-3.047 1.016-6.463 1.293-9.88.739C6.45 42.996-1.582 32.009.264 20.283c.923-5.91 4.155-10.988 8.68-14.22z"/></g><g><g><path fill="#ab3a0a" d="M31.103 41.98l-3.047 2.124c-3.047 1.016-6.463 1.293-9.88.739C6.45 42.996-1.582 32.009.264 20.283 1.187 14.28 4.42 9.295 9.036 6.063L11.99 3.94C7.466 7.172 4.142 12.157 3.22 18.159c-1.755 11.726 6.278 22.713 18.004 24.56 3.416.554 6.833.185 9.88-.739z"/></g></g></g></g></g><g><path fill="#f0783c" d="M55.757 19.08c11.726 1.846 19.759 12.834 18.004 24.56-1.754 11.726-12.741 19.758-24.467 17.912-10.064-1.57-17.359-9.88-18.19-19.574-3.047 1.015-6.463 1.292-9.88.738C9.5 40.87 1.467 29.882 3.22 18.156 5.067 6.43 15.962-1.602 27.688.244c10.064 1.57 17.45 9.88 18.19 19.574a20.924 20.924 0 0 1 9.879-.738zm1.477 33.331c1.477.185 2.862.462 4.34.647l-5.633-23.73c-1.292-.184-2.585-.369-3.785-.554l-12.003 20.96c1.385.184 2.77.461 4.155.646l3.324-6.094 8.217 1.293zM33.597 16.68c.185-1.2.37-2.308.554-3.416l-6.094-.924.37-2.123c-1.385-.185-2.77-.462-4.155-.646l-.37 2.123-6.093-.923c-.185 1.2-.37 2.308-.554 3.416l10.433 1.57c-.646 2.954-2.123 5.724-4.432 7.663-.738-2.308-.738-4.432-.461-6.832-1.108-.185-2.309-.277-3.417-.462-.369 3.14-.277 6.094.831 9.14-1.57.647-2.862.74-4.524.74l.092 3.508c2.124 0 3.97-.277 6.002-1.108 2.031 3.047 4.617 4.801 8.125 6.002l1.108-3.324c-2.585-.924-4.616-2.124-6.186-4.432 3.324-2.493 5.447-6.279 6.278-10.249zm7.571 17.358c.267.419-.677 1.537-.184 1.478 1.963-.237 5.234-.17 5.54-2.124.307-1.966-2.823-2.923-4.617-3.786-.447-.215-.064.996-.185 1.478-.015.06-.123 0-.184 0H39.234c.575.848 1.217 1.826 1.934 2.954zm-1.934-2.954c-4.607-6.805-4.85-5.206-4.898-4.986-.007.03 0 .061 0 .092V27.76c0 .03-.014.065 0 .092.039.078.146.107.185.185.013.027 0 .061 0 .092v.739c0 .03-.014.065 0 .092.02.039.072.053.092.092.014.028 0 .062 0 .093v.092c0 .03-.014.065 0 .092.02.04.073.054.092.093.014.027-.013.065 0 .092.02.039.062.062.093.092l.092.093c.03.03.073.053.092.092.014.028-.017.067 0 .092.049.073.123.123.185.185l.277.277.185.185c.027.013.064-.014.092 0 .039.02.061.061.092.092l.093.092c.03.031.053.073.092.093.027.013.065-.014.092 0 .04.02.054.073.093.092.027.014.061 0 .092 0 .03 0 .063-.01.092 0 .066.022.12.07.185.092.03.01.061 0 .092 0H38.214c.03 0 .063-.01.092 0 .065.022.12.071.185.093.029.01.061 0 .092 0h.651zm-.743-6.002c.015-.06.123 0 .185 0H40.672a44.22 44.22 0 0 1-2.367-3.324c-.266-.418.67-1.584.185-1.477-1.761.387-8.235 2.408-.185 6.279.447.215.064-.996.185-1.478zm2.182 0c1.398 1.806 2.886 3.548 4.281 5.355.042.055-.07-.119-.092-.184-.01-.03 0-.062 0-.093v-.092-.277-.923-.277c0-.031.013-.065 0-.093-.02-.039-.073-.053-.093-.092-.013-.027.014-.065 0-.092-.02-.04-.073-.054-.092-.093-.014-.027 0-.061 0-.092v-.185-.554-.184c0-.031.014-.065 0-.093-.02-.038-.073-.053-.092-.092-.014-.027.013-.065 0-.092-.02-.04-.062-.062-.093-.093l-.092-.092c-.03-.03-.073-.053-.092-.092-.014-.028.013-.065 0-.093-.02-.038-.062-.061-.093-.092l-.369-.37c-.03-.03-.053-.072-.092-.092-.028-.013-.065.014-.093 0l-.184-.184c-.031-.031-.054-.073-.093-.093-.027-.013-.064.014-.092 0l-.185-.184c-.03-.031-.057-.066-.092-.093-.089-.066-.188-.118-.277-.184-.035-.026-.053-.073-.092-.093-.028-.013-.062 0-.093 0h-.738c-.031 0-.063.01-.093 0-.065-.021-.119-.07-.184-.092-.03-.01-.062 0-.093 0h-.772z"/></g></g></g></svg>