<svg width="40" height="40" viewBox="0 0 40 40" fill="none" xmlns="http://www.w3.org/2000/svg">
<mask id="mask0" mask-type="alpha" maskUnits="userSpaceOnUse" x="0" y="0" width="40" height="40">
<path fill-rule="evenodd" clip-rule="evenodd" d="M0 20C0 8.9543 8.9543 0 20 0C31.0457 0 40 8.9543 40 20C40 31.0457 31.0457 40 20 40C8.9543 40 0 31.0457 0 20Z" fill="white"/>
</mask>
<g mask="url(#mask0)">
<path fill-rule="evenodd" clip-rule="evenodd" d="M20.0009 9.33301C17.104 9.33301 16.7404 9.34567 15.6027 9.39745C14.4671 9.44945 13.692 9.62923 13.0137 9.89301C12.3122 10.1655 11.7171 10.5299 11.1242 11.123C10.5308 11.7159 10.1664 12.311 9.89304 13.0124C9.62859 13.6908 9.44859 14.4662 9.39747 15.6013C9.34659 16.7391 9.33325 17.1029 9.33325 19.9998C9.33325 22.8967 9.34614 23.2592 9.3977 24.3969C9.44992 25.5325 9.6297 26.3076 9.89326 26.9859C10.1659 27.6874 10.5304 28.2825 11.1235 28.8754C11.7162 29.4688 12.3113 29.8341 13.0124 30.1066C13.6911 30.3703 14.4664 30.5501 15.6018 30.6021C16.7396 30.6539 17.1029 30.6666 19.9996 30.6666C22.8967 30.6666 23.2592 30.6539 24.397 30.6021C25.5325 30.5501 26.3085 30.3703 26.9872 30.1066C27.6886 29.8341 28.2828 29.4688 28.8755 28.8754C29.4688 28.2825 29.8332 27.6874 30.1066 26.9861C30.3688 26.3076 30.5488 25.5323 30.6021 24.3972C30.6533 23.2594 30.6666 22.8967 30.6666 19.9998C30.6666 17.1029 30.6533 16.7393 30.6021 15.6015C30.5488 14.466 30.3688 13.6908 30.1066 13.0126C29.8332 12.311 29.4688 11.7159 28.8755 11.123C28.2821 10.5297 27.6888 10.1652 26.9865 9.89301C26.3065 9.62923 25.531 9.44945 24.3954 9.39745C23.2576 9.34567 22.8954 9.33301 19.9976 9.33301H20.0009ZM19.044 11.2552C19.2298 11.2549 19.4297 11.255 19.6454 11.2551L20.0009 11.2552C22.849 11.2552 23.1865 11.2654 24.3112 11.3165C25.3512 11.3641 25.9157 11.5379 26.2917 11.6839C26.7894 11.8772 27.1443 12.1083 27.5174 12.4817C27.8908 12.855 28.1219 13.2106 28.3157 13.7084C28.4617 14.0839 28.6357 14.6484 28.683 15.6884C28.7341 16.8128 28.7452 17.1506 28.7452 19.9973C28.7452 22.844 28.7341 23.1818 28.683 24.3062C28.6355 25.3462 28.4617 25.9107 28.3157 26.2863C28.1223 26.784 27.8908 27.1385 27.5174 27.5116C27.1441 27.8849 26.7897 28.1161 26.2917 28.3094C25.9161 28.4561 25.3512 28.6294 24.3112 28.677C23.1867 28.7281 22.849 28.7392 20.0009 28.7392C17.1527 28.7392 16.8151 28.7281 15.6907 28.677C14.6506 28.629 14.0862 28.4552 13.71 28.3092C13.2122 28.1158 12.8566 27.8847 12.4833 27.5114C12.11 27.138 11.8788 26.7834 11.6851 26.2854C11.5391 25.9098 11.3651 25.3454 11.3177 24.3054C11.2666 23.1809 11.2564 22.8431 11.2564 19.9946C11.2564 17.1462 11.2666 16.8102 11.3177 15.6857C11.3653 14.6457 11.5391 14.0812 11.6851 13.7052C11.8784 13.2075 12.11 12.8519 12.4833 12.4786C12.8566 12.1052 13.2122 11.8741 13.71 11.6803C14.086 11.5337 14.6506 11.3603 15.6907 11.3125C16.6747 11.2681 17.056 11.2548 19.044 11.2525V11.2552ZM24.4147 14.3059C24.4147 13.599 24.9881 13.0264 25.6948 13.0264V13.0259C26.4014 13.0259 26.9748 13.5993 26.9748 14.3059C26.9748 15.0126 26.4014 15.5859 25.6948 15.5859C24.9881 15.5859 24.4147 15.0126 24.4147 14.3059ZM20.0007 14.522C16.9757 14.5221 14.5231 16.9747 14.5231 19.9998C14.5231 23.025 16.9758 25.4765 20.0009 25.4765C23.0261 25.4765 25.4779 23.025 25.4779 19.9998C25.4779 16.9747 23.0258 14.522 20.0007 14.522ZM23.5565 19.9998C23.5565 18.036 21.9645 16.4442 20.0009 16.4442C18.0371 16.4442 16.4453 18.036 16.4453 19.9998C16.4453 21.9634 18.0371 23.5554 20.0009 23.5554C21.9645 23.5554 23.5565 21.9634 23.5565 19.9998Z" fill="#979797"/>
</g>
</svg>
