<svg xmlns="http://www.w3.org/2000/svg" width="551" height="385" viewBox="0 0 551 385"><g><g><g/><g><path fill="#ffcdbc" d="M28.812 247.91l-2.301-8.92c0-.447-.479-.715-.837-.477a5.205 5.205 0 0 0-2.272 3.938l2.152 1.194-3.198-5.251c-1.465-2.387-1.405-4.027-3.408-2.088-1.973 1.909-2.272 5.041-.658 7.279l-.03.477c-.18 4.266 2.063 8.323 5.8 10.352.03 0 .06.03.06.03l.089.06z"/></g><g><g><path fill="#fff" d="M49.82 153.581c-.24 0-.45-.149-.569-.358a.605.605 0 0 1 .33-.775 22.033 22.033 0 0 1 2.69-.925c.328-.09.657.09.747.418a.596.596 0 0 1-.419.745 20.18 20.18 0 0 0-2.57.895c-.06-.03-.12 0-.21 0z"/></g></g><g><g><path fill="#fff" d="M486.007 318.974c-.06 0-.12 0-.18-.03l-37.993-11.605c-.329-.09-.478-.417-.388-.746.09-.328.418-.477.747-.387l37.993 11.604c.329.09.478.418.389.746-.06.269-.3.418-.568.418z"/></g></g><g><g><path fill="#ffcbbd" d="M533.903 131.382l.12.686a10.79 10.79 0 0 1-.03 4.266l-.27 1.313.777 3.729a2.183 2.183 0 0 1-1.195 2.416c-.359.18-.748.239-1.166.209l-.747-.06a1.34 1.34 0 0 1-.987 1.164l-.687.179a3.327 3.327 0 0 1-2.75-.537l-.3.447c-.388.567-1.225.597-1.614.03a7.923 7.923 0 0 1-1.434-4.057l-.12-1.82c-.06-.925.15-1.88.628-2.685l1.255-2.207 1.614-4.535z"/></g><g><path fill="#ed7e2e" d="M525.977 92.39l1.644 17.571-5.291 23.479 12.704-1.194.957-19.242-2.87-14.14c-.747-4.982-7.144-6.474-7.144-6.474z"/></g><g><path fill="#ffcdbc" d="M510.401 190.604l-1.016 10.322h-10.313l-2.152-13.216z"/></g><g><path fill="#ffcdbc" d="M523.104 190.604l-1.046 10.322h-15.036l-2.182-13.216z"/></g><g><path fill="#ffcbbd" d="M516.439 94.544l-10.373-.269.897-6.652-4.723-12.47 11.688-1.313z"/></g><g><path fill="#ed7e2e" d="M525.2 196.475l.24 13.574h-19.7v-4.982l2.421-4.833 1.166-4.684 3.946.358 1.076 2.894z"/></g><g><g><path fill="#fff" d="M512.048 206.681c-.09 0-.15-.03-.24-.06l-2.42-1.043c-.3-.12-.449-.478-.3-.776.12-.298.479-.448.778-.298l2.122.924 5.201-3.729c.09-.06.21-.119.36-.119h5.858c.21 0 .389.09.478.268l1.973 2.864c.18.269.12.657-.15.836-.268.179-.657.12-.836-.15l-1.794-2.625h-5.35l-5.321 3.819c-.12.06-.24.09-.36.09z"/></g></g><g><path fill="#ed7e2e" d="M509.33 195.55l.39 14.499h-19.7v-4.982l6.636-4.833-3.079-4.684 3.976.358 1.076 2.894z"/></g><g><g><path fill="#fff" d="M509.628 210.023a.599.599 0 0 1-.598-.597v-4.176l-1.704-2.447h-5.35l-5.322 3.819a.59.59 0 0 1-.448.09l-6.248-1.134a.582.582 0 0 1-.478-.686.583.583 0 0 1 .688-.478l5.978 1.104 5.291-3.789c.09-.06.21-.119.359-.119h5.859c.209 0 .388.09.478.269l1.973 2.863c.06.09.12.21.12.329v4.355a.599.599 0 0 1-.598.597z"/></g></g><g><path fill="#ed7e2e" d="M528.697 96.386l-.837 36.635h-34.974l-.986-19.302V97.013a5.136 5.136 0 0 1 4.364-5.072l10.104-1.551 3.916.03 5.829.03 8.997 1.7a4.265 4.265 0 0 1 3.588 4.236z"/></g><g><path fill="#ffcdbc" d="M468.7 113.963l-3.916-1.88c-1.555.21-5.8-.208-6.696-.327-.837-.12-1.555-.627-1.883-1.433-.18-.387-.21-.835-.15-1.252l.12-.806a1.429 1.429 0 0 1-1.196-1.134l-.15-.745a3.53 3.53 0 0 1 .718-2.924l-.21-.776a1.073 1.073 0 0 1 .06-1.76c1.286-.835 2.631-.596 4.096-.149 0 0 1.913.597 3.198 1.82l7.952 3.968z"/></g><g><path fill="#ffcdbc" d="M462.485 99.735c0-.477.269-.925.687-1.163a1.393 1.393 0 0 1 2.063 1.014c.09 2.357.717 4.355 2.361 5.668l-6.546-1.73z"/></g><g><path fill="#ed7e2e" d="M499.077 94.12c1.136 2.894.986 6.146-.448 8.89l-6.726 16.767-1.854 1.64a2.581 2.581 0 0 1-2.6.478l-22.569-8.8 4.962-8.414 14.737 2.864 2.81-8.86a9.395 9.395 0 0 1 8.37-6.533c1.405-.12 2.72.686 3.318 1.969z"/></g><g><path fill="#6041a4" d="M495.61 193.55h30.012l2.272-60.68H492.95z"/></g><g><g><path fill="#fff" d="M510.13 194.15h-.03c-.329-.03-.598-.299-.568-.627l2.362-46.121c0-.209.12-.418.329-.507.03 0 1.853-.985 3.258-3.103a.614.614 0 0 1 .837-.179.612.612 0 0 1 .18.835c-1.256 1.88-2.78 2.954-3.409 3.342l-2.361 45.793a.614.614 0 0 1-.598.567z"/></g></g><g><path fill="#ffcdbc" d="M502.358 79.92l-.09.179-1.434 3.103c-.21.447.12.984.628.984h2.182z"/></g><g><path fill="#ffcbbd" d="M502.358 80.07l-.09.179-1.434 3.103c-.21.447.12.984.628.984h2.182z"/></g><g><path fill="#ffcbbd" d="M510.4 87.772h-4.184a3.874 3.874 0 0 1-3.886-3.879V73.81h11.927v10.083c0 2.148-1.734 3.879-3.856 3.879z"/></g><g><path fill="#6041a4" d="M515.572 75.417a12.038 12.038 0 0 1-5.111 2.297c-1.465.269-2.96.478-4.454.597-1.256.09-2.571.179-3.827-.12-.837-.208-1.644-.626-1.793-1.55-.18-1.045.658-2.089 1.524-2.536 0 0-3.079-.985-.777-2.924.06-.06-.239-1.522-.269-1.67-.12-2.119 1.614-3.64 3.707-3.163 4.005.895 6.008 5.549 10.193 5.967 3.498.328 2.421 1.85.807 3.102z"/></g><g><path fill="#6041a4" d="M507.71 69.66s8.1-3.402 10.133.596c2.033 3.997-1.614 11.306-2.72 12.32-1.106 1.015-7.563.418-7.563.418z"/></g><g><path fill="#ffcbbd" d="M507.532 83.169a2.364 2.364 0 0 1-2.362-2.357v-.835a2.364 2.364 0 0 1 2.362-2.357 2.364 2.364 0 0 1 2.361 2.357v.835a2.345 2.345 0 0 1-2.361 2.357z"/></g><g><g><path fill="#ed7e2e" d="M517.761 90.661l-.687-1.551H506.88c-.807 0-1.554.447-1.943 1.163l-.717 1.343z"/></g><g><path fill="#6041a4" d="M504.756 91.91l-1.046-.566.717-1.342a2.778 2.778 0 0 1 2.481-1.492h10.582l.837 1.91-1.106.477-.538-1.194h-9.804a1.56 1.56 0 0 0-1.405.865z"/></g></g><g><g><path fill="#6041a4" d="M491.9 120.37c-.06 0-.15 0-.21-.03a.605.605 0 0 1-.329-.776l3.946-9.815a.607.607 0 0 1 .777-.328c.3.12.449.478.33.776l-3.947 9.815c-.12.209-.329.358-.568.358z"/></g></g><g><g><path fill="#5e5e5e" d="M499.881 189.223h-4.573a.599.599 0 0 1-.598-.596c0-.328.269-.597.598-.597h3.946l-1.166-36.784a.62.62 0 0 1 .568-.626.62.62 0 0 1 .628.567l1.195 37.41c0 .15-.06.328-.18.447a.672.672 0 0 1-.418.18z"/></g></g><g><g><path fill="#5e5e5e" d="M495.723 141.433a9.64 9.64 0 0 1-1.286-.09.56.56 0 0 1-.508-.656c.03-.328.359-.567.658-.507 4.902.627 6.516-2.834 6.576-2.983.15-.298.478-.448.777-.298.3.119.449.477.3.775 0 .03-1.705 3.76-6.517 3.76z"/></g></g><g><g><path fill="#6041a4" d="M527.888 133.468a.599.599 0 0 1-.598-.597v-24.164a.599.599 0 0 1 1.196 0v24.164a.599.599 0 0 1-.598.597z"/></g></g></g><g><g><path fill="#fff" d="M150.108 331.41a.599.599 0 0 1-.598-.596v-12.59a4.473 4.473 0 0 1 4.484-4.474h7.563a.6.6 0 0 1 .598.597.6.6 0 0 1-.598.596h-7.563a3.295 3.295 0 0 0-3.288 3.282v12.59a.599.599 0 0 1-.598.596z"/></g></g><g><g><path fill="#6041a4" d="M177.108 67.51H162.73l1.794 19.898h10.79l.24-2.744z"/></g><g><g><path fill="#6041a4" d="M170.827 63.63a.611.611 0 0 1-.598-.538c0-.06-.449-5.101 5.111-6.056 3.946-.656 4.454-3.46 4.783-5.28.06-.328.12-.597.18-.835a.58.58 0 0 1 .717-.418c.329.09.508.418.418.716-.06.179-.09.447-.15.716-.328 1.91-.986 5.43-5.739 6.265-4.453.746-4.125 4.594-4.095 4.743a.602.602 0 0 1-.538.657c-.06.03-.06.03-.09.03z"/></g></g><g><g><path fill="#6041a4" d="M167.69 64.29c-.27 0-.51-.179-.569-.417-.299-1.015-1.136-1.73-2.033-2.447l-.239-.209c-1.584-1.342-2.092-2.863-1.524-4.624.09-.328.448-.477.747-.387.329.09.478.447.389.745-.419 1.283-.06 2.327 1.166 3.342l.239.208c.926.776 1.973 1.671 2.391 3.014.09.328-.09.656-.389.745-.06.03-.12.03-.179.03z"/></g></g><g><g><path fill="#6041a4" d="M174.803 81.11a.599.599 0 0 1-.598-.596c0-.329.269-.597.598-.597 2.54 0 4.693-1.82 5.111-4.356l.33-2.058a1.67 1.67 0 0 0-.36-1.283 1.579 1.579 0 0 0-1.195-.567h-5.321a.599.599 0 0 1-.598-.596c0-.329.269-.597.598-.597h5.32c.808 0 1.585.358 2.123.984.538.627.747 1.432.628 2.238l-.329 2.058c-.538 3.103-3.169 5.37-6.307 5.37z"/></g></g></g><g><path fill="#353535" d="M205.59 86.93h-94.28v84.426h94.28z"/></g><g><path fill="#5e5e5e" d="M315.83 86.93h-94.28v84.426h94.28z"/></g><g><path fill="#353535" d="M436.78 69.48H342.5v84.426h94.28z"/></g><g><g><g><path fill="#353535" d="M420.726 172.405H330.78V94.84h2.092v75.477h87.854z"/></g></g><g><g><path fill="#353535" d="M427.153 172.405h-6.427v-2.089h4.334V87.978h-92.188v6.862h-2.092v-8.95h96.373z"/></g></g></g><g><path fill="#5e5e5e" d="M205.59 185.83h-94.28v84.426h94.28z"/></g><g><path fill="#353535" d="M315.83 185.83h-94.28v84.426h94.28z"/></g><g><path fill="#353535" d="M426.11 185.83h-94.28v84.426h94.28z"/></g><g><path fill="#353535" d="M185.44 275.98H91.16v84.426h94.28z"/></g><g><g><path fill="#353535" d="M206.633 369.005H110.26V282.49h96.373zm-94.28-2.089h92.187v-82.338h-92.188z"/></g></g><g><path fill="#353535" d="M315.83 283.53h-94.28v84.426h94.28z"/></g><g><path fill="#5e5e5e" d="M426.11 283.53h-94.28v84.426h94.28z"/></g><g><g><g><path fill="#f28b41" d="M42.53 384.998H25.146a1.058 1.058 0 0 1-1.046-1.044c0-.567.478-1.044 1.046-1.044H42.53c.568 0 1.046.477 1.046 1.044 0 .567-.448 1.044-1.046 1.044z"/></g></g><g><g><path fill="#f28b41" d="M534.316 384.998h-8.28a1.058 1.058 0 0 1-1.046-1.044c0-.567.478-1.044 1.046-1.044h8.28c.568 0 1.047.477 1.047 1.044 0 .567-.479 1.044-1.047 1.044z"/></g></g><g><g><path fill="#f28b41" d="M511.242 384.998H54.666a1.058 1.058 0 0 1-1.046-1.044c0-.567.478-1.044 1.046-1.044h456.576c.568 0 1.046.477 1.046 1.044 0 .567-.449 1.044-1.046 1.044z"/></g></g></g><g><g><path fill="#212121" d="M158.45 93.29c-19.848 0-35.93 16.05-35.93 35.859 0 11.814 5.71 22.285 14.528 28.818a35.934 35.934 0 0 0 21.403 7.04c9.715 0 18.533-3.848 25.02-10.113 6.725-6.503 10.91-15.632 10.91-25.745 0-19.809-16.112-35.859-35.93-35.859z"/></g><g><g><path fill="#ed7e2e" d="M181.02 143.615c-.298 3.133-2.75 5.43-5.679 6.384-2.182.716-4.424 1.164-6.666 1.522-7.054 1.074-14.438 2.804-21.701 2.983-1.047.03-2.123.03-3.169-.03-.598-.03-1.226-.06-1.823-.12-1.435-.118-2.96-.357-4.335-.894-.21-.09-.388-.15-.598-.239l-.538-.268c-.687-.388-1.345-.865-1.853-1.492-2.93-3.43-2.6-9.069-.508-12.828 2.63-4.773 7.563-7.876 9.027-13.335.419-1.581 1.286-4.564 1.166-7.1-.06-1.522-.478-2.894-1.554-3.67-.15-.119-.33-.209-.509-.298l6.906 1.67 5.829 1.403 2.84.686.328.09 3.617.865 1.824.447 5.35 1.283c-.09.179-1.225 1.969-1.853 4.236-.568 2.088-.508 4.385.807 6.205 2.003 2.834 5.8 3.073 8.61 4.714 2.72 1.61 4.752 4.147 4.602 7.428a.572.572 0 0 0-.12.358z"/></g><g><path fill="#ffcdbc" d="M152.059 133.53h-.24a5.608 5.608 0 0 1-5.619-5.608V115.87h15.544v8.025c0 5.31-4.334 9.636-9.685 9.636z"/></g><g><path fill="#ffcdbc" d="M163.747 113.01l-1.077 35.382H151.7l.389-3.55.926-8.86 2.422-22.972z"/></g><g><path fill="#6041a4" d="M183.446 154.887A35.842 35.842 0 0 1 158.426 165a35.933 35.933 0 0 1-21.403-7.04c-.12-1.522.09-3.073.598-4.505.478-1.402 1.255-2.685 2.271-3.819.18-.209.36-.388.568-.567.27-.268.538-.507.837-.745l3.378-2.715.688-.537 1.853-1.492.807-.656 3.109-2.476 1.554-1.223.09 3.729.03.626v.269l10.163-4.893 1.226-.596.18-.09 6.456 4.475a55.328 55.328 0 0 1 12.615 12.142z"/></g><g><path fill="#fff" d="M152.982 135.98l-.18 7.488-.747 1.372-1.435-6.563z"/></g><g><path fill="#ed7e2e" d="M152.86 120.198c2.331-.239 4.573-1.014 5.32-2.924 0 0-.777 5.49 4.006 7.548 1.524.656 3.707.955 5.141-.09 2.242-1.64 1.645-5.011 1.077-7.308-2.601-10.382-14.588-12.292-23.018-7.876-3.078 1.61-5.021 4.862-2.122 7.697 2.362 2.386 6.307 3.31 9.595 2.953z"/></g><g><path fill="#ffcdbc" d="M163.09 128.701a2.963 2.963 0 0 1-2.96-2.953v-1.045a2.963 2.963 0 0 1 2.96-2.953 2.963 2.963 0 0 1 2.959 2.953v1.045c-.03 1.64-1.345 2.953-2.96 2.953z"/></g><g><path fill="#fff" d="M152.05 143.436l10.97-7.786 2.093 4.982-13.063 4.952z"/></g></g></g><g><g><path fill="#212121" d="M476.83 289.44c-19.848 0-35.93 16.05-35.93 35.859 0 11.814 5.71 22.285 14.528 28.818a35.934 35.934 0 0 0 21.403 7.04c9.715 0 18.533-3.848 25.02-10.113 6.725-6.503 10.91-15.632 10.91-25.745 0-19.809-16.082-35.859-35.93-35.859z"/></g><g><path fill="#ed7e2e" d="M492.46 323.018c2.04-4.917-.3-10.554-5.226-12.59-4.927-2.037-10.575.298-12.616 5.214-2.04 4.917.3 10.554 5.226 12.59 4.926 2.037 10.574-.297 12.615-5.214z"/></g><g><path fill="#ed7e2e" d="M477.977 333.354c2.04-4.917-.3-10.554-5.226-12.59-4.926-2.037-10.574.298-12.615 5.215-2.04 4.917.299 10.553 5.225 12.59 4.927 2.037 10.575-.298 12.616-5.215z"/></g><g><path fill="#ed7e2e" d="M511.327 331.084c-1.644 7.547-5.83 17.183-11.838 21.509-.687.507-1.405.955-2.122 1.402-1.883-.388-4.693-3.938-7.234-5.638 0 0-11.479.447-11.658-6.265 0-.448.03-.925.12-1.462 0 0-.09-.239-.24-.686-.12-.358-.269-.835-.448-1.432-.329-1.193-.688-2.804-.807-4.564a30.11 30.11 0 0 1-.06-1.671c.03-1.014.15-2.029.389-3.013.478-1.85 1.434-3.55 3.138-4.803.688-.507 1.525-.955 2.481-1.313.09-.03.15-.06.24-.09a13.332 13.332 0 0 1 1.733-.447s.389-.298 1.017-.656c2.42-1.402 8.519-3.849 11.269 5.28-.21-.686 4.962-1.551 5.53-1.551 3.348-.03 6.397 2.029 8.16 4.863.33.537 0-.12.33.537z"/></g><g><path fill="#ed7e2e" d="M467.84 329.532c-.568-.06-1.166-.09-1.734-.09-4.394-.059-9.625.866-12.345 4.684-1.614 2.268-2.033 5.669-.478 8.085 1.703 2.625 5.26 3.311 8.19 3.49a23.786 23.786 0 0 0 18.593-7.279c.419-.447 1.465-1.283 1.614-1.909.359-1.372-2.301-2.804-3.467-3.52-3.139-1.97-6.726-3.133-10.373-3.46z"/></g><g><g><path fill="#ffcdbc" d="M470.289 329.38h-.24a5.608 5.608 0 0 1-5.619-5.608V311.72h15.544v8.025a9.686 9.686 0 0 1-9.685 9.636z"/></g><g><path fill="#ffcdbc" d="M481.947 308.86l-1.077 35.382H469.9l.389-3.55.926-8.86 2.422-22.972h8.31z"/></g><g><path fill="#5e5e5e" d="M501.673 350.747c-6.457 6.265-15.365 9.725-25.08 9.725-8.01 0-15.394-3.341-21.373-7.756-.12-1.522.12-1.97.628-3.401.478-1.402 1.256-2.685 2.272-3.819.18-.209.359-.388.568-.567a9.95 9.95 0 0 1 .837-.745l3.378-2.715.687-.537 1.854-1.492.807-.656 3.108-2.476 1.555-1.223.09 3.729.03.626v.269l10.163-4.893 1.225-.596.18-.09 6.456 4.475a56.576 56.576 0 0 1 12.615 12.142z"/></g><g><path fill="#fff" d="M471.212 331.83l-.18 7.488-.777 1.372-1.405-6.563z"/></g><g><path fill="#ffcdbc" d="M481.29 324.551a2.963 2.963 0 0 1-2.96-2.953v-1.045a2.963 2.963 0 0 1 2.96-2.953 2.963 2.963 0 0 1 2.959 2.953v1.045a2.963 2.963 0 0 1-2.96 2.953z"/></g><g><path fill="#fff" d="M470.26 339.286l10.97-7.786 2.123 4.982-13.093 4.952z"/></g></g><g><path fill="#ed7e2e" d="M487.837 313.288c1.526-5.03-1.323-10.343-6.363-11.866-5.04-1.523-10.364 1.32-11.89 6.35-1.526 5.03 1.322 10.343 6.363 11.866 5.04 1.524 10.364-1.32 11.89-6.35z"/></g><g><path fill="#ed7e2e" d="M475.04 310.768c1.042-4.41-1.694-8.829-6.112-9.87-4.418-1.041-8.846 1.69-9.89 6.1-1.042 4.409 1.694 8.827 6.112 9.868 4.418 1.042 8.846-1.689 9.89-6.098z"/></g><g><g><path fill="#f28b41" d="M476.837 362.196c-8.011 0-15.604-2.506-22.03-7.25-9.357-6.95-14.947-18.018-14.947-29.653 0-20.346 16.59-36.903 36.977-36.903 9.565 0 18.623 3.64 25.558 10.233.418.387.418 1.074.03 1.461-.389.418-1.047.418-1.465.03-6.517-6.235-15.066-9.636-24.093-9.636-19.251 0-34.885 15.633-34.885 34.815 0 10.978 5.261 21.42 14.11 27.983 6.038 4.475 13.242 6.832 20.775 6.832 9.117 0 17.726-3.49 24.272-9.815 6.846-6.623 10.612-15.483 10.612-25 0-5.22-1.136-10.233-3.348-14.887a1.065 1.065 0 0 1 .508-1.402 1.069 1.069 0 0 1 1.405.507c2.362 4.953 3.557 10.263 3.557 15.782 0 10.083-4.005 19.48-11.24 26.491-6.994 6.713-16.141 10.412-25.796 10.412z"/></g></g></g><g><g><path fill="#212121" d="M268.69 192.18c-19.848 0-35.93 16.05-35.93 35.859a35.6 35.6 0 0 0 8.13 22.703c6.577 8.024 16.59 13.156 27.83 13.156a35.824 35.824 0 0 0 27.531-12.828c5.231-6.235 8.4-14.26 8.4-23.031 0-19.809-16.112-35.859-35.96-35.859z"/></g><g><g><path fill="#ed7e2e" d="M296.25 251.07a35.823 35.823 0 0 1-27.53 12.829c-11.21 0-21.224-5.132-27.83-13.156.837-2.208 2.54-3.938 4.723-4.654l14.259-4.595.717-.238.15-.03 7.772-2.506 7.771 2.506.15.03.717.238 11.21 3.61 3.049.985c2.302.745 4.035 2.625 4.843 4.982z"/></g><g><path fill="#ffcdbc" d="M260.59 242.274c3.587 5.34 10.612 5.877 14.827 1.133l1.016-1.133-1.375-20.734h-12.914z"/></g><g><g><path fill="#fff" d="M268.455 247.695c2.9 0 5.709-1.283 7.742-3.58l1.016-1.133c.389-.448.359-1.104-.09-1.492-.448-.388-1.106-.358-1.494.09l-1.017 1.133c-1.763 1.97-4.214 3.013-6.695 2.864-2.541-.179-4.903-1.58-6.457-3.878-.329-.477-.987-.627-1.465-.298-.478.328-.628.984-.299 1.461 1.913 2.835 4.843 4.595 8.071 4.803.24.03.448.03.688.03z"/></g></g><g><path fill="#ffcdbc" d="M259.28 234.424h14.947V212.05H256.62v19.72a2.664 2.664 0 0 0 2.66 2.654z"/></g><g><path fill="#5e5e5e" d="M275.536 225.06s6.277-4.923 1.225-7.28c0 0 4.783-4.146-.478-5.13 0 0 2.122-7.041-3.587-5.222 0 0-5.291-6.593-8.968.24 0 0-3.617-7.25-7.294-.538 0 0-6.546 1.044-4.782 6.951 0 0-.957 8.055 3.676 5.46 0 0-2.182 4.653 1.495 2.386 0 0 .777-3.013-.329-4.624 0 0 5.38 3.341 7.981.686 0 0 1.435 1.88 4.424.09 0 0 1.226 3.64 3.408 2.356.03 0 .21 8.443 3.229 4.625z"/></g><g><path fill="#ffcdbc" d="M275.178 227.71c1.883 0 3.437-1.7 3.437-3.789v-1.372c0-2.089-1.524-3.789-3.437-3.789-1.884 0-3.438 1.7-3.438 3.789v1.342c0 2.118 1.554 3.819 3.438 3.819z"/></g></g></g><g><g><path fill="#212121" d="M268.69 289.88c-19.848 0-35.93 16.05-35.93 35.859 0 11.694 5.59 22.076 14.289 28.61.388.298.777.566 1.165.835.389.268.807.537 1.226.805a36.004 36.004 0 0 0 17.965 5.579c.419.03.867.03 1.286.03 2.75 0 5.44-.299 8.01-.895a38.13 38.13 0 0 0 6.01-1.94 23.77 23.77 0 0 0 1.972-.924 35.723 35.723 0 0 0 5.5-3.371c8.759-6.534 14.438-16.975 14.438-28.73.03-19.808-16.082-35.858-35.93-35.858z"/></g><g><g><path fill="#6041a4" d="M262.742 304.38c-6.008 1.044-10.79 6.086-10.88 12.261-.06 4.057.956 7.727-.778 11.605-1.494 3.371-5.709 7.488-4.005 11.426 1.435 3.311 6.486 5.609 9.954 5.19 1.584-.178 2.93-1.342 3.707-2.744.777-1.372 4.573-1.372 4.812-2.953 1.764-10.949-2.54-23.687-2.81-34.785.03 0 .03 0 0 0z"/></g><g><path fill="#5e5e5e" d="M282.716 340.989v17.78a36.23 36.23 0 0 1-6.009 1.94 35.45 35.45 0 0 1-8.01.894c-.45 0-.868 0-1.286-.03-6.606-.238-12.764-2.237-17.965-5.578-.419-.269-.808-.537-1.226-.806l3.677-11.247.209-.656 1.943-1.104 3.826-2.178c.27-.149.538-.298.807-.417a9.843 9.843 0 0 1 2.75-.865 7.81 7.81 0 0 1 1.435-.15c.478-.03.927 0 1.405.03.18 0 .359.03.568.06l.867.12 1.255.148 3.438.448z"/></g><g><path fill="#5e5e5e" d="M258.917 339.35l-.269.239-.15.119-.239.209-1.106.984a30.428 30.428 0 0 0-2.72 3.49c-.06.09-.12.21-.179.299-.717 1.164-1.375 2.357-1.913 3.61l-1.674 3.848a19.249 19.249 0 0 0-.777 2.059c-.18.596-.359 1.193-.479 1.79-.418-.269-.807-.537-1.225-.806-.389-.268-.777-.537-1.166-.835.21-.776.418-1.581.658-2.357.956-3.073 2.182-5.996 3.796-8.234.299-.417.598-.805.897-1.163.15-.18.329-.358.478-.507 1.375-1.432 2.99-2.387 4.902-2.655.419-.06.778-.09 1.166-.09z"/></g><g><path fill="#ffcdbc" d="M270.638 344.42l-11.718 5.43c2.212-6.056 3.288-12.023 1.913-17.84h9.028z"/></g><g><path fill="#5e5e5e" d="M284.688 357.846c-.658.328-1.316.626-1.973.924a36.238 36.238 0 0 1-6.008 1.94c-2.571.596-5.262.895-8.012.895-.448 0-.867 0-1.285-.03l.21-5.579.238-6.533v-.239l.06-1.999.06-1.402.777-.239 4.125-1.342 1.047-.328 8.31-2.715.15-.06.328-.119v.06l.09.686.478 3.997v.03l1.136 9.577z"/></g><g><path fill="#ffcdbc" d="M273.631 332.363c-2.66 1.88-7.742 2.685-12.465 2.477a5.443 5.443 0 0 1-4.574-2.894c-2.81-5.37 1.256-15.513 2.332-22.136l11.09 3.162z"/></g><g><path fill="#5e5e5e" d="M290.19 354.474a35.724 35.724 0 0 1-5.5 3.371c-.658.328-1.315.627-1.973.925a36.237 36.237 0 0 1-6.008 1.94l-.478-2.865-1.585-9.397-.179-1.134-.568-3.46-.09-.597-.179-1.044 1.405-.179 7.144-.895.18-.03.328-.06.748-.089.627 1.283.778 1.58.388.777 3.258 6.563z"/></g><g><path fill="#6041a4" d="M269.742 326.22c-.568-.477-1.225-.894-1.704-1.461-1.375-1.581-1.255-4.207.24-5.668-2.9-.358-5.44-2.685-6.009-5.55-1.375-.148-2.99-.447-3.647-1.67-.329-.626-.329-1.402-.209-2.088.658-3.55 3.737-5.4 7.144-5.668 3.348-.269 6.875.686 9.685 2.565 1.435.955 2.78 2.208 3.707 3.73 1.076 1.79 1.166 3.788 1.704 5.757.598 2.267 1.943 4.266 2.84 6.444a18.375 18.375 0 0 1 .926 11.038c-.209.895-.568 1.88-1.375 2.327 1.555.149 3.02 1.104 3.767 2.476.747 1.372.747 3.132 0 4.505-1.046 1.909-3.258 2.864-5.351 3.46-2.481.686-5.112 1.074-7.682.865-2.123-.178-4.335-.805-5.71-2.416-1.763-2.029-1.704-5.19-.478-7.577.837-1.671 2.152-3.043 3.049-4.684.897-1.641 1.285-3.789.21-5.31a7.453 7.453 0 0 0-1.107-1.074z"/></g></g></g><g><g><path fill="#212121" d="M138.3 282.34c-19.848 0-35.93 16.05-35.93 35.859 0 9.218 3.497 17.63 9.207 23.985a35.997 35.997 0 0 0 5.74 5.131 35.881 35.881 0 0 0 12.494 5.728c2.72.657 5.56 1.015 8.46 1.015 3.258 0 6.397-.418 9.416-1.253 5.23-1.402 9.954-3.968 13.96-7.369a36.674 36.674 0 0 0 5.59-5.996 35.627 35.627 0 0 0 6.994-21.241c0-19.81-16.082-35.859-35.93-35.859z"/></g><g><g><g><path fill="#6041a4" d="M167.236 339.47a35.418 35.418 0 0 1-5.59 5.996c-4.006 3.4-8.729 5.966-13.96 7.368.359-.894.657-1.85.628-2.863-.03-2.387-.897-4.744-.807-7.13.209-5.221 4.304-8.145 9.296-7.996.299 0 .568.03.867.06 3.258.328 6.158 1.97 8.729 3.938.328.179.597.388.837.626z"/></g></g><g><g><path fill="#6041a4" d="M161.68 345.465c-4.005 3.401-8.728 5.967-13.96 7.369a35.889 35.889 0 0 1-17.876.239 35.635 35.635 0 0 1-12.494-5.728v-6.832l.927-3.073 2.002-.418 12.047-2.565 2.63-.567h2.332l3.886.03h1.136l2.81.03h.687l11.928.925v.03l3.706 7.458.12 1.402z"/></g></g><g><g><path fill="#6041a4" d="M129.904 346.149v.09l-.06 5.906v.955a35.635 35.635 0 0 1-12.495-5.728 34.746 34.746 0 0 1-5.739-5.131c.06-.09.12-.18.15-.269.119-.208.239-.387.388-.596a9.937 9.937 0 0 1 4.902-3.76 9.622 9.622 0 0 1 3.199-.566c.807 0 1.614.06 2.421.268.688.15 1.375.388 2.033.716.15.06.299.15.448.21.12.059.27.148.389.208.09.06.15.09.239.15.15.089.299.178.448.298a9.75 9.75 0 0 1 1.196 1.014 8.11 8.11 0 0 1 1.016 1.253c.24.358.449.716.628 1.074.12.239.24.507.329.746.299.954.508 2.028.508 3.162z"/></g></g><g><path fill="#ffcdbc" d="M136.423 341.465l9.207-7.577V313.87h-16.74l4.304 26.402c.27 1.491 2.063 2.148 3.229 1.193z"/></g><g><path fill="#ffcdbc" d="M131.971 330.215c7.563 0 13.661-6.116 13.661-13.633v-7.518l-4.514-4.684h-12.674l-4.334 4.922-.12 12.978c0 4.385 3.587 7.935 7.981 7.935z"/></g><g><path fill="#ed7e2e" d="M124.079 314.492c-.807.09-1.704.179-2.302-.358-.538-.478-.628-1.313-.418-1.999.209-.686.687-1.253 1.165-1.82-.807.955-8.07-3.67-2.6-6.324 1.315-.657 3.348-1.104 4.035-2.566.658-1.402.15-3.073.747-4.505 1.585-3.848 7.354-1.103 8.819 1.432.12.21.239.448.418.627.478.447 1.256.388 1.853.09.598-.3 1.077-.747 1.674-1.045.957-.507 2.183-.507 3.14-.03.986.478 1.673 1.462 1.852 2.536 2.003-.298 4.156.597 5.351 2.238 1.196 1.64 1.405 3.967.478 5.757a7.636 7.636 0 0 1 2.392 3.43c.15.478.269.985.12 1.463-.27.805-1.166 1.163-1.944 1.402a73.156 73.156 0 0 1-5.709 1.551c-.598-2.178-1.435-4.624-3.557-5.46-2.511-.984-5.83.806-7.892-.954-.358-.298-.657-.716-1.076-.895-.598-.268-1.315-.03-1.913.239-2.122 1.074-3.826 2.953-4.633 5.19z"/></g><g><path fill="#ffcdbc" d="M145.476 322.727a3.874 3.874 0 0 1-3.886-3.878v-1.64a3.874 3.874 0 0 1 3.886-3.879 3.874 3.874 0 0 1 3.886 3.878v1.641c.03 2.118-1.734 3.878-3.886 3.878z"/></g></g></g><g><g><path fill="#212121" d="M61.57 89.08c-19.848 0-35.93 16.05-35.93 35.859 0 9.218 3.497 17.63 9.207 23.985a35.992 35.992 0 0 0 5.74 5.131 35.88 35.88 0 0 0 12.494 5.728c2.72.657 5.56 1.015 8.46 1.015 3.258 0 6.397-.418 9.416-1.253 5.23-1.402 9.954-3.968 13.96-7.369a36.669 36.669 0 0 0 5.59-5.996 35.627 35.627 0 0 0 6.994-21.241c0-19.809-16.082-35.859-35.93-35.859z"/></g><g><g><path fill="#353535" d="M90.535 145.58a35.421 35.421 0 0 1-5.59 5.996c-4.005 3.4-8.728 5.966-13.96 7.368.36-.895.658-1.85.629-2.863-.03-2.387-.897-4.744-.807-7.13.209-5.221 4.304-8.145 9.296-7.996.299 0 .568.03.867.06 3.258.328 6.158 1.97 8.728 3.938.3.209.568.418.837.627z"/></g></g><g><g><path fill="#353535" d="M84.95 151.575c-4.005 3.401-8.728 5.967-13.96 7.369a35.889 35.889 0 0 1-17.876.239 35.635 35.635 0 0 1-12.494-5.729v-6.831l.927-3.073 2.002-.418 12.047-2.565 2.63-.567h2.332l3.886.03h1.136l2.81.03h.688l11.927.924v.03l3.706 7.458.12 1.403z"/></g></g><g><g><path fill="#353535" d="M53.174 152.269v.09l-.06 5.876v.955a35.635 35.635 0 0 1-12.495-5.728 34.744 34.744 0 0 1-5.739-5.131c.06-.09.12-.18.15-.269.119-.208.239-.387.388-.596a9.937 9.937 0 0 1 4.902-3.76 9.622 9.622 0 0 1 3.199-.566c.807 0 1.614.06 2.421.268.688.15 1.375.388 2.033.716.15.06.299.15.448.21.12.059.27.148.389.208.09.06.15.09.239.15.15.089.299.178.448.298.419.298.837.656 1.196 1.014a8.11 8.11 0 0 1 1.016 1.253c.24.358.449.716.628 1.074.12.239.24.507.329.746a10.34 10.34 0 0 1 .508 3.192z"/></g></g><g><path fill="#ffcdbc" d="M59.683 148.205l9.207-7.577V120.61H52.15l4.305 26.402c.269 1.491 2.062 2.148 3.228 1.193z"/></g><g><path fill="#ffcdbc" d="M55.232 136.965c7.562 0 13.66-6.115 13.66-13.633v-7.488l-4.513-4.684H51.704l-4.304 4.893-.12 12.977c-.03 4.385 3.557 7.935 7.952 7.935z"/></g><g><path fill="#6041a4" d="M69.824 123.387s7.294-5.4 1.435-7.965c0 0 5.56-4.565-.568-5.639 0 0 2.451-7.726-4.155-5.727 0 0-6.128-7.22-10.433.238 0 0-4.214-7.965-8.489-.567 0 0-7.623 1.164-5.56 7.638 0 0-1.106 8.83 4.275 5.996 0 0-2.541 5.131 1.733 2.625 0 0 .897-3.311-.388-5.071 0 0 6.247 3.64 9.266.745 0 0 1.674 2.089 5.142.09 0 0 1.435 3.968 3.976 2.566.03 0 .239 9.278 3.766 5.071z"/></g><g><path fill="#ffcdbc" d="M68.746 129.477a3.874 3.874 0 0 1-3.886-3.878v-1.64a3.874 3.874 0 0 1 3.886-3.879 3.874 3.874 0 0 1 3.886 3.878v1.641c.03 2.118-1.734 3.878-3.886 3.878z"/></g><g><g><path fill="#f28b41" d="M61.567 161.846c-2.93 0-5.86-.358-8.699-1.044a36.932 36.932 0 0 1-12.884-5.907c-2.152-1.522-4.125-3.312-5.918-5.28a37.76 37.76 0 0 1-2.422-2.984c-.328-.477-.239-1.133.24-1.461.478-.329 1.136-.24 1.464.238.718.985 1.495 1.94 2.302 2.834a32.734 32.734 0 0 0 5.59 4.982c3.677 2.655 7.742 4.505 12.136 5.579 2.69.656 5.44.985 8.22.985 3.11 0 6.188-.418 9.148-1.194a35.304 35.304 0 0 0 13.54-7.16 34.364 34.364 0 0 0 5.411-5.817c4.424-5.996 6.786-13.126 6.786-20.644 0-19.212-15.664-34.815-34.884-34.815-19.221 0-34.915 15.603-34.915 34.785 0 3.64.568 7.25 1.674 10.71.18.537-.12 1.134-.687 1.313a1.042 1.042 0 0 1-1.315-.687 37.16 37.16 0 0 1-1.794-11.336c0-20.346 16.59-36.903 36.977-36.903 20.386 0 36.977 16.557 36.977 36.903 0 7.936-2.482 15.513-7.204 21.867a37.446 37.446 0 0 1-5.74 6.176c-4.155 3.55-9.117 6.175-14.378 7.577-3.079.865-6.337 1.283-9.625 1.283z"/></g></g></g><g><g><path fill="#212121" d="M378.97 192.18c-19.848 0-35.93 16.05-35.93 35.859 0 11.366 5.29 21.48 13.541 28.043a35.793 35.793 0 0 0 22.39 7.816c6.905 0 13.331-1.94 18.832-5.31a52.069 52.069 0 0 0 2.122-1.403c6.008-4.325 10.642-10.441 13.093-17.571a36.153 36.153 0 0 0 1.913-11.575c-.03-19.809-16.112-35.859-35.96-35.859z"/></g><g><g><path fill="#6041a4" d="M412.984 239.616a35.704 35.704 0 0 1-13.093 17.572c-.687.507-1.405.954-2.122 1.402-1.883-.388-4.095-1.283-6.636-2.983 0 0-11.479.447-11.658-6.265 0-.448.03-.925.12-1.462 0 0-.09-.239-.24-.686-.12-.358-.269-.835-.448-1.432-.329-1.193-.688-2.804-.807-4.565a30.11 30.11 0 0 1-.06-1.67c.03-1.014.15-2.029.389-3.013.478-1.85 1.434-3.55 3.138-4.803.688-.507 1.525-.955 2.481-1.313.09-.03.15-.06.24-.09a13.33 13.33 0 0 1 1.733-.447s.389-.298 1.017-.656c2.42-1.402 8.519-3.849 11.269 5.28-.21-.686 4.962-1.551 5.53-1.551 3.348-.03 6.397 2.028 8.16 4.863.33.537.688 1.133.987 1.82z"/></g><g><path fill="#ed7e2e" d="M399.924 257.185c-.688.508-1.405.955-2.122 1.403-5.47 3.37-11.928 5.31-18.833 5.31-8.46 0-16.231-2.924-22.389-7.816.06-1.462.508-2.834 1.226-4.058a8.83 8.83 0 0 1 5.56-4.057l8.37-1.91 1.763-.387 5.41.09 1.944.03 3.467.059 2.093.567a21.954 21.954 0 0 1 13.51 10.77z"/></g><g><path fill="#6041a4" d="M368.83 236.752c-.568-.06-1.166-.09-1.734-.09-4.394-.059-9.625.866-12.345 4.684-1.614 2.268-2.033 5.669-.478 8.085 1.703 2.625 5.26 3.311 8.19 3.49a23.787 23.787 0 0 0 18.593-7.279c.419-.447 1.465-1.283 1.614-1.909.359-1.372-2.301-2.804-3.467-3.52a23.914 23.914 0 0 0-10.373-3.46z"/></g><g><path fill="#ffcdbc" d="M384.322 245.847L368.36 257.45l3.468-11.604V229.2h12.495z"/></g><g><path fill="#ffcdbc" d="M384.315 220.76H371.82v20.435h12.495z"/></g><g><path fill="#ffcdbc" d="M385.123 221.124v4.296c0 6.98-5.68 12.649-12.675 12.649-4.842 0-8.758-3.908-8.758-8.741v-6.474c0-5.549 4.514-10.024 10.044-10.024h3.049c4.603-.03 8.34 3.7 8.34 8.294z"/></g><g><path fill="#6041a4" d="M386.77 222.846c-.449 2.357-1.196 6.354-1.196 6.354-8.4-3.102-11.688-6.653-13.422-11.784-1.853 3.849-5.53 5.997-10.432 7.1v-1.282c0-5.012 3.228-9.01 7.802-10.83 4.454-1.73 10.761-1.85 14.438 1.581l.239.24c2.242 2.266 3.169 5.518 2.57 8.62z"/></g><g><path fill="#6041a4" d="M383.694 212.795c0 3.49-2.84 6.324-6.337 6.324s-6.337-2.834-6.337-6.324c0-3.49 2.84-6.325 6.337-6.325 3.498 0 6.337 2.834 6.337 6.325z"/></g><g><g><path fill="#fff" d="M383.686 213.81c-.12 0-.24-.03-.359-.119-3.348-2.894-8.639-2.745-12.136-1.76-.299.09-.598-.09-.658-.358-.09-.298.09-.597.359-.656 3.946-1.104 9.446-1.164 13.123 1.998.239.21.239.537.06.746-.06.09-.24.15-.389.15z"/></g></g><g><path fill="#ffcdbc" d="M383.326 232.13a3.81 3.81 0 0 1-3.826-3.82v-1.371a3.81 3.81 0 0 1 3.826-3.819 3.81 3.81 0 0 1 3.826 3.819v1.372a3.81 3.81 0 0 1-3.826 3.818z"/></g></g></g><g><g><path fill="#212121" d="M389.64 75.84c-19.848 0-35.93 16.05-35.93 35.859 0 9.964 4.065 18.973 10.642 25.477 5.41 5.34 12.495 8.98 20.416 10.054 1.584.208 3.229.328 4.873.328h.866c10.523-.239 19.909-5.012 26.336-12.41 5.44-6.295 8.758-14.47 8.758-23.45-.03-19.808-16.112-35.858-35.96-35.858z"/></g><g><g><path fill="#fff" d="M398.902 124.995c-.03.03-.06.06-.06.119-.18.239-.359.507-.508.746-3.677 5.4-6.158 14.767-7.802 21.688h-.867c-1.644 0-3.288-.12-4.872-.328-.06-.865-.09-1.73-.12-2.625v-.269c0-.298 0-.626-.03-.925-.12-7.368.598-15.005 1.465-18.347l6.576-1.014 5.201.805z"/></g><g><path fill="#ffcdbc" d="M398.934 125.032l-12.196 10.591-.628-10.59.299-22.733h12.525z"/></g><g><path fill="#ffcdbc" d="M391.436 123.6h-6.367c-3.259 0-5.919-2.655-5.919-5.906V102.3h18.234v15.394a5.933 5.933 0 0 1-5.948 5.907z"/></g><g><path fill="#6041a4" d="M399.356 104.743c-2.302 1.79-4.992 2.954-7.832 3.49-2.272.418-4.544.746-6.816.895-1.943.15-3.946.269-5.859-.178-1.285-.299-2.51-.955-2.78-2.387-.299-1.581 1.017-3.162 2.332-3.878 0 0-4.693-1.522-1.196-4.475.09-.09-.388-2.327-.388-2.566-.18-3.252 2.45-5.549 5.65-4.833 6.127 1.373 9.176 8.503 15.603 9.159 5.41.537 3.767 2.834 1.286 4.773z"/></g><g><path fill="#6041a4" d="M387.34 95.913s12.376-5.19 15.484.895c3.139 6.116-2.48 17.273-4.155 18.854-1.704 1.552-5.081-10.918-5.081-10.918z"/></g><g><path fill="#ffcdbc" d="M397.737 117.753a3.594 3.594 0 0 1-3.587-3.58v-1.283a3.594 3.594 0 0 1 3.587-3.58 3.594 3.594 0 0 1 3.587 3.58v1.283a3.575 3.575 0 0 1-3.587 3.58z"/></g><g><g><path fill="#6041a4" d="M384.647 144.6c.03.895.06 1.76.12 2.626-7.922-1.074-15.006-4.714-20.417-10.054l.568-1.313c.09-.149.15-.268.24-.387 1.494-2.417 3.646-4.326 6.157-5.58a13.49 13.49 0 0 1 2.361-.954c.03 0 .03 0 .06-.03l3.498-1.103 8.758-2.745h.06c-.867 3.341-1.555 10.978-1.465 18.347 0 .298 0 .627.03.925.03.09.03.179.03.268z"/></g><g><path fill="#6041a4" d="M416.845 135.143c-6.427 7.399-15.813 12.142-26.335 12.41 1.644-6.92 4.125-16.288 7.802-21.688.18-.239.359-.507.508-.746.03-.03.06-.06.06-.119h.03l.12.03 1.344.209 5.411.835a14.049 14.049 0 0 1 11.06 9.07z"/></g></g></g></g><g><g><path fill="#212121" d="M269.32 1.04c-19.848 0-35.93 16.05-35.93 35.859 0 9.964 4.065 18.973 10.642 25.477 5.41 5.34 12.495 8.98 20.416 10.054 1.584.208 3.229.328 4.873.328h.866c10.523-.239 19.909-5.012 26.336-12.41 5.44-6.295 8.758-14.47 8.758-23.45-.03-19.808-16.112-35.858-35.96-35.858z"/></g><g><g><path fill="#fff" d="M278.592 50.205c-.03.03-.06.06-.06.119-.18.239-.359.507-.508.746-3.677 5.4-6.158 14.767-7.802 21.688h-.867c-1.644 0-3.288-.12-4.872-.328-.06-.865-.09-1.73-.12-2.625v-.269c0-.298 0-.626-.03-.925-.12-7.368.598-15.005 1.465-18.347l6.576-1.014 5.201.805z"/></g><g><path fill="#ffcdbc" d="M278.584 50.242l-12.166 10.561-.658-10.56.329-22.733h12.495z"/></g><g><path fill="#ffcdbc" d="M271.116 48.81h-6.367c-3.259 0-5.919-2.655-5.919-5.906V27.51h18.234v15.394c-.03 3.251-2.69 5.906-5.948 5.906z"/></g><g><g><path fill="#ed7e2e" d="M264.327 69.81c.03.895.06 1.76.12 2.626-7.922-1.074-15.006-4.714-20.417-10.054l.568-1.313c.09-.149.15-.268.24-.387 1.494-2.417 3.646-4.326 6.157-5.58a13.488 13.488 0 0 1 2.361-.954c.03 0 .03 0 .06-.03l3.498-1.103 8.758-2.745h.06c-.867 3.341-1.555 10.978-1.465 18.347 0 .298 0 .627.03.925.03.09.03.179.03.268z"/></g><g><path fill="#ed7e2e" d="M296.495 60.353c-6.427 7.399-15.813 12.142-26.335 12.41 1.644-6.92 4.125-16.288 7.802-21.688.18-.239.359-.507.508-.746.03-.03.06-.06.06-.119h.03l.12.03 1.344.209 5.411.835a14.048 14.048 0 0 1 11.06 9.07z"/></g></g><g><path fill="#ffcdbc" d="M277.427 42.963a3.594 3.594 0 0 1-3.587-3.58V38.1a3.594 3.594 0 0 1 3.587-3.58 3.594 3.594 0 0 1 3.587 3.58v1.283a3.594 3.594 0 0 1-3.587 3.58z"/></g></g><g><path fill="#5e5e5e" d="M259.068 33.352c-.748.09-1.585.149-2.153-.328-.508-.448-.598-1.224-.388-1.88.209-.656.657-1.163 1.076-1.7-.748.895-7.533-3.431-2.421-5.907 1.255-.597 3.138-1.044 3.796-2.417.628-1.312.15-2.863.687-4.206 1.495-3.61 6.876-1.044 8.25 1.343.12.208.21.417.39.566.448.418 1.165.358 1.733.09.538-.269 1.016-.716 1.554-.985.897-.477 2.033-.477 2.93-.03.897.448 1.584 1.373 1.734 2.357 1.883-.298 3.886.537 5.022 2.089 1.135 1.521 1.315 3.699.448 5.4a7.42 7.42 0 0 1 2.242 3.221c.15.448.269.925.12 1.372-.24.746-1.077 1.074-1.824 1.313a66.923 66.923 0 0 1-5.32 1.462c-.569-2.029-1.346-4.326-3.319-5.101-2.361-.925-5.44.775-7.353-.895-.33-.299-.598-.657-1.017-.836-.568-.238-1.225-.03-1.793.239a8.62 8.62 0 0 0-4.394 4.833z"/></g><g><g><path fill="#f28b41" d="M269.327 73.806c-1.674 0-3.378-.12-5.022-.328-7.981-1.074-15.245-4.654-21.014-10.352-7.055-7.01-10.941-16.319-10.941-26.223C232.35 16.557 248.94 0 269.327 0c5.32 0 10.492 1.104 15.305 3.282.538.238.747.865.508 1.372-.24.537-.867.746-1.375.507a35.247 35.247 0 0 0-14.438-3.073c-19.25 0-34.885 15.633-34.885 34.815 0 9.367 3.677 18.138 10.313 24.731 5.44 5.37 12.286 8.741 19.819 9.756 1.823.238 3.707.358 5.56.298 9.805-.239 19.131-4.624 25.558-12.052a34.814 34.814 0 0 0 8.49-22.763 34.8 34.8 0 0 0-12.107-26.372 1.04 1.04 0 0 1-.12-1.462 1.045 1.045 0 0 1 1.465-.119 36.821 36.821 0 0 1 12.824 27.953 36.92 36.92 0 0 1-8.998 24.135c-6.815 7.876-16.71 12.53-27.082 12.768-.24.03-.538.03-.837.03z"/></g></g></g><g><path fill="#212121" d="M378.97 289.44c-19.848 0-35.93 16.05-35.93 35.859 0 11.694 5.59 22.076 14.288 28.61.39.298.778.566 1.166.835.389.268.807.537 1.226.805a36.004 36.004 0 0 0 17.965 5.579c.419.03.867.03 1.286.03 2.75 0 5.44-.299 8.01-.895a38.13 38.13 0 0 0 6.01-1.94 23.77 23.77 0 0 0 1.972-.924 35.723 35.723 0 0 0 5.5-3.371c8.759-6.534 14.438-16.975 14.438-28.73 0-19.808-16.082-35.858-35.93-35.858z"/></g><g><path fill="#212121" d="M158.45 192.18c-19.848 0-35.93 16.05-35.93 35.859 0 11.694 5.59 22.076 14.289 28.61.388.298.777.566 1.165.835.389.268.807.537 1.226.805a36.003 36.003 0 0 0 17.965 5.579c.419.03.867.03 1.286.03 2.75 0 5.44-.299 8.01-.895a38.14 38.14 0 0 0 6.01-1.94 23.705 23.705 0 0 0 1.972-.924 35.72 35.72 0 0 0 5.5-3.371c8.759-6.534 14.438-16.975 14.438-28.73 0-19.808-16.112-35.858-35.93-35.858z"/></g><g><path fill="#212121" d="M268.69 93.29c-19.848 0-35.93 16.05-35.93 35.859 0 11.694 5.59 22.076 14.289 28.61.388.298.777.566 1.165.835.389.268.807.537 1.226.805a36.003 36.003 0 0 0 17.965 5.579c.419.03.867.03 1.286.03 2.75 0 5.44-.299 8.01-.895a38.14 38.14 0 0 0 6.01-1.94 23.705 23.705 0 0 0 1.972-.924 35.715 35.715 0 0 0 5.5-3.371c8.759-6.534 14.438-16.975 14.438-28.73.03-19.808-16.082-35.858-35.93-35.858z"/></g><g><path fill="#f28b41" d="M305.251 44.93c4.441 0 8.041-3.593 8.041-8.025s-3.6-8.025-8.04-8.025c-4.442 0-8.042 3.593-8.042 8.025s3.6 8.025 8.041 8.025z"/></g><g><path fill="#f28b41" d="M64.6 97.11c4.113-1.669 6.093-6.35 4.42-10.456-1.671-4.105-6.362-6.081-10.476-4.413-4.114 1.67-6.094 6.35-4.422 10.456 1.672 4.106 6.363 6.082 10.477 4.413z"/></g><g><g><path fill="#f28b41" d="M22.442 241.378h-2.093v-39.469a6.742 6.742 0 0 0-6.755-6.742H8.572c-4.335 0-7.832-3.52-7.832-7.816V48.122C.74 42.424 5.373 37.8 11.083 37.8h41.221c5.71 0 10.343 4.624 10.343 10.322V89.68h-2.092V48.122c0-4.534-3.707-8.234-8.25-8.234H11.052c-4.544 0-8.25 3.7-8.25 8.234v139.229c0 3.162 2.57 5.728 5.739 5.728h5.022c4.872 0 8.848 3.968 8.848 8.83v39.469z"/></g></g><g><path fill="#f28b41" d="M476.121 298.24c4.441 0 8.041-3.593 8.041-8.025s-3.6-8.025-8.04-8.025c-4.442 0-8.042 3.593-8.042 8.025s3.6 8.025 8.041 8.025z"/></g><g><g><path fill="#f28b41" d="M477.163 239.38h-2.093v50.835h2.093z"/></g></g><g><g><g><g><g><path fill="#fff" d="M137.17 217.238v-9.218"/></g><g><path fill="#ed7e2e" d="M137.166 218.287a1.058 1.058 0 0 1-1.046-1.045v-9.218c0-.567.478-1.044 1.046-1.044.568 0 1.046.477 1.046 1.044v9.218a1.02 1.02 0 0 1-1.046 1.045z"/></g></g><g><g><path fill="#fff" d="M146.407 208.02h-9.237"/></g><g><path fill="#ed7e2e" d="M146.403 209.098h-9.237a1.058 1.058 0 0 1-1.046-1.044c0-.567.478-1.044 1.046-1.044h9.237c.568 0 1.046.477 1.046 1.044 0 .567-.478 1.044-1.046 1.044z"/></g></g></g><g><g><g><path fill="#fff" d="M170.47 208.02h9.237"/></g><g><path fill="#ed7e2e" d="M179.703 209.098h-9.237a1.058 1.058 0 0 1-1.046-1.044c0-.567.478-1.044 1.046-1.044h9.237c.568 0 1.046.477 1.046 1.044 0 .567-.478 1.044-1.046 1.044z"/></g></g><g><g><path fill="#fff" d="M179.7 217.238v-9.218"/></g><g><path fill="#ed7e2e" d="M179.706 218.287a1.058 1.058 0 0 1-1.046-1.045v-9.218c0-.567.478-1.044 1.046-1.044.568 0 1.046.477 1.046 1.044v9.218c0 .597-.478 1.045-1.046 1.045z"/></g></g></g></g><g><g><g><g><path fill="#fff" d="M179.7 241.26v9.218"/></g><g><path fill="#ed7e2e" d="M179.706 251.517a1.058 1.058 0 0 1-1.046-1.045v-9.218c0-.567.478-1.044 1.046-1.044.568 0 1.046.477 1.046 1.044v9.218c0 .567-.478 1.045-1.046 1.045z"/></g></g><g><g><path fill="#fff" d="M170.47 250.47h9.237"/></g><g><path fill="#ed7e2e" d="M179.703 251.518h-9.237a1.058 1.058 0 0 1-1.046-1.044c0-.567.478-1.044 1.046-1.044h9.237c.568 0 1.046.477 1.046 1.044 0 .567-.478 1.044-1.046 1.044z"/></g></g></g><g><g><g><path fill="#fff" d="M146.407 250.47h-9.237"/></g><g><path fill="#ed7e2e" d="M146.403 251.518h-9.237a1.058 1.058 0 0 1-1.046-1.044c0-.567.478-1.044 1.046-1.044h9.237c.568 0 1.046.477 1.046 1.044 0 .567-.478 1.044-1.046 1.044z"/></g></g><g><g><path fill="#fff" d="M137.17 241.26v9.218"/></g><g><path fill="#ed7e2e" d="M137.166 251.517a1.058 1.058 0 0 1-1.046-1.045v-9.218c0-.567.478-1.044 1.046-1.044.568 0 1.046.477 1.046 1.044v9.218c0 .567-.448 1.045-1.046 1.045z"/></g></g></g></g></g><g><g><g><g><g><path fill="#fff" d="M357.71 313.718V304.5"/></g><g><path fill="#ed7e2e" d="M357.716 314.767a1.058 1.058 0 0 1-1.046-1.045v-9.218c0-.567.478-1.044 1.046-1.044.568 0 1.046.477 1.046 1.044v9.218c0 .597-.478 1.045-1.046 1.045z"/></g></g><g><g><path fill="#fff" d="M366.947 304.53h-9.237"/></g><g><path fill="#ed7e2e" d="M366.953 305.578h-9.237a1.058 1.058 0 0 1-1.046-1.044c0-.567.478-1.044 1.046-1.044h9.237c.568 0 1.046.477 1.046 1.044 0 .567-.478 1.044-1.046 1.044z"/></g></g></g><g><g><g><path fill="#fff" d="M391.01 304.53h9.237"/></g><g><path fill="#ed7e2e" d="M400.253 305.578h-9.237a1.058 1.058 0 0 1-1.046-1.044c0-.567.478-1.044 1.046-1.044h9.237c.568 0 1.046.477 1.046 1.044 0 .567-.478 1.044-1.046 1.044z"/></g></g><g><g><path fill="#fff" d="M400.25 313.718V304.5"/></g><g><path fill="#ed7e2e" d="M400.246 314.767a1.058 1.058 0 0 1-1.046-1.045v-9.218c0-.567.478-1.044 1.046-1.044.568 0 1.047.477 1.047 1.044v9.218c0 .597-.479 1.045-1.047 1.045z"/></g></g></g></g><g><g><g><g><path fill="#fff" d="M400.25 337.74v9.218"/></g><g><path fill="#ed7e2e" d="M400.246 347.997a1.058 1.058 0 0 1-1.046-1.045v-9.218c0-.567.478-1.044 1.046-1.044.568 0 1.047.477 1.047 1.044v9.218c0 .567-.479 1.045-1.047 1.045z"/></g></g><g><g><path fill="#fff" d="M391.01 346.95h9.237"/></g><g><path fill="#ed7e2e" d="M400.253 347.998h-9.237a1.058 1.058 0 0 1-1.046-1.044c0-.567.478-1.044 1.046-1.044h9.237c.568 0 1.046.477 1.046 1.044 0 .567-.478 1.044-1.046 1.044z"/></g></g></g><g><g><g><path fill="#fff" d="M366.947 346.95h-9.237"/></g><g><path fill="#ed7e2e" d="M366.953 347.998h-9.237a1.058 1.058 0 0 1-1.046-1.044c0-.567.478-1.044 1.046-1.044h9.237c.568 0 1.046.477 1.046 1.044 0 .567-.478 1.044-1.046 1.044z"/></g></g><g><g><path fill="#fff" d="M357.71 337.74v9.218"/></g><g><path fill="#ed7e2e" d="M357.716 347.997a1.058 1.058 0 0 1-1.046-1.045v-9.218c0-.567.478-1.044 1.046-1.044.568 0 1.046.477 1.046 1.044v9.218c0 .567-.478 1.045-1.046 1.045z"/></g></g></g></g></g><g><g><g><g><g><path fill="#fff" d="M247.44 117.298v-9.218"/></g><g><path fill="#ed7e2e" d="M247.436 118.347a1.058 1.058 0 0 1-1.046-1.045v-9.218c0-.567.478-1.044 1.046-1.044.568 0 1.046.477 1.046 1.044v9.218c0 .567-.448 1.045-1.046 1.045z"/></g></g><g><g><path fill="#fff" d="M256.677 108.08h-9.237"/></g><g><path fill="#ed7e2e" d="M256.673 109.128h-9.237a1.058 1.058 0 0 1-1.046-1.044c0-.567.478-1.044 1.046-1.044h9.237c.568 0 1.046.477 1.046 1.044 0 .567-.478 1.044-1.046 1.044z"/></g></g></g><g><g><g><path fill="#fff" d="M280.74 108.08h9.237"/></g><g><path fill="#ed7e2e" d="M289.973 109.128h-9.237a1.058 1.058 0 0 1-1.046-1.044c0-.567.478-1.044 1.046-1.044h9.237c.568 0 1.046.477 1.046 1.044 0 .567-.478 1.044-1.046 1.044z"/></g></g><g><g><path fill="#fff" d="M289.98 117.298v-9.218"/></g><g><path fill="#ed7e2e" d="M289.976 118.347a1.058 1.058 0 0 1-1.046-1.045v-9.218c0-.567.478-1.044 1.046-1.044.568 0 1.046.477 1.046 1.044v9.218c0 .567-.478 1.045-1.046 1.045z"/></g></g></g></g><g><g><g><g><path fill="#fff" d="M289.98 141.32v9.218"/></g><g><path fill="#ed7e2e" d="M289.976 151.547a1.058 1.058 0 0 1-1.046-1.045v-9.218c0-.567.478-1.044 1.046-1.044.568 0 1.046.477 1.046 1.044v9.218c0 .597-.478 1.045-1.046 1.045z"/></g></g><g><g><path fill="#fff" d="M280.74 150.51h9.237"/></g><g><path fill="#ed7e2e" d="M289.973 151.548h-9.237a1.058 1.058 0 0 1-1.046-1.044c0-.567.478-1.044 1.046-1.044h9.237c.568 0 1.046.477 1.046 1.044 0 .567-.478 1.044-1.046 1.044z"/></g></g></g><g><g><g><path fill="#fff" d="M256.677 150.51h-9.237"/></g><g><path fill="#ed7e2e" d="M256.673 151.548h-9.237a1.058 1.058 0 0 1-1.046-1.044c0-.567.478-1.044 1.046-1.044h9.237c.568 0 1.046.477 1.046 1.044 0 .567-.478 1.044-1.046 1.044z"/></g></g><g><g><path fill="#fff" d="M247.44 141.32v9.218"/></g><g><path fill="#ed7e2e" d="M247.436 151.547a1.058 1.058 0 0 1-1.046-1.045v-9.218c0-.567.478-1.044 1.046-1.044.568 0 1.046.477 1.046 1.044v9.218a1.02 1.02 0 0 1-1.046 1.045z"/></g></g></g></g></g><g><g><path fill="#6041a4" d="M550.13 211.273h-77.362a.599.599 0 0 1-.598-.596c0-.329.269-.597.598-.597h77.361c.329 0 .598.268.598.597a.599.599 0 0 1-.598.596z"/></g></g><g><g><path fill="#f28b41" d="M460.182 98.383h-2.093V17.268a5.34 5.34 0 0 0-5.35-5.34h-58.38a5.34 5.34 0 0 0-5.35 5.34v11.546c0 5.041-4.096 9.128-9.148 9.128H305.22v-2.088h74.641c3.886 0 7.055-3.162 7.055-7.04V17.268c0-4.087 3.348-7.428 7.443-7.428h58.38c4.095 0 7.443 3.341 7.443 7.428z"/></g></g><g><g><path fill="#f28b41" d="M447.807 28.967c-3.588 0-6.517-2.923-6.517-6.503s2.93-6.474 6.517-6.474 6.516 2.924 6.516 6.474c0 3.55-2.93 6.503-6.516 6.503zm0-10.889c-2.422 0-4.425 1.97-4.425 4.386a4.429 4.429 0 0 0 4.425 4.415 4.41 4.41 0 0 0 4.424-4.415c0-2.447-2.003-4.386-4.424-4.386z"/></g></g><g><g><path fill="#f28b41" d="M398.967 28.967c-3.588 0-6.517-2.923-6.517-6.503s2.93-6.474 6.517-6.474 6.516 2.924 6.516 6.474c0 3.55-2.93 6.503-6.516 6.503zm0-10.889c-2.422 0-4.425 1.97-4.425 4.386a4.429 4.429 0 0 0 4.425 4.415c2.42 0 4.424-1.969 4.424-4.415 0-2.447-1.973-4.386-4.424-4.386z"/></g></g><g><g><g><path fill="#ed7e2e" d="M66.597 350.89l-.568 3.64-3.049 4.415v8.204h14.378V350.89z"/></g><g><g><path fill="#6041a4" d="M73.375 355.133h-6.397a.599.599 0 0 1-.598-.596c0-.329.269-.597.598-.597h6.397c.329 0 .598.268.598.597a.599.599 0 0 1-.598.596z"/></g></g><g><g><path fill="#6041a4" d="M71.435 358.713h-6.397a.599.599 0 0 1-.598-.596c0-.329.269-.597.598-.597h6.397c.329 0 .598.268.598.597a.599.599 0 0 1-.598.596z"/></g></g><g><g><path fill="#6041a4" d="M77.352 365.124c-.12 0-.209-.03-.299-.09l-3.527-2.147a7.444 7.444 0 0 0-3.946-1.104c-2.391 0-4.663 1.164-6.128 3.103-.209.268-.568.328-.837.12-.269-.21-.328-.568-.12-.836 1.675-2.268 4.335-3.61 7.085-3.61 1.614 0 3.199.448 4.574 1.283l3.527 2.148a.65.65 0 0 1 .21.835.668.668 0 0 1-.539.298z"/></g></g></g><g><path fill="#ed7e2e" d="M43.577 351.1l-4.424 5.22-7.533 5.072v5.997h21.224V349.31z"/></g><g><path fill="#ed7e2e" d="M67.906 226.31s6.995-5.669 9.775 3.759c-.15-.567 3.946-1.253 4.424-1.283 2.66-.03 5.082 1.67 6.487 3.967 1.793 2.984 4.035 9.16.418 11.725-.418.298-3.587.745-3.497.537 0 0-3.259 9.367-13.512 2.327 0 0-10.402.417-9.207-6.325-.03.06-4.992-12.709 5.112-14.707z"/></g><g><path fill="#ed7e2e" d="M67.906 226.31s6.995-5.669 9.775 3.759c-.15-.567 3.946-1.253 4.424-1.283 2.66-.03 5.082 1.67 6.487 3.967 1.793 2.984 4.035 9.16.418 11.725-.418.298-3.587.745-3.497.537 0 0-3.259 9.367-13.512 2.327 0 0-10.402.417-9.207-6.325-.03.06-4.992-12.709 5.112-14.707z"/></g><g><g><path fill="#5e5e5e" d="M68.78 280.25l-5.112 24.344-7.593 36.038-.688 3.252-.448 2.177-.687 3.252-.598 2.834H40.8c.12-.925.24-1.88.359-2.834.15-1.074.269-2.178.418-3.252.09-.716.18-1.432.27-2.177.149-1.074.268-2.178.418-3.252 1.584-12.798 3.288-26.372 5.022-37.858 1.823-12.142 3.706-21.957 5.62-25.984l9.924 2.148z"/></g></g><g><g><path fill="#5e5e5e" d="M80.585 299.196c-.06 1.462-.658 3.013-.718 4.326l-1.674 37.082-.15 3.252-.089 2.177-.15 3.252-.119 2.834H65.967l-.15-2.834-.149-3.252-.09-2.177-.149-3.252-1.734-36.038-1.255-25.656h.359c2.062.06 12.704.388 12.883.388.389 0 1.525 2.565 1.704 2.894.747 1.432 1.345 2.923 1.853 4.474 1.226 4.058 1.525 8.294 1.346 12.53z"/></g></g><g><path fill="#ffcdbc" d="M54.185 266.736l-.866.537a11.914 11.914 0 0 1-6.457 1.91c-2.69 0-5.321-.926-7.443-2.626L22.38 253.013l4.574-6.593 14.079 8.592H53.05z"/></g><g><path fill="#ed7e2e" d="M54.184 231.143l-1.374-.09c-3.498-.06-7.653.716-9.835 3.819-1.285 1.85-1.614 4.624-.389 6.623 1.345 2.148 4.185 2.714 6.517 2.863 5.56.329 10.94-1.82 14.797-5.936.328-.358 1.165-1.044 1.285-1.552.269-1.103-1.824-2.297-2.75-2.893-2.481-1.611-5.35-2.566-8.25-2.834z"/></g><g><path fill="#6041a4" d="M76.004 280.52l-23.495-2.714-4.035-16.319-1.316-1.67a15.345 15.345 0 0 1-3.258-9.427v-1.581c0-2.566.538-5.132 1.614-7.459.957-2.118 3.05-3.49 5.321-3.49H74.42c3.527 0 6.247 3.162 5.829 6.742z"/></g><g><path fill="#af7b6d" d="M66.47 240.513L55.35 250l2.421-9.487V226.88h8.699z"/></g><g><path fill="#ffcdbc" d="M66.469 219.96H57.77v16.14h8.699z"/></g><g><g><path fill="#6041a4" d="M66.477 241.113h-8.7a.599.599 0 0 1-.597-.596c0-.329.269-.597.598-.597h8.699c.328 0 .597.268.597.597a.599.599 0 0 1-.597.596z"/></g></g><g><path fill="#ffcdbc" d="M67.729 220.222v3.52c0 5.728-4.514 10.353-10.074 10.353-3.856 0-6.965-3.193-6.965-7.16v-5.28c0-4.535 3.587-8.205 8.011-8.205h2.421c3.647-.03 6.607 3.013 6.607 6.772z"/></g><g><g><path fill="#cc9283" d="M57.718 234.872a.599.599 0 0 1-.598-.596c0-.328.269-.597.598-.597 1.405 0 2.78-.298 4.035-.925a.6.6 0 1 1 .538 1.074c-1.434.716-2.959 1.044-4.573 1.044z"/></g></g><g><path fill="#ed7e2e" d="M69.287 220.317v7.04c-6.666-2.536-10.522-5.937-11.897-10.143-1.465 3.162-4.424 4.922-8.28 5.817v-1.044c0-4.117 2.57-7.368 6.218-8.86 3.527-1.432 8.549-1.522 11.478 1.313 1.584 1.521 2.481 3.669 2.481 5.877z"/></g><g><path fill="#ed7e2e" d="M61.542 218.612c2.79 0 5.052-2.324 5.052-5.191s-2.262-5.191-5.052-5.191c-2.79 0-5.052 2.324-5.052 5.19 0 2.868 2.262 5.192 5.052 5.192z"/></g><g><g><path fill="#fff" d="M66.595 214.853a.63.63 0 0 1-.389-.15c-2.6-2.326-6.755-2.207-9.476-1.402a.598.598 0 0 1-.747-.417.596.596 0 0 1 .418-.746c3.17-.925 7.653-.984 10.612 1.67.24.21.27.597.06.836-.15.12-.299.209-.478.209z"/></g></g><g><g><path fill="#f9a5a5" d="M85.482 241.58c-.06 0-.09 0-.15-.03-.12-.03-2.6-.745-2.81-3.221a.602.602 0 0 1 .539-.656.603.603 0 0 1 .657.536c.12 1.641 1.854 2.148 1.913 2.148.33.09.509.418.419.746a.573.573 0 0 1-.568.478z"/></g></g><g><g><path fill="#353160" d="M49.4 257.367c-2.182 0-3.916-.597-4.812-1.015a.568.568 0 0 1-.3-.775.57.57 0 0 1 .778-.298c1.793.775 5.41 1.79 9.446-.418.299-.15.657-.06.807.239.15.298.06.656-.24.805-2.032 1.104-3.975 1.462-5.679 1.462z"/></g></g><g><g><path fill="#353160" d="M63.212 257.396c-3.318 0-5.62-1.432-5.77-1.521a.612.612 0 0 1-.179-.835.614.614 0 0 1 .837-.18c.21.12 4.843 2.954 10.253-.03.3-.148.658-.059.808.24.149.298.06.656-.24.805-2.062 1.134-4.005 1.521-5.71 1.521z"/></g></g><g><path fill="#ffcdbc" d="M87.425 264.706l-9.954 19.57H69.43l6.786-21.957-1.405-7.309h11.508l1.495 5.877c.359 1.283.209 2.625-.389 3.819z"/></g><g><path fill="#6041a4" d="M86.347 255.014H74.838L71.52 237.86l4.125.12c3.737 0 7.025 2.595 7.952 6.294z"/></g><g><g><path fill="#46b3bd" d="M77.469 284.873h-8.041a.599.599 0 0 1-.598-.596c0-.328.269-.597.598-.597h8.04c.33 0 .599.269.599.597a.599.599 0 0 1-.598.596z"/></g></g><g><g><path fill="#46b3bd" d="M54.783 284.873h-4.005a.599.599 0 0 1-.598-.596c0-.328.269-.597.598-.597h4.005c.33 0 .598.269.598.597a.599.599 0 0 1-.598.596z"/></g></g><g><path fill="#6041a4" d="M53.047 255.133H41.03c.09-1.939.269-3.878.269-5.787 0-2.715.03-5.818 1.674-8.085 1.495-2.088 3.886-3.341 6.397-3.371l1.973-.03z"/></g><g><g><path fill="#353160" d="M74.846 255.608a.576.576 0 0 1-.568-.448l-1.375-5.041a.596.596 0 0 1 .419-.746c.328-.09.657.09.747.418l1.375 5.041a.596.596 0 0 1-.419.746c-.09.03-.15.03-.179.03z"/></g></g><g><path fill="#ffcdbc" d="M67.489 229.059c-1.674 0-3.049-1.402-3.049-3.133v-1.104c0-1.73 1.375-3.132 3.049-3.132s3.049 1.402 3.049 3.132v1.104c0 1.73-1.345 3.133-3.049 3.133z"/></g><g><g><path fill="#cc9283" d="M66.618 226.932a.63.63 0 0 1-.388-.149.604.604 0 0 1-.06-.835l1.764-2.059a.607.607 0 0 1 .837-.06c.239.21.269.597.06.836l-1.764 2.058a.578.578 0 0 1-.449.21z"/></g></g><g><g><path fill="#f9a5a5" d="M75.678 232.9a.599.599 0 0 1-.598-.596c0-1.133.777-2.207 2.302-3.132.269-.18.657-.09.837.209.18.268.09.656-.21.835-.777.477-1.733 1.253-1.733 2.118 0 .298-.27.567-.598.567z"/></g></g><g><path fill="#fff" d="M56.069 340.63l-.688 3.252H41.84c.15-1.074.269-2.178.418-3.252z"/></g><g><path fill="#fff" d="M78.194 340.63l-.15 3.252H65.55l-.149-3.252z"/></g><g><path fill="#fff" d="M54.9 346.06l-.687 3.252H41.12c.15-1.074.269-2.178.418-3.252z"/></g><g><path fill="#fff" d="M77.956 346.06l-.15 3.252H65.82l-.149-3.252z"/></g><g><g><path fill="#020202" d="M53.44 340.69c-.06 0-.09 0-.15-.03a.607.607 0 0 1-.449-.716l9.895-41.825a.608.608 0 0 1 .717-.448c.329.09.508.388.449.716l-9.895 41.826a.573.573 0 0 1-.568.477z"/></g></g><g><g><path fill="#46b3bd" d="M63.662 305.161c-.33 0-.568-.239-.598-.567l-.419-8.86c-.687-.716-3.079-3.58-3.856-9.159-.06-.328.18-.626.508-.686.33-.06.628.18.688.507.837 5.967 3.647 8.622 3.677 8.622l.179.179v.239l.448 9.099c-.03.328-.269.626-.627.626z"/></g></g><g><g><path fill="#020202" d="M75.02 340.692h-.03c-.329-.03-.598-.298-.568-.626l1.375-27.267c.18-3.52 1.226-7.04 3.02-10.173.508-.865.866-1.76 1.105-2.595a.58.58 0 0 1 .718-.418c.329.09.508.418.418.716-.239.955-.657 1.91-1.225 2.894-1.704 2.983-2.69 6.294-2.84 9.636l-1.375 27.267a.614.614 0 0 1-.598.566z"/></g></g><g><g><path fill="#6041a4" d="M48.03 363.57c-1.494 0-2.69-1.224-2.69-2.745 0-1.522 1.226-2.745 2.69-2.745 1.495 0 2.69 1.223 2.69 2.745 0 1.521-1.195 2.744-2.69 2.744zm0-4.327c-.837 0-1.494.687-1.494 1.552s.687 1.551 1.494 1.551c.837 0 1.495-.686 1.495-1.551 0-.836-.658-1.552-1.495-1.552z"/></g></g><g><g><path fill="#6041a4" d="M42.771 358.943h-7.443a.599.599 0 0 1-.598-.596c0-.329.269-.597.598-.597h7.443c.329 0 .598.268.598.597a.599.599 0 0 1-.598.596z"/></g></g><g><g><path fill="#6041a4" d="M46.471 355.933h-7.443a.599.599 0 0 1-.598-.596c0-.329.269-.597.598-.597h7.443c.329 0 .598.268.598.597a.599.599 0 0 1-.598.596z"/></g></g><g><g><path fill="#cc9283" d="M78.729 262.913h-2.481a.599.599 0 0 1-.598-.596c0-.329.269-.597.598-.597h2.48c.33 0 .599.268.599.597a.599.599 0 0 1-.598.596z"/></g></g><g><g><path fill="#353160" d="M62.89 270.583c-.09 0-.15 0-.24-.06l-13.84-5.698a.605.605 0 0 1-.329-.776.607.607 0 0 1 .777-.328l13.84 5.698c.3.12.449.478.33.776-.06.239-.3.388-.539.388z"/></g></g><g><g><path fill="#353160" d="M44.083 253.103a.608.608 0 0 1-.598-.508c-.956-5.936.09-12.798 4.574-14.796a.57.57 0 0 1 .777.298c.15.298 0 .656-.299.776-3.886 1.73-4.723 8.203-3.886 13.514.06.328-.18.626-.508.686 0 .03-.03.03-.06.03z"/></g></g></g><g><g><path fill="#f28b41" d="M14.397 57.277c-3.588 0-6.517-2.924-6.517-6.503 0-3.58 2.93-6.504 6.517-6.504s6.516 2.924 6.516 6.504c0 3.58-2.93 6.503-6.516 6.503zm0-10.889c-2.422 0-4.425 1.97-4.425 4.415 0 2.447 2.003 4.386 4.425 4.386 2.42 0 4.424-1.97 4.424-4.415 0-2.447-1.973-4.386-4.424-4.386z"/></g></g><g><g><path fill="#f28b41" d="M49.047 57.277c-3.588 0-6.517-2.924-6.517-6.503 0-3.58 2.93-6.504 6.517-6.504s6.516 2.924 6.516 6.504c0 3.58-2.93 6.503-6.516 6.503zm0-10.889c-2.422 0-4.425 1.97-4.425 4.415a4.41 4.41 0 0 0 4.425 4.416 4.41 4.41 0 0 0 4.424-4.416 4.41 4.41 0 0 0-4.424-4.415z"/></g></g><g><g><path fill="#f28b41" d="M514.113 242.273H476.12v-2.088h35.9V223.21h2.093z"/></g></g></g></g></svg>