<svg xmlns="http://www.w3.org/2000/svg" width="174" height="44" viewBox="0 0 174 44"><g><g><g/><g><g><g><g><path fill="#fff" d="M30.55 41.94l.148-.147.37-.368c.296-.293.74-.808 1.258-1.322.295-.294.517-.588.887-.881.296-.294.592-.661.962-1.029l.518-.514.518-.514.518-.514.517-.515c.148-.22.37-.367.518-.587l.518-.514.518-.515.518-.514c.296-.367.666-.66.962-1.028l.887-.882c.518-.587.962-1.028 1.258-1.322l.37-.367.148-.147.518.514-.148.147-.37.367c-.296.294-.814.735-1.332 1.25l-.888.88c-.295.294-.665.662-1.035.956l-.518.514-.518.514-.518.514c-.148.147-.37.367-.592.514l-.518.514-.517.515-.518.514-.518.514c-.37.367-.666.661-1.036.955l-.888.881c-.591.515-1.035.955-1.331 1.25l-.37.367c-.148 0-.222.073-.296 0z"/></g></g><g><g><path fill="#fff" d="M24.49 43.702l.222-.22.592-.588.444-.44c.148-.147.296-.368.518-.515.37-.367.74-.808 1.183-1.248 1.776-1.837 4.143-4.26 6.51-6.685 2.368-2.424 4.735-4.848 6.51-6.684.888-.882 1.628-1.69 2.146-2.204.222-.294.444-.44.592-.588l.222-.22.74.735-.222.22-.592.588c-.518.514-1.332 1.248-2.22 2.13-1.85 1.763-4.29 4.113-6.732 6.464-2.441 2.35-4.882 4.701-6.732 6.464-.444.44-.888.808-1.258 1.175l-.517.515-.444.44c-.296.294-.518.441-.592.588-.296 0-.37.073-.37.073z"/></g></g><g><g><path fill="#fff" d="M22.05 41.65l.222-.22.666-.662a16.23 16.23 0 0 0 1.035-1.101l.666-.662c.222-.22.444-.514.74-.734.518-.514 1.036-1.102 1.628-1.69.591-.587 1.183-1.175 1.775-1.836.592-.661 1.258-1.322 1.924-1.983.296-.368.665-.661.961-1.029.148-.147.296-.367.518-.514.148-.147.296-.367.518-.514C38.03 25.269 43.356 19.76 43.356 19.76l.888.881s-5.475 5.29-11.023 10.578c-.148.147-.37.294-.518.514-.148.147-.37.294-.518.515-.37.293-.666.66-1.036.954-.665.662-1.331 1.323-1.997 1.91-.666.588-1.258 1.249-1.85 1.763-.591.588-1.183 1.102-1.701 1.616-.222.22-.518.441-.74.735l-.666.66c-.443.442-.813.735-1.11 1.03l-.665.66-.222.22z"/></g></g><g><g><path fill="#fff" d="M21.97 37.166s1.332-1.323 3.255-3.38c1.924-1.983 4.587-4.7 7.176-7.345 2.59-2.644 5.179-5.362 7.176-7.345.962-1.029 1.776-1.837 2.368-2.425l.665-.66.222-.221 1.036 1.028-.222.22-.666.662a86.957 86.957 0 0 1-2.441 2.35c-1.998 1.91-4.735 4.555-7.398 7.126a389.036 389.036 0 0 0-7.398 7.125 639.054 639.054 0 0 1-3.403 3.232z"/></g></g><g><g><path fill="#fff" d="M21.9 32.687s.296-.294.814-.882l.444-.44.518-.514c.37-.368.813-.808 1.257-1.323 1.85-1.91 4.291-4.407 6.732-6.905 2.442-2.497 4.883-4.995 6.733-6.904.887-.955 1.701-1.763 2.219-2.278.296-.293.444-.514.592-.66l.222-.221 1.11 1.102-.223.22c-.148.147-.37.367-.665.588-.518.514-1.332 1.322-2.294 2.204-1.923 1.836-4.439 4.26-6.954 6.684-2.515 2.424-5.104 4.848-6.954 6.685-.444.44-.888.88-1.332 1.248-.222.147-.37.368-.517.514l-.444.441c-.518.514-.888.808-.888.808z"/></g></g><g><g><path fill="#fff" d="M21.82 28.284l9.026-9.255c2.293-2.277 4.512-4.628 6.214-6.39.814-.882 1.553-1.617 2.071-2.131l.592-.588.222-.22 1.184 1.175-.222.22c-.148.148-.37.294-.592.588-.518.514-1.258 1.176-2.145 2.057-1.776 1.69-4.07 3.967-6.437 6.17l-9.321 8.962z"/></g></g><g><g><path fill="#fff" d="M21.75 23.805s4.069-4.187 8.138-8.301c1.997-2.057 4.069-4.187 5.622-5.73.74-.808 1.406-1.395 1.85-1.91.222-.22.37-.44.518-.514.147-.147.147-.22.147-.22l1.258 1.249s-.074.073-.222.147l-.518.514c-.444.44-1.11 1.102-1.923 1.836-1.554 1.543-3.625 3.526-5.77 5.583-4.217 4.04-8.36 8.08-8.36 8.08z"/></g></g><g><g><path fill="#fff" d="M21.68 19.387s3.551-3.599 7.028-7.198c.888-.882 1.776-1.763 2.59-2.645l2.293-2.277c.665-.661 1.183-1.249 1.627-1.616.148-.22.296-.367.37-.514l.148-.147 1.258 1.249-.148.147c-.074.073-.296.22-.444.44l-1.628 1.616c-.665.662-1.48 1.396-2.293 2.278-.814.808-1.775 1.689-2.663 2.57-3.625 3.526-7.25 6.979-7.25 6.979z"/></g></g><g><g><path fill="#fff" d="M21.6 14.986l5.844-5.95c1.48-1.469 2.886-2.938 3.995-4.04.518-.587 1.036-1.028 1.332-1.322l.37-.367.148-.147 1.257 1.249-.147.147-.37.367c-.296.294-.814.734-1.332 1.322-1.11 1.102-2.59 2.498-4.069 3.967-2.96 2.865-5.992 5.803-5.992 5.803z"/></g></g><g><g><path fill="#fff" d="M21.53 10.502s2.22-2.278 4.439-4.481c1.11-1.102 2.22-2.277 3.033-3.085.444-.441.74-.808 1.036-1.029l.37-.367 1.331 1.322-.37.367-1.035 1.029c-.814.808-1.998 1.91-3.108 3.012-2.293 2.203-4.512 4.407-4.512 4.407z"/></g></g><g><g><path fill="#fff" d="M21.45 6.093s1.332-1.396 2.737-2.792c.666-.66 1.332-1.395 1.85-1.91.222-.293.444-.44.592-.66L26.85.51l1.331 1.322-.222.22c-.148.147-.37.368-.666.588a49.898 49.898 0 0 1-1.923 1.837c-1.406 1.322-2.811 2.717-2.811 2.717z"/></g></g><g><g><path fill="#fff" d="M21.45 1.69L23.078 0l1.405 1.396-1.701 1.616z"/></g></g></g></g><g><g><g><g><path fill="#f28b41" d="M19.75 42.68l1.702-1.69 1.331 1.322-1.701 1.69z"/></g></g><g><g><path fill="#f28b41" d="M16.13 41.865l5.327-5.215 1.257 1.249-5.252 5.362z"/></g></g><g><g><path fill="#f28b41" d="M12.65 40.984s2.22-2.13 4.439-4.334c1.11-1.101 2.22-2.13 3.033-2.938.444-.367.74-.734 1.036-.955l.37-.367 1.183 1.175-.37.368c-.222.22-.592.587-.961 1.028-.814.808-1.924 1.91-2.96 3.012-2.145 2.203-4.364 4.407-4.364 4.407z"/></g></g><g><g><path fill="#f28b41" d="M9.84 39.446L21.603 28.06l1.036 1.028-11.467 11.68z"/></g></g><g><g><path fill="#f28b41" d="M7.32 37.54s3.551-3.453 7.176-6.905l2.59-2.571c.813-.808 1.627-1.543 2.293-2.204.665-.66 1.257-1.175 1.627-1.542l.444-.441.148-.147.888.881-.148.147-.444.441c-.37.367-.888.955-1.554 1.616-.665.661-1.405 1.47-2.219 2.277l-2.59 2.571c-3.476 3.526-6.953 7.125-6.953 7.125z"/></g></g><g><g><path fill="#f28b41" d="M5.03 35.557s4.143-4.04 8.36-8.08c2.071-1.984 4.217-4.04 5.77-5.51 1.554-1.542 2.59-2.497 2.59-2.497l.74.735s-1.036 1.028-2.516 2.57a234.687 234.687 0 0 0-5.549 5.73c-4.068 4.114-8.137 8.3-8.137 8.3z"/></g></g><g><g><path fill="#f28b41" d="M3.18 33.133l9.321-8.961c2.368-2.204 4.661-4.481 6.437-6.17 1.775-1.69 2.885-2.792 2.885-2.792l.592.588s-1.11 1.175-2.811 2.864a1804.18 1804.18 0 0 1-6.215 6.391L4.364 34.31z"/></g></g><g><g><path fill="#f28b41" d="M1.63 30.336l10.135-9.77c2.515-2.424 5.105-4.848 6.954-6.684l.666-.661.592-.588c.074-.074.222-.147.296-.294.074-.073.148-.147.296-.22l.444-.441c.296-.294.517-.44.665-.588l.222-.22.444.44-.222.221c-.148.147-.37.367-.592.661l-.443.44c-.074.074-.148.148-.222.295-.074.073-.148.22-.296.294l-.592.587-.666.661c-1.85 1.91-4.29 4.408-6.732 6.905l-9.84 10.064z"/></g></g><g><g><path fill="#f28b41" d="M.74 26.957s5.327-5.068 10.58-10.21c1.33-1.249 2.662-2.571 3.92-3.746l.444-.441.444-.44c.296-.295.592-.588.888-.809.148-.147.295-.294.443-.367.148-.147.296-.294.444-.367.296-.22.518-.515.74-.735.518-.514.962-.881 1.332-1.322.444-.367.74-.735 1.035-1.029l.666-.66c.222-.148.296-.221.296-.221l.296.294-.222.22-.666.661-1.035 1.029c-.37.367-.814.881-1.332 1.322l-.74.734c-.148.147-.296.294-.37.441-.148.147-.296.294-.37.44-.296.295-.592.589-.813.882l-.444.441-.444.44c-1.184 1.25-2.516 2.572-3.773 3.894L1.702 27.986z"/></g></g><g><g><path fill="#f28b41" d="M0 23.432s5.474-5.289 11.023-10.578c.74-.66 1.406-1.322 2.071-1.983.666-.661 1.332-1.322 1.998-1.91 1.258-1.249 2.515-2.35 3.55-3.379.519-.514 1.037-.955 1.407-1.322.443-.44.813-.735 1.11-1.029.295-.293.517-.514.739-.66l.222-.221.074.073-.222.22c-.148.148-.37.368-.666.735-.296.294-.666.661-1.036 1.102-.443.441-.887.882-1.331 1.396-.962 1.028-2.146 2.204-3.403 3.526-.592.66-1.258 1.322-1.924 1.983a53.58 53.58 0 0 0-1.997 2.057C6.215 18.878.888 24.313.888 24.313z"/></g></g><g><g><path fill="#f28b41" d="M.07 19.172s1.258-1.176 3.033-2.939c.888-.881 1.998-1.91 3.107-3.011l.444-.441.444-.44a7352.268 7352.268 0 0 0 1.776-1.764l.887-.881c2.442-2.35 4.883-4.701 6.733-6.464l.665-.661.592-.588.962-.955c.296-.22.444-.44.592-.588l.222-.22-.222.22-.592.588c-.074.44-.37.808-.74 1.175-.148.22-.37.368-.592.588l-.666.661a2059.6 2059.6 0 0 1-6.51 6.685l-.888.881a7352.268 7352.268 0 0 0-1.775 1.763l-.444.44-.444.441a130.036 130.036 0 0 1-3.033 3.086c-1.775 1.836-2.96 3.011-2.96 3.011z"/></g></g><g><g><path fill="#f28b41" d="M1.63 13.44l.518-.514.296-.294c.074-.074.222-.22.37-.294a8.08 8.08 0 0 1 .813-.735l.444-.44c.148-.147.296-.294.518-.441.148-.147.37-.294.518-.514l.518-.514 1.11-1.102.591-.588.592-.588.592-.587.592-.588 1.11-1.102c.37-.367.74-.66 1.035-1.028.296-.147.592-.44.888-.735.296-.293.592-.514.814-.734l.296-.294.296-.294c.37-.294.518-.514.518-.514l.074.073-.518.515-.296.293-.296.294c-.222.22-.518.514-.74.808a11.31 11.31 0 0 0-.888.955L10.36 5.507 9.25 6.608l-.592.588-.592.588-.592.587c-.074.22-.296.441-.443.588l-1.11 1.102-.518.514c-.148.147-.296.367-.518.514-.148.147-.296.294-.444.514l-.444.441c-.296.294-.518.588-.74.808-.147.147-.221.22-.295.367l-.296.294c-.296.368-.518.514-.518.514z"/></g></g></g></g><g><g><path fill="#fff" d="M58.59 32.612V11.31h4.735v17.042h10.727v4.26z"/></g><g><path fill="#fff" d="M77.83 32.612V11.31h4.735v21.376H77.83z"/></g><g><path fill="#fff" d="M87.96 32.612V11.31h4.735v9.329l8.73-9.329h5.696l-8.73 9.035 9.174 12.267h-5.697l-6.658-9.108-2.515 2.57v6.538z"/></g><g><path fill="#fff" d="M115.114 32.766l-7.324-21.523h5.03l4.44 14.471 4.808-14.544h4.069l4.809 14.544 4.438-14.47h4.957l-7.324 21.522h-4.143l-4.883-13.957-4.882 13.957z"/></g><g><path fill="#fff" d="M144.11 32.612V11.31h4.735v21.376h-4.735z"/></g><g><path fill="#fff" d="M154.25 11.31h8.36c3.329 0 6.066 1.028 8.211 3.012 2.146 2.056 3.182 4.554 3.182 7.64 0 3.084-1.036 5.582-3.182 7.639-2.145 2.056-4.882 3.085-8.211 3.085h-8.36zm8.36 17.115c1.923 0 3.477-.587 4.734-1.763 1.184-1.175 1.776-2.718 1.776-4.627 0-1.91-.592-3.453-1.776-4.628-1.183-1.175-2.737-1.763-4.66-1.763h-3.625v12.781z"/></g></g></g></g></svg>