<svg xmlns="http://www.w3.org/2000/svg" width="45" height="45" viewBox="0 0 45 45"><defs><clipPath id="y90ja"><path fill="#fff" d="M0 12C0 5.373 5.373 0 12 0h21c6.627 0 12 5.373 12 12v21c0 6.627-5.373 12-12 12H12C5.373 45 0 39.627 0 33z"/></clipPath></defs><g><g><g/><g opacity=".2"><path fill="none" stroke="#f80" stroke-miterlimit="20" stroke-width="2" d="M0 12C0 5.373 5.373 0 12 0h21c6.627 0 12 5.373 12 12v21c0 6.627-5.373 12-12 12H12C5.373 45 0 39.627 0 33z" clip-path="url(&quot;#y90ja&quot;)"/></g><g><g/><g><path fill="#f28b41" d="M12.499 13.634a1 1 0 0 0 0 1.732l9.25 5.345a1 1 0 0 0 1.001 0l9.251-5.345a1 1 0 0 0 0-1.732l-9.25-5.345a1 1 0 0 0-1.001 0z"/></g><g opacity=".3"><path fill="#f80" d="M12.499 30.366a1 1 0 0 1 0-1.732l9.25-5.345a1 1 0 0 1 1.001 0l9.251 5.345a1 1 0 0 1 0 1.732l-9.25 5.345a1 1 0 0 1-1.001 0z"/></g><g opacity=".8"><path fill="#f80" d="M24.749 22.866a1 1 0 0 1 0-1.732l8.25-4.767a1 1 0 0 1 1.501.866v9.534a1 1 0 0 1-1.5.866z"/></g><g opacity=".6"><path fill="#f80" d="M11.5 27.633a1 1 0 0 1-1.5-.866v-9.534a1 1 0 0 1 1.5-.866l8.251 4.767a1 1 0 0 1 0 1.732z"/></g></g></g></g></svg>