<svg xmlns="http://www.w3.org/2000/svg" width="45" height="45" viewBox="0 0 45 45"><defs><clipPath id="izqya"><path fill="#fff" d="M0 12C0 5.373 5.373 0 12 0h21c6.627 0 12 5.373 12 12v21c0 6.627-5.373 12-12 12H12C5.373 45 0 39.627 0 33z"/></clipPath></defs><g><g><g/><g opacity=".2"><path fill="none" stroke="#f2b132" stroke-miterlimit="20" stroke-width="2" d="M0 12C0 5.373 5.373 0 12 0h21c6.627 0 12 5.373 12 12v21c0 6.627-5.373 12-12 12H12C5.373 45 0 39.627 0 33z" clip-path="url(&quot;#izqya&quot;)"/></g><g><g/><g><path fill="#f2b132" d="M12.515 30.485A12 12 0 0 0 21 34V10a12 12 0 0 0-8.485 20.485z"/></g><g><path fill="#f2b132" d="M23 22V10c8 .5 11.667 8.5 11.5 12z"/></g><g transform="rotate(90 29 29)"><path fill="#f2b132" d="M23.75 34.75v-11.5c8 .5 10.167 8 10 11.5z"/></g></g></g></g></svg>