<svg xmlns="http://www.w3.org/2000/svg" width="45" height="45" viewBox="0 0 45 45"><defs><clipPath id="iwu6a"><path fill="#fff" d="M0 12C0 5.373 5.373 0 12 0h21c6.627 0 12 5.373 12 12v21c0 6.627-5.373 12-12 12H12C5.373 45 0 39.627 0 33z"/></clipPath></defs><g><g><g/><g opacity=".2"><path fill="none" stroke="#38a254" stroke-miterlimit="20" stroke-width="2" d="M0 12C0 5.373 5.373 0 12 0h21c6.627 0 12 5.373 12 12v21c0 6.627-5.373 12-12 12H12C5.373 45 0 39.627 0 33z" clip-path="url(&quot;#iwu6a&quot;)"/></g><g><g/><g><path fill="#38a254" d="M19 10h-7a2 2 0 0 0-2 2v20a2 2 0 0 0 2 2h7a2 2 0 0 0 2-2V12a2 2 0 0 0-2-2z"/></g><g opacity=".6"><path fill="#38a254" d="M32 10h-7a2 2 0 0 0-2 2v7a2 2 0 0 0 2 2h7a2 2 0 0 0 2-2v-7a2 2 0 0 0-2-2z"/></g><g opacity=".3"><path fill="#38a254" d="M32 23h-7a2 2 0 0 0-2 2v7a2 2 0 0 0 2 2h7a2 2 0 0 0 2-2v-7a2 2 0 0 0-2-2z"/></g></g></g></g></svg>