<svg width="40" height="40" viewBox="0 0 40 40" fill="none" xmlns="http://www.w3.org/2000/svg">
<path d="M25.3285 17.4654C25.2312 16.6751 24.9883 16.0546 24.557 15.505C23.9968 14.7973 23.2811 14.3735 22.2213 14.1221C21.5307 13.9545 21.2517 13.9737 21.0019 14.2019C20.7692 14.4157 20.7238 14.8442 20.9016 15.1217C21.0266 15.3231 21.1709 15.3953 21.5721 15.474C22.1063 15.5723 22.4755 15.6999 22.8114 15.8919C23.5243 16.3036 23.8562 16.9477 23.8918 17.9905C23.9084 18.4801 23.9507 18.6306 24.1217 18.8043C24.4387 19.1217 25.0028 19.06 25.242 18.6801C25.3298 18.5369 25.3432 18.4746 25.3525 18.1421C25.3586 17.9363 25.3498 17.6299 25.3285 17.4654Z" fill="#979797"/>
<path d="M28.1204 18.3561C27.9796 15.935 27.0326 13.987 25.3378 12.6165C24.3829 11.8464 23.2287 11.3169 21.9634 11.0594C21.5 10.9673 20.6467 10.8926 20.5003 10.9353C20.3621 10.9749 20.1668 11.1244 20.0797 11.2597C19.9876 11.4064 19.9668 11.7339 20.0454 11.9233C20.1722 12.24 20.4081 12.3519 21.0687 12.4097C22.0871 12.4988 23.1375 12.8566 23.9312 13.3863C24.8373 13.9894 25.5576 14.8143 26.0236 15.7837C26.4262 16.6165 26.6738 17.8168 26.6669 18.8916C26.6647 19.2803 26.7247 19.4999 26.881 19.6604C27.117 19.9072 27.4609 19.9611 27.7645 19.7972C28.1009 19.6203 28.1796 19.3097 28.1204 18.3561Z" fill="#979797"/>
<path d="M31.2102 27.6802C31.1628 27.5418 31.0523 27.3284 30.9734 27.2058C30.476 26.4548 27.8037 24.3635 26.4696 23.6795C25.7078 23.2882 25.1433 23.1578 24.7249 23.2803C24.2749 23.4068 24.0381 23.6163 23.2841 24.5532C22.9802 24.9288 22.6684 25.2806 22.5855 25.3359C22.3802 25.4783 21.9776 25.593 21.6934 25.593C21.0342 25.5889 19.8382 25.162 18.9185 24.6006C18.204 24.1658 17.2883 23.3871 16.5857 22.6162C15.7567 21.7109 15.1923 20.9123 14.7462 20.011C14.17 18.8527 14.0239 18.1451 14.2647 17.6272C14.3239 17.4967 14.4029 17.3584 14.4383 17.3149C14.4739 17.2754 14.845 16.971 15.2554 16.6389C16.0607 15.9985 16.1909 15.8522 16.3409 15.4134C16.5304 14.856 16.4791 14.2867 16.187 13.7135C15.962 13.2786 15.3739 12.3299 14.9476 11.7171C14.3831 10.9107 12.9779 9.18712 12.6976 8.95381C12.1924 8.54272 11.5451 8.47152 10.8306 8.7483C10.0767 9.04084 8.66355 10.1794 8.05961 10.974C7.51489 11.6934 7.30575 12.2034 7.27414 12.8754C7.24653 13.4289 7.29388 13.6581 7.58598 14.3658C9.87143 19.9161 13.2818 24.3476 17.9672 27.8661C20.4145 29.7043 22.9526 31.1037 25.5854 32.0604C27.1208 32.6178 27.7879 32.6455 28.5734 32.1869C28.905 31.9892 29.726 31.1472 30.1839 30.5345C30.9418 29.5145 31.222 29.0441 31.301 28.6685C31.3562 28.4116 31.3128 27.9649 31.2102 27.6802Z" fill="#979797"/>
<path d="M30.963 18.9127C30.9124 17.5432 30.6818 16.4199 30.201 15.1674C29.7263 13.9354 29.2459 13.1315 28.3386 12.0441C27.4808 11.0246 26.8145 10.4425 25.7578 9.79451C24.2836 8.89168 22.4894 8.29423 20.4787 8.04296C19.793 7.95514 19.6379 7.96142 19.4276 8.10178C19.0199 8.36769 19.0253 9.03092 19.4343 9.29284C19.5696 9.37615 19.6898 9.40651 20.2382 9.4783C21.0802 9.59165 21.6216 9.69849 22.2641 9.87377C24.7832 10.5624 26.7205 11.97 28.0157 14.0596C29.0995 15.8012 29.5494 17.543 29.4855 19.7676C29.4633 20.5196 29.4794 20.652 29.5944 20.8327C29.8146 21.1695 30.3952 21.2361 30.693 20.9566C30.8783 20.7863 30.9133 20.6584 30.9498 20.0148C30.9673 19.679 30.971 19.1833 30.963 18.9127Z" fill="#979797"/>
</svg>
